<?xml version="1.0" encoding="utf-8" standalone="no"?>
<!DOCTYPE svg PUBLIC "-//W3C//DTD SVG 1.1//EN"
  "http://www.w3.org/Graphics/SVG/1.1/DTD/svg11.dtd">
<svg xmlns:xlink="http://www.w3.org/1999/xlink" width="714.806719pt" height="282.112031pt" viewBox="0 0 714.806719 282.112031" xmlns="http://www.w3.org/2000/svg" version="1.1">
 <metadata>
  <rdf:RDF xmlns:dc="http://purl.org/dc/elements/1.1/" xmlns:cc="http://creativecommons.org/ns#" xmlns:rdf="http://www.w3.org/1999/02/22-rdf-syntax-ns#">
   <cc:Work>
    <dc:type rdf:resource="http://purl.org/dc/dcmitype/StillImage"/>
    <dc:date>2026-10-02T21:11:20.166164</dc:date>
    <dc:format>image/svg+xml</dc:format>
    <dc:creator>
     <cc:Agent>
      <dc:title>Matplotlib v3.6.3, https://matplotlib.org/</dc:title>
     </cc:Agent>
    </dc:creator>
   </cc:Work>
  </rdf:RDF>
 </metadata>
 <defs>
  <style type="text/css">*{stroke-linejoin: round; stroke-linecap: butt}</style>
 </defs>
 <g id="figure_1">
  <g id="patch_1">
   <path d="M 0 282.112031 
L 714.806719 282.112031 
L 714.806719 0 
L 0 0 
z
" style="fill: #fcfcfb"/>
  </g>
  <g id="axes_1">
   <g id="patch_2">
    <path d="M 39.916719 245.435312 
L 707.606719 245.435312 
L 707.606719 21.955312 
L 39.916719 21.955312 
z
" style="fill: #fcfcfb"/>
   </g>
   <g id="matplotlib.axis_1">
    <g id="xtick_1">
     <g id="line2d_1">
      <path d="M 65.122273 245.435312 
L 65.122273 21.955312 
" clip-path="url(#p375b4c1e46)" style="fill: none; stroke: #e4e3df; stroke-width: 0.6; stroke-linecap: round"/>
     </g>
     <g id="line2d_2">
      <defs>
       <path id="me181d3a39d" d="M 0 0 
L 0 3.5 
" style="stroke: #000000; stroke-width: 0.8"/>
      </defs>
      <g>
       <use xlink:href="#me181d3a39d" x="65.122273" y="245.435312" style="stroke: #000000; stroke-width: 0.8"/>
      </g>
     </g>
     <g id="text_1">
      <!-- 0 -->
      <g transform="translate(62.624773 259.59875) scale(0.09 -0.09)">
       <defs>
        <path id="NotoSansCJKjp-Regular-30" d="M 1779 -83 
C 2669 -83 3238 723 3238 2362 
C 3238 3987 2669 4774 1779 4774 
C 883 4774 320 3987 320 2362 
C 320 723 883 -83 1779 -83 
z
M 1779 390 
C 1248 390 883 986 883 2362 
C 883 3731 1248 4314 1779 4314 
C 2310 4314 2675 3731 2675 2362 
C 2675 986 2310 390 1779 390 
z
" transform="scale(0.015625)"/>
       </defs>
       <use xlink:href="#NotoSansCJKjp-Regular-30"/>
      </g>
     </g>
    </g>
    <g id="xtick_2">
     <g id="line2d_3">
      <path d="M 168.002089 245.435312 
L 168.002089 21.955312 
" clip-path="url(#p375b4c1e46)" style="fill: none; stroke: #e4e3df; stroke-width: 0.6; stroke-linecap: round"/>
     </g>
     <g id="line2d_4">
      <g>
       <use xlink:href="#me181d3a39d" x="168.002089" y="245.435312" style="stroke: #000000; stroke-width: 0.8"/>
      </g>
     </g>
     <g id="text_2">
      <!-- 10 -->
      <g transform="translate(163.007089 259.59875) scale(0.09 -0.09)">
       <defs>
        <path id="NotoSansCJKjp-Regular-31" d="M 563 0 
L 3136 0 
L 3136 486 
L 2195 486 
L 2195 4691 
L 1747 4691 
C 1491 4544 1190 4435 774 4358 
L 774 3987 
L 1613 3987 
L 1613 486 
L 563 486 
L 563 0 
z
" transform="scale(0.015625)"/>
       </defs>
       <use xlink:href="#NotoSansCJKjp-Regular-31"/>
       <use xlink:href="#NotoSansCJKjp-Regular-30" x="55.499985"/>
      </g>
     </g>
    </g>
    <g id="xtick_3">
     <g id="line2d_5">
      <path d="M 270.881904 245.435312 
L 270.881904 21.955312 
" clip-path="url(#p375b4c1e46)" style="fill: none; stroke: #e4e3df; stroke-width: 0.6; stroke-linecap: round"/>
     </g>
     <g id="line2d_6">
      <g>
       <use xlink:href="#me181d3a39d" x="270.881904" y="245.435312" style="stroke: #000000; stroke-width: 0.8"/>
      </g>
     </g>
     <g id="text_3">
      <!-- 20 -->
      <g transform="translate(265.886904 259.59875) scale(0.09 -0.09)">
       <defs>
        <path id="NotoSansCJKjp-Regular-32" d="M 282 0 
L 3232 0 
L 3232 506 
L 1933 506 
C 1696 506 1408 480 1165 461 
C 2266 1504 3008 2458 3008 3398 
C 3008 4230 2477 4774 1638 4774 
C 1043 4774 634 4506 256 4090 
L 595 3757 
C 858 4070 1184 4301 1568 4301 
C 2150 4301 2432 3910 2432 3373 
C 2432 2566 1754 1632 282 346 
L 282 0 
z
" transform="scale(0.015625)"/>
       </defs>
       <use xlink:href="#NotoSansCJKjp-Regular-32"/>
       <use xlink:href="#NotoSansCJKjp-Regular-30" x="55.499985"/>
      </g>
     </g>
    </g>
    <g id="xtick_4">
     <g id="line2d_7">
      <path d="M 373.761719 245.435312 
L 373.761719 21.955312 
" clip-path="url(#p375b4c1e46)" style="fill: none; stroke: #e4e3df; stroke-width: 0.6; stroke-linecap: round"/>
     </g>
     <g id="line2d_8">
      <g>
       <use xlink:href="#me181d3a39d" x="373.761719" y="245.435312" style="stroke: #000000; stroke-width: 0.8"/>
      </g>
     </g>
     <g id="text_4">
      <!-- 30 -->
      <g transform="translate(368.766719 259.59875) scale(0.09 -0.09)">
       <defs>
        <path id="NotoSansCJKjp-Regular-33" d="M 1683 -83 
C 2522 -83 3194 416 3194 1254 
C 3194 1901 2752 2310 2202 2445 
L 2202 2477 
C 2701 2650 3034 3034 3034 3603 
C 3034 4346 2458 4774 1664 4774 
C 1126 4774 710 4538 358 4218 
L 672 3846 
C 941 4115 1267 4301 1645 4301 
C 2138 4301 2438 4006 2438 3558 
C 2438 3053 2112 2662 1139 2662 
L 1139 2214 
C 2227 2214 2598 1843 2598 1274 
C 2598 736 2208 403 1645 403 
C 1114 403 762 659 486 941 
L 186 563 
C 493 224 954 -83 1683 -83 
z
" transform="scale(0.015625)"/>
       </defs>
       <use xlink:href="#NotoSansCJKjp-Regular-33"/>
       <use xlink:href="#NotoSansCJKjp-Regular-30" x="55.499985"/>
      </g>
     </g>
    </g>
    <g id="xtick_5">
     <g id="line2d_9">
      <path d="M 476.641534 245.435312 
L 476.641534 21.955312 
" clip-path="url(#p375b4c1e46)" style="fill: none; stroke: #e4e3df; stroke-width: 0.6; stroke-linecap: round"/>
     </g>
     <g id="line2d_10">
      <g>
       <use xlink:href="#me181d3a39d" x="476.641534" y="245.435312" style="stroke: #000000; stroke-width: 0.8"/>
      </g>
     </g>
     <g id="text_5">
      <!-- 40 -->
      <g transform="translate(471.646534 259.59875) scale(0.09 -0.09)">
       <defs>
        <path id="NotoSansCJKjp-Regular-34" d="M 2176 0 
L 2726 0 
L 2726 1293 
L 3354 1293 
L 3354 1760 
L 2726 1760 
L 2726 4691 
L 2080 4691 
L 128 1677 
L 128 1293 
L 2176 1293 
L 2176 0 
z
M 2176 1760 
L 736 1760 
L 1805 3360 
C 1939 3590 2067 3827 2182 4051 
L 2208 4051 
C 2195 3814 2176 3430 2176 3200 
L 2176 1760 
z
" transform="scale(0.015625)"/>
       </defs>
       <use xlink:href="#NotoSansCJKjp-Regular-34"/>
       <use xlink:href="#NotoSansCJKjp-Regular-30" x="55.499985"/>
      </g>
     </g>
    </g>
    <g id="xtick_6">
     <g id="line2d_11">
      <path d="M 579.521349 245.435312 
L 579.521349 21.955312 
" clip-path="url(#p375b4c1e46)" style="fill: none; stroke: #e4e3df; stroke-width: 0.6; stroke-linecap: round"/>
     </g>
     <g id="line2d_12">
      <g>
       <use xlink:href="#me181d3a39d" x="579.521349" y="245.435312" style="stroke: #000000; stroke-width: 0.8"/>
      </g>
     </g>
     <g id="text_6">
      <!-- 50 -->
      <g transform="translate(574.526349 259.59875) scale(0.09 -0.09)">
       <defs>
        <path id="NotoSansCJKjp-Regular-35" d="M 1677 -83 
C 2464 -83 3213 499 3213 1523 
C 3213 2560 2573 3021 1798 3021 
C 1517 3021 1306 2950 1094 2835 
L 1216 4192 
L 2982 4192 
L 2982 4691 
L 704 4691 
L 550 2502 
L 864 2304 
C 1133 2483 1331 2579 1645 2579 
C 2234 2579 2618 2182 2618 1510 
C 2618 826 2176 403 1619 403 
C 1075 403 730 653 467 922 
L 173 538 
C 493 224 941 -83 1677 -83 
z
" transform="scale(0.015625)"/>
       </defs>
       <use xlink:href="#NotoSansCJKjp-Regular-35"/>
       <use xlink:href="#NotoSansCJKjp-Regular-30" x="55.499985"/>
      </g>
     </g>
    </g>
    <g id="xtick_7">
     <g id="line2d_13">
      <path d="M 682.401164 245.435312 
L 682.401164 21.955312 
" clip-path="url(#p375b4c1e46)" style="fill: none; stroke: #e4e3df; stroke-width: 0.6; stroke-linecap: round"/>
     </g>
     <g id="line2d_14">
      <g>
       <use xlink:href="#me181d3a39d" x="682.401164" y="245.435312" style="stroke: #000000; stroke-width: 0.8"/>
      </g>
     </g>
     <g id="text_7">
      <!-- 60 -->
      <g transform="translate(677.406164 259.59875) scale(0.09 -0.09)">
       <defs>
        <path id="NotoSansCJKjp-Regular-36" d="M 1926 -83 
C 2656 -83 3277 531 3277 1440 
C 3277 2426 2765 2912 1971 2912 
C 1606 2912 1197 2701 909 2349 
C 934 3802 1466 4294 2118 4294 
C 2400 4294 2682 4154 2861 3936 
L 3194 4294 
C 2931 4576 2579 4774 2093 4774 
C 1184 4774 358 4077 358 2240 
C 358 691 1030 -83 1926 -83 
z
M 922 1882 
C 1229 2317 1587 2477 1875 2477 
C 2445 2477 2720 2074 2720 1440 
C 2720 800 2374 378 1926 378 
C 1338 378 986 909 922 1882 
z
" transform="scale(0.015625)"/>
       </defs>
       <use xlink:href="#NotoSansCJKjp-Regular-36"/>
       <use xlink:href="#NotoSansCJKjp-Regular-30" x="55.499985"/>
      </g>
     </g>
    </g>
    <g id="text_8">
     <!-- 측정 시작 후 경과 시간 (분) -->
     <g transform="translate(324.278594 272.850469) scale(0.09 -0.09)">
      <defs>
       <path id="NotoSansCJKjp-Regular-ce21" d="M 320 2368 
L 320 1939 
L 5549 1939 
L 5549 2368 
L 320 2368 
z
M 902 1325 
L 902 896 
L 4371 896 
L 4371 -499 
L 4902 -499 
L 4902 1325 
L 902 1325 
z
M 858 4710 
L 858 4288 
L 2643 4288 
C 2598 3642 1722 3200 627 3098 
L 794 2688 
C 1747 2790 2586 3136 2931 3712 
C 3283 3136 4115 2790 5069 2688 
L 5235 3098 
C 4141 3200 3264 3642 3219 4288 
L 5018 4288 
L 5018 4710 
L 3194 4710 
L 3194 5306 
L 2669 5306 
L 2669 4710 
L 858 4710 
z
" transform="scale(0.015625)"/>
       <path id="NotoSansCJKjp-Regular-c815" d="M 3174 1664 
C 1978 1664 1248 1267 1248 582 
C 1248 -96 1978 -493 3174 -493 
C 4371 -493 5101 -96 5101 582 
C 5101 1267 4371 1664 3174 1664 
z
M 3174 1248 
C 4045 1248 4576 1005 4576 582 
C 4576 166 4045 -77 3174 -77 
C 2304 -77 1773 166 1773 582 
C 1773 1005 2304 1248 3174 1248 
z
M 4550 5293 
L 4550 3789 
L 3411 3789 
L 3411 3347 
L 4550 3347 
L 4550 1843 
L 5082 1843 
L 5082 5293 
L 4550 5293 
z
M 506 4870 
L 506 4435 
L 1792 4435 
L 1792 4237 
C 1792 3411 1203 2630 339 2317 
L 614 1894 
C 1299 2157 1824 2688 2074 3360 
C 2323 2771 2816 2291 3462 2054 
L 3731 2477 
C 2893 2771 2330 3494 2330 4243 
L 2330 4435 
L 3597 4435 
L 3597 4870 
L 506 4870 
z
" transform="scale(0.015625)"/>
       <path id="NotoSansCJKjp-Regular-20" transform="scale(0.015625)"/>
       <path id="NotoSansCJKjp-Regular-c2dc" d="M 4525 5293 
L 4525 -506 
L 5056 -506 
L 5056 5293 
L 4525 5293 
z
M 1843 4794 
L 1843 3757 
C 1843 2656 1152 1549 288 1146 
L 614 704 
C 1293 1043 1850 1773 2118 2643 
C 2387 1818 2944 1139 3597 819 
L 3917 1242 
C 3066 1632 2374 2701 2374 3757 
L 2374 4794 
L 1843 4794 
z
" transform="scale(0.015625)"/>
       <path id="NotoSansCJKjp-Regular-c791" d="M 1050 1498 
L 1050 1062 
L 4282 1062 
L 4282 -499 
L 4813 -499 
L 4813 1498 
L 1050 1498 
z
M 454 4890 
L 454 4454 
L 1747 4454 
L 1747 4230 
C 1747 3405 1165 2656 294 2349 
L 576 1939 
C 1254 2182 1773 2688 2022 3341 
C 2266 2752 2758 2278 3411 2048 
L 3680 2464 
C 2829 2758 2278 3462 2278 4230 
L 2278 4454 
L 3552 4454 
L 3552 4890 
L 454 4890 
z
M 4282 5293 
L 4282 1805 
L 4813 1805 
L 4813 3322 
L 5664 3322 
L 5664 3770 
L 4813 3770 
L 4813 5293 
L 4282 5293 
z
" transform="scale(0.015625)"/>
       <path id="NotoSansCJKjp-Regular-d6c4" d="M 2931 3866 
C 1754 3866 1050 3520 1050 2899 
C 1050 2285 1754 1939 2931 1939 
C 4109 1939 4813 2285 4813 2899 
C 4813 3520 4109 3866 2931 3866 
z
M 2931 3462 
C 3776 3462 4262 3258 4262 2899 
C 4262 2547 3776 2342 2931 2342 
C 2086 2342 1600 2547 1600 2899 
C 1600 3258 2086 3462 2931 3462 
z
M 2669 5325 
L 2669 4634 
L 595 4634 
L 595 4198 
L 5248 4198 
L 5248 4634 
L 3194 4634 
L 3194 5325 
L 2669 5325 
z
M 320 1536 
L 320 1101 
L 2669 1101 
L 2669 -506 
L 3194 -506 
L 3194 1101 
L 5568 1101 
L 5568 1536 
L 320 1536 
z
" transform="scale(0.015625)"/>
       <path id="NotoSansCJKjp-Regular-acbd" d="M 3200 1760 
C 2029 1760 1280 1338 1280 646 
C 1280 -51 2029 -474 3200 -474 
C 4365 -474 5114 -51 5114 646 
C 5114 1338 4365 1760 3200 1760 
z
M 3200 1338 
C 4045 1338 4589 1082 4589 646 
C 4589 211 4045 -45 3200 -45 
C 2349 -45 1805 211 1805 646 
C 1805 1082 2349 1338 3200 1338 
z
M 691 4858 
L 691 4422 
L 2726 4422 
C 2624 3424 1773 2650 397 2246 
L 614 1824 
C 1850 2189 2733 2861 3104 3795 
L 4550 3795 
L 4550 3021 
L 3040 3021 
L 3040 2586 
L 4550 2586 
L 4550 1824 
L 5082 1824 
L 5082 5286 
L 4550 5286 
L 4550 4224 
L 3238 4224 
C 3277 4422 3302 4634 3302 4858 
L 691 4858 
z
" transform="scale(0.015625)"/>
       <path id="NotoSansCJKjp-Regular-acfc" d="M 582 4659 
L 582 4224 
L 2976 4224 
C 2976 3757 2963 3059 2810 2093 
L 3334 2048 
C 3501 3117 3501 3878 3501 4346 
L 3501 4659 
L 582 4659 
z
M 326 768 
C 1350 768 2701 794 3904 986 
L 3872 1382 
C 3283 1306 2637 1267 2010 1242 
L 2010 3002 
L 1485 3002 
L 1485 1229 
L 262 1210 
L 326 768 
z
M 4224 5293 
L 4224 -499 
L 4755 -499 
L 4755 2419 
L 5677 2419 
L 5677 2874 
L 4755 2874 
L 4755 5293 
L 4224 5293 
z
" transform="scale(0.015625)"/>
       <path id="NotoSansCJKjp-Regular-ac04" d="M 4275 5293 
L 4275 1062 
L 4813 1062 
L 4813 3091 
L 5664 3091 
L 5664 3539 
L 4813 3539 
L 4813 5293 
L 4275 5293 
z
M 563 4845 
L 563 4403 
L 2682 4403 
C 2579 3392 1696 2579 326 2150 
L 550 1722 
C 2214 2246 3258 3347 3258 4845 
L 563 4845 
z
M 1203 1491 
L 1203 -371 
L 5062 -371 
L 5062 64 
L 1734 64 
L 1734 1491 
L 1203 1491 
z
" transform="scale(0.015625)"/>
       <path id="NotoSansCJKjp-Regular-28" d="M 1530 -1254 
L 1888 -1094 
C 1338 -186 1075 902 1075 1990 
C 1075 3072 1338 4154 1888 5069 
L 1530 5235 
C 941 4275 589 3245 589 1990 
C 589 730 941 -301 1530 -1254 
z
" transform="scale(0.015625)"/>
       <path id="NotoSansCJKjp-Regular-bd84" d="M 1011 5107 
L 1011 2790 
L 4864 2790 
L 4864 5107 
L 4339 5107 
L 4339 4371 
L 1536 4371 
L 1536 5107 
L 1011 5107 
z
M 1536 3962 
L 4339 3962 
L 4339 3219 
L 1536 3219 
L 1536 3962 
z
M 314 2234 
L 314 1805 
L 2714 1805 
L 2714 685 
L 3238 685 
L 3238 1805 
L 5562 1805 
L 5562 2234 
L 314 2234 
z
M 979 1203 
L 979 -371 
L 4979 -371 
L 4979 64 
L 1504 64 
L 1504 1203 
L 979 1203 
z
" transform="scale(0.015625)"/>
       <path id="NotoSansCJKjp-Regular-29" d="M 634 -1254 
C 1222 -301 1574 730 1574 1990 
C 1574 3245 1222 4275 634 5235 
L 269 5069 
C 819 4154 1094 3072 1094 1990 
C 1094 902 819 -186 269 -1094 
L 634 -1254 
z
" transform="scale(0.015625)"/>
      </defs>
      <use xlink:href="#NotoSansCJKjp-Regular-ce21"/>
      <use xlink:href="#NotoSansCJKjp-Regular-c815" x="91.999985"/>
      <use xlink:href="#NotoSansCJKjp-Regular-20" x="183.999969"/>
      <use xlink:href="#NotoSansCJKjp-Regular-c2dc" x="206.399963"/>
      <use xlink:href="#NotoSansCJKjp-Regular-c791" x="298.399948"/>
      <use xlink:href="#NotoSansCJKjp-Regular-20" x="390.399933"/>
      <use xlink:href="#NotoSansCJKjp-Regular-d6c4" x="412.799927"/>
      <use xlink:href="#NotoSansCJKjp-Regular-20" x="504.799911"/>
      <use xlink:href="#NotoSansCJKjp-Regular-acbd" x="527.199905"/>
      <use xlink:href="#NotoSansCJKjp-Regular-acfc" x="619.19989"/>
      <use xlink:href="#NotoSansCJKjp-Regular-20" x="711.199875"/>
      <use xlink:href="#NotoSansCJKjp-Regular-c2dc" x="733.599869"/>
      <use xlink:href="#NotoSansCJKjp-Regular-ac04" x="825.599854"/>
      <use xlink:href="#NotoSansCJKjp-Regular-20" x="917.599838"/>
      <use xlink:href="#NotoSansCJKjp-Regular-28" x="939.999832"/>
      <use xlink:href="#NotoSansCJKjp-Regular-bd84" x="973.79982"/>
      <use xlink:href="#NotoSansCJKjp-Regular-29" x="1065.799805"/>
     </g>
    </g>
   </g>
   <g id="matplotlib.axis_2">
    <g id="ytick_1">
     <g id="line2d_15">
      <path d="M 39.916719 218.276414 
L 707.606719 218.276414 
" clip-path="url(#p375b4c1e46)" style="fill: none; stroke: #e4e3df; stroke-width: 0.6; stroke-linecap: round"/>
     </g>
     <g id="line2d_16">
      <defs>
       <path id="m4009df72d9" d="M 0 0 
L -3.5 0 
" style="stroke: #000000; stroke-width: 0.8"/>
      </defs>
      <g>
       <use xlink:href="#m4009df72d9" x="39.916719" y="218.276414" style="stroke: #000000; stroke-width: 0.8"/>
      </g>
     </g>
     <g id="text_9">
      <!-- 1.6 -->
      <g transform="translate(20.425 221.858133) scale(0.09 -0.09)">
       <defs>
        <path id="NotoSansCJKjp-Regular-2e" d="M 890 -83 
C 1120 -83 1312 96 1312 358 
C 1312 627 1120 806 890 806 
C 653 806 467 627 467 358 
C 467 96 653 -83 890 -83 
z
" transform="scale(0.015625)"/>
       </defs>
       <use xlink:href="#NotoSansCJKjp-Regular-31"/>
       <use xlink:href="#NotoSansCJKjp-Regular-2e" x="55.499985"/>
       <use xlink:href="#NotoSansCJKjp-Regular-36" x="83.299973"/>
      </g>
     </g>
    </g>
    <g id="ytick_2">
     <g id="line2d_17">
      <path d="M 39.916719 184.477772 
L 707.606719 184.477772 
" clip-path="url(#p375b4c1e46)" style="fill: none; stroke: #e4e3df; stroke-width: 0.6; stroke-linecap: round"/>
     </g>
     <g id="line2d_18">
      <g>
       <use xlink:href="#m4009df72d9" x="39.916719" y="184.477772" style="stroke: #000000; stroke-width: 0.8"/>
      </g>
     </g>
     <g id="text_10">
      <!-- 1.7 -->
      <g transform="translate(20.425 188.059491) scale(0.09 -0.09)">
       <defs>
        <path id="NotoSansCJKjp-Regular-37" d="M 1267 0 
L 1875 0 
C 1952 1837 2150 2931 3251 4339 
L 3251 4691 
L 314 4691 
L 314 4192 
L 2592 4192 
C 1670 2912 1350 1779 1267 0 
z
" transform="scale(0.015625)"/>
       </defs>
       <use xlink:href="#NotoSansCJKjp-Regular-31"/>
       <use xlink:href="#NotoSansCJKjp-Regular-2e" x="55.499985"/>
       <use xlink:href="#NotoSansCJKjp-Regular-37" x="83.299973"/>
      </g>
     </g>
    </g>
    <g id="ytick_3">
     <g id="line2d_19">
      <path d="M 39.916719 150.67913 
L 707.606719 150.67913 
" clip-path="url(#p375b4c1e46)" style="fill: none; stroke: #e4e3df; stroke-width: 0.6; stroke-linecap: round"/>
     </g>
     <g id="line2d_20">
      <g>
       <use xlink:href="#m4009df72d9" x="39.916719" y="150.67913" style="stroke: #000000; stroke-width: 0.8"/>
      </g>
     </g>
     <g id="text_11">
      <!-- 1.8 -->
      <g transform="translate(20.425 154.260849) scale(0.09 -0.09)">
       <defs>
        <path id="NotoSansCJKjp-Regular-38" d="M 1792 -83 
C 2669 -83 3258 448 3258 1126 
C 3258 1773 2880 2125 2470 2362 
L 2470 2394 
C 2746 2611 3091 3034 3091 3526 
C 3091 4250 2605 4762 1805 4762 
C 1075 4762 518 4282 518 3571 
C 518 3078 813 2726 1152 2490 
L 1152 2464 
C 723 2234 294 1792 294 1165 
C 294 442 922 -83 1792 -83 
z
M 2112 2547 
C 1555 2765 1050 3014 1050 3571 
C 1050 4026 1363 4326 1798 4326 
C 2298 4326 2592 3962 2592 3494 
C 2592 3149 2426 2829 2112 2547 
z
M 1798 352 
C 1235 352 813 717 813 1216 
C 813 1664 1082 2035 1459 2278 
C 2125 2010 2701 1779 2701 1146 
C 2701 678 2342 352 1798 352 
z
" transform="scale(0.015625)"/>
       </defs>
       <use xlink:href="#NotoSansCJKjp-Regular-31"/>
       <use xlink:href="#NotoSansCJKjp-Regular-2e" x="55.499985"/>
       <use xlink:href="#NotoSansCJKjp-Regular-38" x="83.299973"/>
      </g>
     </g>
    </g>
    <g id="ytick_4">
     <g id="line2d_21">
      <path d="M 39.916719 116.880488 
L 707.606719 116.880488 
" clip-path="url(#p375b4c1e46)" style="fill: none; stroke: #e4e3df; stroke-width: 0.6; stroke-linecap: round"/>
     </g>
     <g id="line2d_22">
      <g>
       <use xlink:href="#m4009df72d9" x="39.916719" y="116.880488" style="stroke: #000000; stroke-width: 0.8"/>
      </g>
     </g>
     <g id="text_12">
      <!-- 1.9 -->
      <g transform="translate(20.425 120.462207) scale(0.09 -0.09)">
       <defs>
        <path id="NotoSansCJKjp-Regular-39" d="M 1504 -83 
C 2381 -83 3206 646 3206 2547 
C 3206 4038 2528 4774 1626 4774 
C 896 4774 282 4166 282 3251 
C 282 2285 794 1779 1574 1779 
C 1965 1779 2368 2003 2656 2349 
C 2611 896 2086 403 1485 403 
C 1178 403 896 538 691 762 
L 371 397 
C 634 122 992 -83 1504 -83 
z
M 2650 2842 
C 2336 2394 1984 2214 1670 2214 
C 1114 2214 832 2624 832 3251 
C 832 3898 1178 4320 1632 4320 
C 2227 4320 2586 3808 2650 2842 
z
" transform="scale(0.015625)"/>
       </defs>
       <use xlink:href="#NotoSansCJKjp-Regular-31"/>
       <use xlink:href="#NotoSansCJKjp-Regular-2e" x="55.499985"/>
       <use xlink:href="#NotoSansCJKjp-Regular-39" x="83.299973"/>
      </g>
     </g>
    </g>
    <g id="ytick_5">
     <g id="line2d_23">
      <path d="M 39.916719 83.081846 
L 707.606719 83.081846 
" clip-path="url(#p375b4c1e46)" style="fill: none; stroke: #e4e3df; stroke-width: 0.6; stroke-linecap: round"/>
     </g>
     <g id="line2d_24">
      <g>
       <use xlink:href="#m4009df72d9" x="39.916719" y="83.081846" style="stroke: #000000; stroke-width: 0.8"/>
      </g>
     </g>
     <g id="text_13">
      <!-- 2.0 -->
      <g transform="translate(20.425 86.663565) scale(0.09 -0.09)">
       <use xlink:href="#NotoSansCJKjp-Regular-32"/>
       <use xlink:href="#NotoSansCJKjp-Regular-2e" x="55.499985"/>
       <use xlink:href="#NotoSansCJKjp-Regular-30" x="83.299973"/>
      </g>
     </g>
    </g>
    <g id="ytick_6">
     <g id="line2d_25">
      <path d="M 39.916719 49.283204 
L 707.606719 49.283204 
" clip-path="url(#p375b4c1e46)" style="fill: none; stroke: #e4e3df; stroke-width: 0.6; stroke-linecap: round"/>
     </g>
     <g id="line2d_26">
      <g>
       <use xlink:href="#m4009df72d9" x="39.916719" y="49.283204" style="stroke: #000000; stroke-width: 0.8"/>
      </g>
     </g>
     <g id="text_14">
      <!-- 2.1 -->
      <g transform="translate(20.425 52.864923) scale(0.09 -0.09)">
       <use xlink:href="#NotoSansCJKjp-Regular-32"/>
       <use xlink:href="#NotoSansCJKjp-Regular-2e" x="55.499985"/>
       <use xlink:href="#NotoSansCJKjp-Regular-31" x="83.299973"/>
      </g>
     </g>
    </g>
    <g id="text_15">
     <!-- 30초 구간 WAF (낮을수록 우수) -->
     <g transform="translate(14.363437 192.196016) rotate(-90) scale(0.09 -0.09)">
      <defs>
       <path id="NotoSansCJKjp-Regular-cd08" d="M 2675 1984 
L 2675 672 
L 320 672 
L 320 230 
L 5568 230 
L 5568 672 
L 3200 672 
L 3200 1984 
L 2675 1984 
z
M 2675 5171 
L 2675 4378 
L 806 4378 
L 806 3942 
L 2669 3942 
C 2662 3053 1734 2381 608 2202 
L 813 1786 
C 1747 1946 2573 2413 2938 3123 
C 3302 2413 4134 1946 5062 1786 
L 5267 2202 
C 4141 2381 3213 3053 3206 3942 
L 5069 3942 
L 5069 4378 
L 3200 4378 
L 3200 5171 
L 2675 5171 
z
" transform="scale(0.015625)"/>
       <path id="NotoSansCJKjp-Regular-ad6c" d="M 320 2432 
L 320 1990 
L 2656 1990 
L 2656 -506 
L 3187 -506 
L 3187 1990 
L 5549 1990 
L 5549 2432 
L 4704 2432 
C 4864 3264 4864 3866 4864 4410 
L 4864 4915 
L 973 4915 
L 973 4486 
L 4339 4486 
L 4339 4410 
C 4339 3872 4339 3258 4160 2432 
L 320 2432 
z
" transform="scale(0.015625)"/>
       <path id="NotoSansCJKjp-Regular-57" d="M 1158 0 
L 1862 0 
L 2560 2829 
C 2637 3200 2726 3539 2797 3898 
L 2822 3898 
C 2899 3539 2970 3200 3053 2829 
L 3763 0 
L 4480 0 
L 5446 4691 
L 4883 4691 
L 4378 2138 
C 4294 1632 4205 1126 4122 614 
L 4083 614 
C 3968 1126 3866 1638 3750 2138 
L 3098 4691 
L 2554 4691 
L 1907 2138 
C 1792 1632 1677 1126 1574 614 
L 1549 614 
C 1453 1126 1363 1632 1267 2138 
L 774 4691 
L 166 4691 
L 1158 0 
z
" transform="scale(0.015625)"/>
       <path id="NotoSansCJKjp-Regular-41" d="M 26 0 
L 621 0 
L 1075 1434 
L 2790 1434 
L 3238 0 
L 3866 0 
L 2272 4691 
L 1613 4691 
L 26 0 
z
M 1222 1901 
L 1453 2624 
C 1619 3155 1773 3661 1920 4211 
L 1946 4211 
C 2099 3667 2246 3155 2419 2624 
L 2643 1901 
L 1222 1901 
z
" transform="scale(0.015625)"/>
       <path id="NotoSansCJKjp-Regular-46" d="M 646 0 
L 1235 0 
L 1235 2106 
L 3027 2106 
L 3027 2605 
L 1235 2605 
L 1235 4192 
L 3347 4192 
L 3347 4691 
L 646 4691 
L 646 0 
z
" transform="scale(0.015625)"/>
       <path id="NotoSansCJKjp-Regular-b0ae" d="M 4282 5299 
L 4282 2022 
L 4813 2022 
L 4813 3437 
L 5664 3437 
L 5664 3885 
L 4813 3885 
L 4813 5299 
L 4282 5299 
z
M 595 2912 
L 595 2464 
L 1056 2464 
C 1914 2464 2784 2528 3757 2726 
L 3693 3168 
C 2771 2976 1939 2918 1126 2912 
L 1126 4979 
L 595 4979 
L 595 2912 
z
M 1120 1722 
L 1120 1293 
L 2739 1293 
C 2714 653 1875 96 902 -58 
L 1114 -467 
C 1952 -320 2701 102 3021 685 
C 3341 102 4083 -326 4922 -474 
L 5133 -64 
C 4166 96 3322 666 3296 1293 
L 4909 1293 
L 4909 1722 
L 1120 1722 
z
" transform="scale(0.015625)"/>
       <path id="NotoSansCJKjp-Regular-c744" d="M 2931 5190 
C 1651 5190 896 4838 896 4192 
C 896 3546 1651 3187 2931 3187 
C 4211 3187 4966 3546 4966 4192 
C 4966 4838 4211 5190 2931 5190 
z
M 2931 4794 
C 3878 4794 4422 4570 4422 4192 
C 4422 3802 3878 3590 2931 3590 
C 1990 3590 1446 3802 1446 4192 
C 1446 4570 1990 4794 2931 4794 
z
M 320 2797 
L 320 2368 
L 5549 2368 
L 5549 2797 
L 320 2797 
z
M 966 -19 
L 966 -435 
L 5050 -435 
L 5050 -19 
L 1485 -19 
L 1485 570 
L 4877 570 
L 4877 1875 
L 954 1875 
L 954 1472 
L 4358 1472 
L 4358 960 
L 966 960 
L 966 -19 
z
" transform="scale(0.015625)"/>
       <path id="NotoSansCJKjp-Regular-c218" d="M 2662 5088 
L 2662 4762 
C 2662 3942 1645 3245 589 3091 
L 800 2662 
C 1702 2810 2573 3309 2944 4013 
C 3315 3309 4179 2810 5082 2662 
L 5293 3091 
C 4243 3245 3213 3955 3213 4762 
L 3213 5088 
L 2662 5088 
z
M 320 2035 
L 320 1594 
L 2662 1594 
L 2662 -499 
L 3187 -499 
L 3187 1594 
L 5549 1594 
L 5549 2035 
L 320 2035 
z
" transform="scale(0.015625)"/>
       <path id="NotoSansCJKjp-Regular-b85d" d="M 902 1229 
L 902 800 
L 4390 800 
L 4390 -442 
L 4922 -442 
L 4922 1229 
L 902 1229 
z
M 992 3136 
L 992 2714 
L 2675 2714 
L 2675 2106 
L 314 2106 
L 314 1670 
L 5562 1670 
L 5562 2106 
L 3200 2106 
L 3200 2714 
L 5011 2714 
L 5011 3136 
L 1517 3136 
L 1517 3738 
L 4890 3738 
L 4890 5146 
L 979 5146 
L 979 4723 
L 4365 4723 
L 4365 4134 
L 992 4134 
L 992 3136 
z
" transform="scale(0.015625)"/>
       <path id="NotoSansCJKjp-Regular-c6b0" d="M 2925 5062 
C 1722 5062 902 4570 902 3789 
C 902 3014 1722 2522 2925 2522 
C 4134 2522 4954 3014 4954 3789 
C 4954 4570 4134 5062 2925 5062 
z
M 2925 4634 
C 3814 4634 4410 4301 4410 3789 
C 4410 3277 3814 2950 2925 2950 
C 2042 2950 1446 3277 1446 3789 
C 1446 4301 2042 4634 2925 4634 
z
M 314 1978 
L 314 1536 
L 2662 1536 
L 2662 -499 
L 3187 -499 
L 3187 1536 
L 5562 1536 
L 5562 1978 
L 314 1978 
z
" transform="scale(0.015625)"/>
      </defs>
      <use xlink:href="#NotoSansCJKjp-Regular-33"/>
      <use xlink:href="#NotoSansCJKjp-Regular-30" x="55.499985"/>
      <use xlink:href="#NotoSansCJKjp-Regular-cd08" x="110.999969"/>
      <use xlink:href="#NotoSansCJKjp-Regular-20" x="202.999954"/>
      <use xlink:href="#NotoSansCJKjp-Regular-ad6c" x="225.399948"/>
      <use xlink:href="#NotoSansCJKjp-Regular-ac04" x="317.399933"/>
      <use xlink:href="#NotoSansCJKjp-Regular-20" x="409.399918"/>
      <use xlink:href="#NotoSansCJKjp-Regular-57" x="431.799911"/>
      <use xlink:href="#NotoSansCJKjp-Regular-41" x="519.599899"/>
      <use xlink:href="#NotoSansCJKjp-Regular-46" x="580.399887"/>
      <use xlink:href="#NotoSansCJKjp-Regular-20" x="635.599884"/>
      <use xlink:href="#NotoSansCJKjp-Regular-28" x="657.999878"/>
      <use xlink:href="#NotoSansCJKjp-Regular-b0ae" x="691.799866"/>
      <use xlink:href="#NotoSansCJKjp-Regular-c744" x="783.79985"/>
      <use xlink:href="#NotoSansCJKjp-Regular-c218" x="875.799835"/>
      <use xlink:href="#NotoSansCJKjp-Regular-b85d" x="967.79982"/>
      <use xlink:href="#NotoSansCJKjp-Regular-20" x="1059.799805"/>
      <use xlink:href="#NotoSansCJKjp-Regular-c6b0" x="1082.199799"/>
      <use xlink:href="#NotoSansCJKjp-Regular-c218" x="1174.199783"/>
      <use xlink:href="#NotoSansCJKjp-Regular-29" x="1266.199768"/>
     </g>
    </g>
   </g>
   <g id="line2d_27">
    <path d="M 70.266264 85.71814 
L 75.410255 132.799648 
L 80.554246 131.582897 
L 85.698236 73.415435 
L 90.842227 69.190604 
L 95.986218 69.56239 
L 101.130209 40.529356 
L 106.274199 43.064254 
L 111.41819 50.026775 
L 116.562181 135.266949 
L 121.706172 165.043553 
L 126.850163 107.247875 
L 131.994153 100.386751 
L 137.138144 72.164885 
L 142.282135 63.782822 
L 147.426126 58.172247 
L 152.570116 99.068604 
L 157.714107 165.989915 
L 162.858098 134.117796 
L 168.002089 161.596091 
L 173.146079 64.526392 
L 178.29007 119.58438 
L 183.434061 78.789419 
L 188.578052 74.76738 
L 193.722042 83.555027 
L 198.866033 157.100872 
L 204.010024 154.295585 
L 209.154015 88.286837 
L 214.298005 69.967973 
L 219.441996 129.453583 
L 224.585987 130.26475 
L 229.729978 159.601972 
L 234.873968 158.317623 
L 240.017959 159.63577 
L 245.16195 152.098673 
L 250.305941 162.305863 
L 255.449931 113.500624 
L 260.593922 127.459463 
L 265.737913 96.871692 
L 270.881904 134.624775 
L 276.025894 123.200834 
L 281.169885 92.275077 
L 286.313876 169.065591 
L 291.457867 189.817957 
L 296.601857 147.062675 
L 301.745848 120.125158 
L 306.889839 110.86433 
L 312.03383 96.297115 
L 317.17782 126.03992 
L 322.321811 139.457981 
L 327.465802 142.770248 
L 332.609793 160.953917 
L 337.753783 158.351422 
L 342.897774 138.376424 
L 348.041765 107.38307 
L 353.185756 129.318388 
L 358.329746 143.277227 
L 363.473737 128.676214 
L 368.617728 153.991397 
L 373.761719 137.599056 
L 378.90571 190.49393 
L 384.0497 111.743095 
L 389.193691 149.529976 
L 394.337682 188.026629 
L 399.481673 179.205184 
L 404.625663 147.231669 
L 409.769654 53.406639 
L 414.913645 184.139786 
L 420.057636 205.128742 
L 425.201626 155.377141 
L 430.345617 63.174446 
L 435.489608 99.676979 
L 440.633599 187.959032 
L 445.777589 190.392534 
L 450.92158 77.471272 
L 456.065571 131.109716 
L 461.209562 176.028111 
L 466.353552 187.215462 
L 471.497543 169.60637 
L 476.641534 86.563106 
L 481.785525 151.084714 
L 486.929515 198.301416 
L 492.073506 170.924517 
L 497.217497 113.804812 
L 502.361488 128.54102 
L 507.505478 194.346975 
L 512.649469 214.119181 
L 517.79346 152.098673 
L 522.937451 109.444787 
L 528.081441 190.25734 
L 533.225432 215.437328 
L 538.369423 198.605604 
L 543.513414 130.839327 
L 548.657404 154.430779 
L 553.801395 230.781911 
L 558.945386 219.831151 
L 564.089377 122.55866 
L 569.233367 149.867963 
L 574.377358 196.71288 
L 579.521349 176.06191 
L 584.66534 157.810643 
L 589.80933 93.424231 
L 594.953321 187.587247 
L 600.097312 190.49393 
L 605.241303 134.050198 
L 610.385293 93.627023 
L 615.529284 121.172916 
L 620.673275 202.796636 
L 625.817266 190.358736 
L 630.961257 66.182525 
L 636.105247 137.328667 
L 641.249238 189.547568 
L 646.393229 184.072188 
L 651.53722 172.986234 
L 656.68121 83.791618 
L 661.825201 180.827519 
L 666.969192 208.576204 
L 672.113183 168.35582 
L 677.257173 101.535905 
" clip-path="url(#p375b4c1e46)" style="fill: none; stroke: #2a78d6; stroke-width: 1.6; stroke-linecap: round"/>
   </g>
   <g id="line2d_28">
    <path d="M 70.266264 127.932644 
L 75.410255 153.247827 
L 80.554246 131.549099 
L 85.698236 140.201551 
L 90.842227 157.472657 
L 95.986218 158.419019 
L 101.130209 183.396215 
L 106.274199 177.751842 
L 111.41819 201.106704 
L 116.562181 171.3301 
L 121.706172 153.315424 
L 126.850163 128.743811 
L 131.994153 149.901761 
L 137.138144 143.818006 
L 142.282135 158.858401 
L 147.426126 166.057512 
L 152.570116 184.680564 
L 157.714107 183.058229 
L 162.858098 177.211064 
L 168.002089 137.362465 
L 173.146079 160.514535 
L 178.29007 149.496178 
L 183.434061 156.864282 
L 188.578052 157.371261 
L 193.722042 170.045752 
L 198.866033 173.222824 
L 204.010024 182.720243 
L 209.154015 152.402861 
L 214.298005 137.294868 
L 219.441996 148.313225 
L 224.585987 164.536573 
L 229.729978 164.164788 
L 234.873968 175.82532 
L 240.017959 174.507173 
L 245.16195 179.205184 
L 250.305941 181.3007 
L 255.449931 148.718809 
L 260.593922 125.465343 
L 265.737913 145.305146 
L 270.881904 149.496178 
L 276.025894 163.793003 
L 281.169885 172.006073 
L 286.313876 185.964912 
L 291.457867 194.887754 
L 296.601857 174.439575 
L 301.745848 146.927481 
L 306.889839 136.044318 
L 312.03383 145.169951 
L 317.17782 151.287506 
L 322.321811 152.233868 
L 327.465802 167.646048 
L 332.609793 178.765801 
L 337.753783 184.308779 
L 342.897774 165.956116 
L 348.041765 145.440341 
L 353.185756 159.973757 
L 358.329746 151.4227 
L 363.473737 160.244146 
L 368.617728 157.607852 
L 373.761719 158.520415 
L 378.90571 231.998662 
L 384.0497 172.58065 
L 389.193691 159.365381 
L 394.337682 199.484369 
L 399.481673 203.405011 
L 404.625663 164.570372 
L 409.769654 57.732865 
L 414.913645 183.092028 
L 420.057636 206.108903 
L 425.201626 124.079599 
L 430.345617 98.696819 
L 435.489608 127.966443 
L 440.633599 208.069224 
L 445.777589 203.405011 
L 450.92158 77.538869 
L 456.065571 122.254472 
L 461.209562 193.873794 
L 466.353552 197.659242 
L 471.497543 177.819439 
L 476.641534 86.056127 
L 481.785525 161.934078 
L 486.929515 224.157378 
L 492.073506 189.682763 
L 497.217497 107.518264 
L 502.361488 145.879723 
L 507.505478 201.512287 
L 512.649469 221.149298 
L 517.79346 163.8606 
L 522.937451 103.631421 
L 528.081441 201.140502 
L 533.225432 220.507124 
L 538.369423 206.480688 
L 543.513414 140.742329 
L 548.657404 155.64753 
L 553.801395 232.573239 
L 558.945386 227.030262 
L 564.089377 124.012002 
L 569.233367 156.931879 
L 574.377358 203.94579 
L 579.521349 211.1449 
L 584.66534 161.900279 
L 589.80933 55.400759 
L 594.953321 192.859835 
L 600.097312 205.906111 
L 605.241303 132.495461 
L 610.385293 101.637301 
L 615.529284 125.397746 
L 620.673275 212.15886 
L 625.817266 198.875993 
L 630.961257 54.589591 
L 636.105247 139.49178 
L 641.249238 192.99503 
L 646.393229 199.889953 
L 651.53722 178.123627 
L 656.68121 78.721821 
L 661.825201 172.749643 
L 666.969192 222.636439 
L 672.113183 180.928915 
L 677.257173 118.807011 
" clip-path="url(#p375b4c1e46)" style="fill: none; stroke: #3d3c39; stroke-width: 1.1; stroke-linecap: round"/>
   </g>
   <g id="line2d_29">
    <path d="M 70.266264 137.396264 
L 75.410255 160.041354 
L 80.554246 137.49766 
L 85.698236 140.100155 
L 90.842227 147.907641 
L 95.986218 153.41682 
L 101.130209 159.027395 
L 106.274199 169.166987 
L 111.41819 169.302182 
L 116.562181 160.514535 
L 121.706172 135.706332 
L 126.850163 129.453583 
L 131.994153 137.328667 
L 137.138144 139.863565 
L 142.282135 141.891483 
L 147.426126 148.279426 
L 152.570116 156.458698 
L 157.714107 165.989915 
L 162.858098 151.355103 
L 168.002089 143.108234 
L 173.146079 133.00244 
L 178.29007 144.257388 
L 183.434061 142.702651 
L 188.578052 146.724689 
L 193.722042 149.529976 
L 198.866033 155.579933 
L 204.010024 160.311743 
L 209.154015 138.917203 
L 214.298005 130.974522 
L 219.441996 140.133954 
L 224.585987 143.682811 
L 229.729978 152.335263 
L 234.873968 149.293386 
L 240.017959 157.945838 
L 245.16195 156.66149 
L 250.305941 158.723207 
L 255.449931 136.889284 
L 260.593922 129.250791 
L 265.737913 134.590977 
L 270.881904 136.280909 
L 276.025894 145.71073 
L 281.169885 153.41682 
L 286.313876 159.601972 
L 291.457867 170.654127 
L 296.601857 155.478537 
L 301.745848 137.396264 
L 306.889839 130.501341 
L 312.03383 135.571137 
L 317.17782 141.384504 
L 322.321811 141.823886 
L 327.465802 147.333065 
L 332.609793 152.707049 
L 337.753783 163.218426 
L 342.897774 150.138352 
L 348.041765 140.776128 
L 353.185756 139.72837 
L 358.329746 140.607135 
L 363.473737 144.933361 
L 368.617728 145.71073 
L 373.761719 144.798166 
L 378.90571 202.053066 
L 384.0497 142.026678 
L 389.193691 135.537338 
L 394.337682 187.51965 
L 399.481673 198.571806 
L 404.625663 169.234584 
L 409.769654 32.113494 
L 414.913645 167.003874 
L 420.057636 221.723875 
L 425.201626 150.746727 
L 430.345617 84.636584 
L 435.489608 113.466825 
L 440.633599 209.353572 
L 445.777589 210.063344 
L 450.92158 94.100204 
L 456.065571 85.616744 
L 461.209562 191.271299 
L 466.353552 211.584283 
L 471.497543 176.974473 
L 476.641534 87.306677 
L 481.785525 139.390384 
L 486.929515 231.931065 
L 492.073506 201.715079 
L 497.217497 94.776176 
L 502.361488 136.382305 
L 507.505478 198.808396 
L 512.649469 227.030262 
L 517.79346 180.354338 
L 522.937451 76.457312 
L 528.081441 196.47629 
L 533.225432 229.936945 
L 538.369423 204.249977 
L 543.513414 149.901761 
L 548.657404 135.875325 
L 553.801395 235.277131 
L 558.945386 230.443925 
L 564.089377 137.193472 
L 569.233367 144.595375 
L 574.377358 202.492448 
L 579.521349 223.244814 
L 584.66534 181.503491 
L 589.80933 33.904822 
L 594.953321 181.199304 
L 600.097312 215.775314 
L 605.241303 135.435943 
L 610.385293 89.942971 
L 615.529284 109.985565 
L 620.673275 214.186778 
L 625.817266 207.562244 
L 630.961257 73.719622 
L 636.105247 110.391149 
L 641.249238 189.24338 
L 646.393229 209.454968 
L 651.53722 181.368297 
L 656.68121 71.725503 
L 661.825201 153.754806 
L 666.969192 231.187495 
L 672.113183 195.259539 
L 677.257173 104.341192 
" clip-path="url(#p375b4c1e46)" style="fill: none; stroke: #a8a7a2; stroke-width: 1.1; stroke-linecap: round"/>
   </g>
   <g id="line2d_30">
    <path d="M 373.761719 245.435312 
L 373.761719 21.955312 
" clip-path="url(#p375b4c1e46)" style="fill: none; stroke-dasharray: 3.7,1.6; stroke-dashoffset: 0; stroke: #52514e"/>
   </g>
   <g id="patch_3">
    <path d="M 39.916719 245.435313 
L 39.916719 21.955312 
" style="fill: none; stroke: #52514e; stroke-width: 0.8; stroke-linejoin: miter; stroke-linecap: square"/>
   </g>
   <g id="patch_4">
    <path d="M 39.916719 245.435312 
L 707.606719 245.435312 
" style="fill: none; stroke: #52514e; stroke-width: 0.8; stroke-linejoin: miter; stroke-linecap: square"/>
   </g>
   <g id="text_16">
    <!--  구간 B -->
    <g style="fill: #52514e" transform="translate(373.761719 27.924844) scale(0.075 -0.075)">
     <defs>
      <path id="NotoSansCJKjp-Regular-42" d="M 646 0 
L 2138 0 
C 3187 0 3917 454 3917 1376 
C 3917 2016 3520 2387 2963 2496 
L 2963 2528 
C 3405 2669 3648 3078 3648 3546 
C 3648 4371 2982 4691 2035 4691 
L 646 4691 
L 646 0 
z
M 1235 2701 
L 1235 4224 
L 1958 4224 
C 2694 4224 3066 4019 3066 3469 
C 3066 2989 2739 2701 1933 2701 
L 1235 2701 
z
M 1235 474 
L 1235 2240 
L 2054 2240 
C 2880 2240 3334 1978 3334 1395 
C 3334 762 2861 474 2054 474 
L 1235 474 
z
" transform="scale(0.015625)"/>
     </defs>
     <use xlink:href="#NotoSansCJKjp-Regular-20"/>
     <use xlink:href="#NotoSansCJKjp-Regular-ad6c" x="22.399994"/>
     <use xlink:href="#NotoSansCJKjp-Regular-ac04" x="114.399979"/>
     <use xlink:href="#NotoSansCJKjp-Regular-20" x="206.399963"/>
     <use xlink:href="#NotoSansCJKjp-Regular-42" x="228.799957"/>
    </g>
   </g>
   <g id="text_17">
    <!-- FIO-Fast→FIO-Slow -->
    <g style="fill: #0b0b0b" transform="translate(39.916719 15.955312) scale(0.11 -0.11)">
     <defs>
      <path id="NotoSansCJKjp-Regular-49" d="M 646 0 
L 1235 0 
L 1235 4691 
L 646 4691 
L 646 0 
z
" transform="scale(0.015625)"/>
      <path id="NotoSansCJKjp-Regular-4f" d="M 2374 -83 
C 3552 -83 4378 858 4378 2362 
C 4378 3866 3552 4774 2374 4774 
C 1197 4774 371 3866 371 2362 
C 371 858 1197 -83 2374 -83 
z
M 2374 435 
C 1530 435 979 1190 979 2362 
C 979 3533 1530 4256 2374 4256 
C 3219 4256 3770 3533 3770 2362 
C 3770 1190 3219 435 2374 435 
z
" transform="scale(0.015625)"/>
      <path id="NotoSansCJKjp-Regular-2d" d="M 294 1568 
L 1933 1568 
L 1933 2016 
L 294 2016 
L 294 1568 
z
" transform="scale(0.015625)"/>
      <path id="NotoSansCJKjp-Regular-61" d="M 1389 -83 
C 1818 -83 2208 141 2541 416 
L 2560 416 
L 2611 0 
L 3091 0 
L 3091 2138 
C 3091 3002 2739 3565 1888 3565 
C 1325 3565 838 3315 525 3110 
L 749 2707 
C 1024 2893 1389 3078 1792 3078 
C 2362 3078 2509 2650 2509 2202 
C 1030 2035 378 1658 378 902 
C 378 275 806 -83 1389 -83 
z
M 1555 390 
C 1210 390 941 544 941 941 
C 941 1389 1338 1677 2509 1811 
L 2509 845 
C 2170 544 1888 390 1555 390 
z
" transform="scale(0.015625)"/>
      <path id="NotoSansCJKjp-Regular-73" d="M 1498 -83 
C 2317 -83 2758 384 2758 947 
C 2758 1606 2208 1811 1702 2003 
C 1312 2150 954 2278 954 2605 
C 954 2880 1158 3110 1600 3110 
C 1907 3110 2150 2976 2387 2803 
L 2669 3168 
C 2406 3386 2022 3565 1594 3565 
C 832 3565 397 3130 397 2579 
C 397 1984 922 1754 1408 1574 
C 1792 1434 2202 1267 2202 915 
C 2202 614 1978 371 1517 371 
C 1101 371 794 538 486 787 
L 205 397 
C 531 122 1005 -83 1498 -83 
z
" transform="scale(0.015625)"/>
      <path id="NotoSansCJKjp-Regular-74" d="M 1677 -83 
C 1894 -83 2125 -19 2323 45 
L 2208 486 
C 2093 435 1939 390 1811 390 
C 1408 390 1274 634 1274 1056 
L 1274 3002 
L 2221 3002 
L 2221 3475 
L 1274 3475 
L 1274 4454 
L 787 4454 
L 723 3475 
L 173 3443 
L 173 3002 
L 691 3002 
L 691 1075 
C 691 378 941 -83 1677 -83 
z
" transform="scale(0.015625)"/>
      <path id="NotoSansCJKjp-Regular-2192" d="M 5190 2650 
L 256 2650 
L 256 2214 
L 5190 2214 
C 4864 1965 4442 1562 4154 1165 
L 4538 941 
C 4966 1504 5606 2067 6176 2432 
C 5606 2797 4966 3360 4538 3923 
L 4154 3699 
C 4442 3302 4864 2899 5190 2650 
z
" transform="scale(0.015625)"/>
      <path id="NotoSansCJKjp-Regular-53" d="M 1946 -83 
C 2925 -83 3539 506 3539 1248 
C 3539 1946 3117 2266 2573 2502 
L 1907 2790 
C 1542 2944 1126 3117 1126 3578 
C 1126 3994 1472 4256 2003 4256 
C 2438 4256 2784 4090 3072 3821 
L 3379 4198 
C 3053 4538 2560 4774 2003 4774 
C 1152 4774 525 4256 525 3533 
C 525 2848 1043 2515 1478 2330 
L 2150 2035 
C 2598 1837 2938 1683 2938 1197 
C 2938 742 2573 435 1952 435 
C 1466 435 992 666 659 1018 
L 307 608 
C 710 186 1280 -83 1946 -83 
z
" transform="scale(0.015625)"/>
      <path id="NotoSansCJKjp-Regular-6c" d="M 1203 -83 
C 1363 -83 1459 -58 1542 -32 
L 1459 416 
C 1395 403 1370 403 1338 403 
C 1248 403 1178 474 1178 653 
L 1178 5094 
L 589 5094 
L 589 691 
C 589 198 768 -83 1203 -83 
z
" transform="scale(0.015625)"/>
      <path id="NotoSansCJKjp-Regular-6f" d="M 1939 -83 
C 2790 -83 3546 582 3546 1734 
C 3546 2893 2790 3565 1939 3565 
C 1088 3565 333 2893 333 1734 
C 333 582 1088 -83 1939 -83 
z
M 1939 403 
C 1338 403 934 934 934 1734 
C 934 2534 1338 3072 1939 3072 
C 2541 3072 2950 2534 2950 1734 
C 2950 934 2541 403 1939 403 
z
" transform="scale(0.015625)"/>
      <path id="NotoSansCJKjp-Regular-77" d="M 1139 0 
L 1818 0 
L 2310 1862 
C 2400 2195 2470 2522 2547 2874 
L 2579 2874 
C 2662 2522 2726 2202 2816 1875 
L 3315 0 
L 4026 0 
L 4966 3475 
L 4403 3475 
L 3898 1466 
C 3821 1133 3757 819 3686 499 
L 3654 499 
C 3571 819 3494 1133 3411 1466 
L 2867 3475 
L 2298 3475 
L 1754 1466 
C 1670 1133 1594 819 1523 499 
L 1491 499 
C 1421 819 1357 1133 1286 1466 
L 768 3475 
L 173 3475 
L 1139 0 
z
" transform="scale(0.015625)"/>
     </defs>
     <use xlink:href="#NotoSansCJKjp-Regular-46"/>
     <use xlink:href="#NotoSansCJKjp-Regular-49" x="55.199997"/>
     <use xlink:href="#NotoSansCJKjp-Regular-4f" x="84.499985"/>
     <use xlink:href="#NotoSansCJKjp-Regular-2d" x="158.699966"/>
     <use xlink:href="#NotoSansCJKjp-Regular-46" x="193.399963"/>
     <use xlink:href="#NotoSansCJKjp-Regular-61" x="248.59996"/>
     <use xlink:href="#NotoSansCJKjp-Regular-73" x="304.899948"/>
     <use xlink:href="#NotoSansCJKjp-Regular-74" x="351.699936"/>
     <use xlink:href="#NotoSansCJKjp-Regular-2192" x="389.399933"/>
     <use xlink:href="#NotoSansCJKjp-Regular-46" x="489.399918"/>
     <use xlink:href="#NotoSansCJKjp-Regular-49" x="544.599915"/>
     <use xlink:href="#NotoSansCJKjp-Regular-4f" x="573.899902"/>
     <use xlink:href="#NotoSansCJKjp-Regular-2d" x="648.099884"/>
     <use xlink:href="#NotoSansCJKjp-Regular-53" x="682.799881"/>
     <use xlink:href="#NotoSansCJKjp-Regular-6c" x="742.399872"/>
     <use xlink:href="#NotoSansCJKjp-Regular-6f" x="770.799866"/>
     <use xlink:href="#NotoSansCJKjp-Regular-77" x="831.399857"/>
    </g>
   </g>
   <g id="legend_1">
    <g id="line2d_31">
     <path d="M 47.566719 33.395781 
L 56.066719 33.395781 
L 64.566719 33.395781 
" style="fill: none; stroke: #2a78d6; stroke-width: 1.6; stroke-linecap: round"/>
    </g>
    <g id="text_18">
     <!-- iCAT-v4  (누적 1.874) -->
     <g transform="translate(71.366719 36.370781) scale(0.085 -0.085)">
      <defs>
       <path id="NotoSansCJKjp-Regular-69" d="M 589 0 
L 1178 0 
L 1178 3475 
L 589 3475 
L 589 0 
z
M 883 4192 
C 1114 4192 1274 4346 1274 4582 
C 1274 4806 1114 4960 883 4960 
C 653 4960 499 4806 499 4582 
C 499 4346 653 4192 883 4192 
z
" transform="scale(0.015625)"/>
       <path id="NotoSansCJKjp-Regular-43" d="M 2413 -83 
C 3021 -83 3482 160 3853 589 
L 3526 966 
C 3226 634 2886 435 2438 435 
C 1542 435 979 1178 979 2362 
C 979 3533 1574 4256 2458 4256 
C 2861 4256 3168 4077 3418 3814 
L 3738 4198 
C 3469 4499 3021 4774 2451 4774 
C 1261 4774 371 3859 371 2342 
C 371 819 1242 -83 2413 -83 
z
" transform="scale(0.015625)"/>
       <path id="NotoSansCJKjp-Regular-54" d="M 1619 0 
L 2214 0 
L 2214 4192 
L 3635 4192 
L 3635 4691 
L 198 4691 
L 198 4192 
L 1619 4192 
L 1619 0 
z
" transform="scale(0.015625)"/>
       <path id="NotoSansCJKjp-Regular-76" d="M 1338 0 
L 2022 0 
L 3251 3475 
L 2675 3475 
L 2016 1498 
C 1914 1158 1798 806 1696 474 
L 1664 474 
C 1562 806 1453 1158 1344 1498 
L 691 3475 
L 83 3475 
L 1338 0 
z
" transform="scale(0.015625)"/>
       <path id="NotoSansCJKjp-Regular-b204" d="M 992 4998 
L 992 2912 
L 4960 2912 
L 4960 3347 
L 1523 3347 
L 1523 4998 
L 992 4998 
z
M 320 2048 
L 320 1606 
L 2656 1606 
L 2656 -499 
L 3187 -499 
L 3187 1606 
L 5568 1606 
L 5568 2048 
L 320 2048 
z
" transform="scale(0.015625)"/>
       <path id="NotoSansCJKjp-Regular-c801" d="M 1216 1517 
L 1216 1082 
L 4550 1082 
L 4550 -499 
L 5082 -499 
L 5082 1517 
L 1216 1517 
z
M 506 4896 
L 506 4461 
L 1792 4461 
L 1792 4230 
C 1792 3418 1197 2643 339 2342 
L 614 1920 
C 1299 2170 1824 2701 2074 3360 
C 2317 2765 2816 2285 3462 2054 
L 3731 2470 
C 2893 2765 2330 3488 2330 4237 
L 2330 4461 
L 3597 4461 
L 3597 4896 
L 506 4896 
z
M 4550 5293 
L 4550 3782 
L 3418 3782 
L 3418 3341 
L 4550 3341 
L 4550 1830 
L 5082 1830 
L 5082 5293 
L 4550 5293 
z
" transform="scale(0.015625)"/>
      </defs>
      <use xlink:href="#NotoSansCJKjp-Regular-69"/>
      <use xlink:href="#NotoSansCJKjp-Regular-43" x="27.499985"/>
      <use xlink:href="#NotoSansCJKjp-Regular-41" x="91.299973"/>
      <use xlink:href="#NotoSansCJKjp-Regular-54" x="152.09996"/>
      <use xlink:href="#NotoSansCJKjp-Regular-2d" x="211.999954"/>
      <use xlink:href="#NotoSansCJKjp-Regular-76" x="246.699951"/>
      <use xlink:href="#NotoSansCJKjp-Regular-34" x="298.799942"/>
      <use xlink:href="#NotoSansCJKjp-Regular-20" x="354.299927"/>
      <use xlink:href="#NotoSansCJKjp-Regular-20" x="376.699921"/>
      <use xlink:href="#NotoSansCJKjp-Regular-28" x="399.099915"/>
      <use xlink:href="#NotoSansCJKjp-Regular-b204" x="432.899902"/>
      <use xlink:href="#NotoSansCJKjp-Regular-c801" x="524.899887"/>
      <use xlink:href="#NotoSansCJKjp-Regular-20" x="616.899872"/>
      <use xlink:href="#NotoSansCJKjp-Regular-31" x="639.299866"/>
      <use xlink:href="#NotoSansCJKjp-Regular-2e" x="694.79985"/>
      <use xlink:href="#NotoSansCJKjp-Regular-38" x="722.599838"/>
      <use xlink:href="#NotoSansCJKjp-Regular-37" x="778.099823"/>
      <use xlink:href="#NotoSansCJKjp-Regular-34" x="833.599808"/>
      <use xlink:href="#NotoSansCJKjp-Regular-29" x="889.099792"/>
     </g>
    </g>
    <g id="line2d_32">
     <path d="M 47.566719 46.358281 
L 56.066719 46.358281 
L 64.566719 46.358281 
" style="fill: none; stroke: #3d3c39; stroke-width: 1.1; stroke-linecap: round"/>
    </g>
    <g id="text_19">
     <!-- CAT-47  (누적 1.768) -->
     <g transform="translate(71.366719 49.333281) scale(0.085 -0.085)">
      <use xlink:href="#NotoSansCJKjp-Regular-43"/>
      <use xlink:href="#NotoSansCJKjp-Regular-41" x="63.799988"/>
      <use xlink:href="#NotoSansCJKjp-Regular-54" x="124.599976"/>
      <use xlink:href="#NotoSansCJKjp-Regular-2d" x="184.499969"/>
      <use xlink:href="#NotoSansCJKjp-Regular-34" x="219.199966"/>
      <use xlink:href="#NotoSansCJKjp-Regular-37" x="274.699951"/>
      <use xlink:href="#NotoSansCJKjp-Regular-20" x="330.199936"/>
      <use xlink:href="#NotoSansCJKjp-Regular-20" x="352.59993"/>
      <use xlink:href="#NotoSansCJKjp-Regular-28" x="374.999924"/>
      <use xlink:href="#NotoSansCJKjp-Regular-b204" x="408.799911"/>
      <use xlink:href="#NotoSansCJKjp-Regular-c801" x="500.799896"/>
      <use xlink:href="#NotoSansCJKjp-Regular-20" x="592.799881"/>
      <use xlink:href="#NotoSansCJKjp-Regular-31" x="615.199875"/>
      <use xlink:href="#NotoSansCJKjp-Regular-2e" x="670.69986"/>
      <use xlink:href="#NotoSansCJKjp-Regular-37" x="698.499847"/>
      <use xlink:href="#NotoSansCJKjp-Regular-36" x="753.999832"/>
      <use xlink:href="#NotoSansCJKjp-Regular-38" x="809.499817"/>
      <use xlink:href="#NotoSansCJKjp-Regular-29" x="864.999802"/>
     </g>
    </g>
    <g id="line2d_33">
     <path d="M 47.566719 59.320781 
L 56.066719 59.320781 
L 64.566719 59.320781 
" style="fill: none; stroke: #a8a7a2; stroke-width: 1.1; stroke-linecap: round"/>
    </g>
    <g id="text_20">
     <!-- CAT-50  (누적 1.802) -->
     <g transform="translate(71.366719 62.295781) scale(0.085 -0.085)">
      <use xlink:href="#NotoSansCJKjp-Regular-43"/>
      <use xlink:href="#NotoSansCJKjp-Regular-41" x="63.799988"/>
      <use xlink:href="#NotoSansCJKjp-Regular-54" x="124.599976"/>
      <use xlink:href="#NotoSansCJKjp-Regular-2d" x="184.499969"/>
      <use xlink:href="#NotoSansCJKjp-Regular-35" x="219.199966"/>
      <use xlink:href="#NotoSansCJKjp-Regular-30" x="274.699951"/>
      <use xlink:href="#NotoSansCJKjp-Regular-20" x="330.199936"/>
      <use xlink:href="#NotoSansCJKjp-Regular-20" x="352.59993"/>
      <use xlink:href="#NotoSansCJKjp-Regular-28" x="374.999924"/>
      <use xlink:href="#NotoSansCJKjp-Regular-b204" x="408.799911"/>
      <use xlink:href="#NotoSansCJKjp-Regular-c801" x="500.799896"/>
      <use xlink:href="#NotoSansCJKjp-Regular-20" x="592.799881"/>
      <use xlink:href="#NotoSansCJKjp-Regular-31" x="615.199875"/>
      <use xlink:href="#NotoSansCJKjp-Regular-2e" x="670.69986"/>
      <use xlink:href="#NotoSansCJKjp-Regular-38" x="698.499847"/>
      <use xlink:href="#NotoSansCJKjp-Regular-30" x="753.999832"/>
      <use xlink:href="#NotoSansCJKjp-Regular-32" x="809.499817"/>
      <use xlink:href="#NotoSansCJKjp-Regular-29" x="864.999802"/>
     </g>
    </g>
   </g>
  </g>
 </g>
 <defs>
  <clipPath id="p375b4c1e46">
   <rect x="39.916719" y="21.955312" width="667.69" height="223.48"/>
  </clipPath>
 </defs>
</svg>
