<?xml version="1.0" encoding="utf-8" standalone="no"?>
<!DOCTYPE svg PUBLIC "-//W3C//DTD SVG 1.1//EN"
  "http://www.w3.org/Graphics/SVG/1.1/DTD/svg11.dtd">
<svg xmlns:xlink="http://www.w3.org/1999/xlink" width="714.730531pt" height="282.112031pt" viewBox="0 0 714.730531 282.112031" xmlns="http://www.w3.org/2000/svg" version="1.1">
 <metadata>
  <rdf:RDF xmlns:dc="http://purl.org/dc/elements/1.1/" xmlns:cc="http://creativecommons.org/ns#" xmlns:rdf="http://www.w3.org/1999/02/22-rdf-syntax-ns#">
   <cc:Work>
    <dc:type rdf:resource="http://purl.org/dc/dcmitype/StillImage"/>
    <dc:date>2026-10-02T21:11:23.273207</dc:date>
    <dc:format>image/svg+xml</dc:format>
    <dc:creator>
     <cc:Agent>
      <dc:title>Matplotlib v3.6.3, https://matplotlib.org/</dc:title>
     </cc:Agent>
    </dc:creator>
   </cc:Work>
  </rdf:RDF>
 </metadata>
 <defs>
  <style type="text/css">*{stroke-linejoin: round; stroke-linecap: butt}</style>
 </defs>
 <g id="figure_1">
  <g id="patch_1">
   <path d="M 0 282.112031 
L 714.730531 282.112031 
L 714.730531 0 
L 0 0 
z
" style="fill: #fcfcfb"/>
  </g>
  <g id="axes_1">
   <g id="patch_2">
    <path d="M 39.916719 245.435312 
L 699.077438 245.435312 
L 699.077438 21.955312 
L 39.916719 21.955312 
z
" style="fill: #fcfcfb"/>
   </g>
   <g id="matplotlib.axis_1">
    <g id="xtick_1">
     <g id="line2d_1">
      <path d="M 53.752708 245.435312 
L 53.752708 21.955312 
" clip-path="url(#pfc24eb6b2e)" style="fill: none; stroke: #e4e3df; stroke-width: 0.6; stroke-linecap: round"/>
     </g>
     <g id="line2d_2">
      <defs>
       <path id="m4650c94fd2" d="M 0 0 
L 0 3.5 
" style="stroke: #000000; stroke-width: 0.8"/>
      </defs>
      <g>
       <use xlink:href="#m4650c94fd2" x="53.752708" y="245.435312" style="stroke: #000000; stroke-width: 0.8"/>
      </g>
     </g>
     <g id="text_1">
      <!-- 0.0 -->
      <g transform="translate(47.506849 259.59875) scale(0.09 -0.09)">
       <defs>
        <path id="NotoSansCJKjp-Regular-30" d="M 1779 -83 
C 2669 -83 3238 723 3238 2362 
C 3238 3987 2669 4774 1779 4774 
C 883 4774 320 3987 320 2362 
C 320 723 883 -83 1779 -83 
z
M 1779 390 
C 1248 390 883 986 883 2362 
C 883 3731 1248 4314 1779 4314 
C 2310 4314 2675 3731 2675 2362 
C 2675 986 2310 390 1779 390 
z
" transform="scale(0.015625)"/>
        <path id="NotoSansCJKjp-Regular-2e" d="M 890 -83 
C 1120 -83 1312 96 1312 358 
C 1312 627 1120 806 890 806 
C 653 806 467 627 467 358 
C 467 96 653 -83 890 -83 
z
" transform="scale(0.015625)"/>
       </defs>
       <use xlink:href="#NotoSansCJKjp-Regular-30"/>
       <use xlink:href="#NotoSansCJKjp-Regular-2e" x="55.499985"/>
       <use xlink:href="#NotoSansCJKjp-Regular-30" x="83.299973"/>
      </g>
     </g>
    </g>
    <g id="xtick_2">
     <g id="line2d_3">
      <path d="M 134.382016 245.435312 
L 134.382016 21.955312 
" clip-path="url(#pfc24eb6b2e)" style="fill: none; stroke: #e4e3df; stroke-width: 0.6; stroke-linecap: round"/>
     </g>
     <g id="line2d_4">
      <g>
       <use xlink:href="#m4650c94fd2" x="134.382016" y="245.435312" style="stroke: #000000; stroke-width: 0.8"/>
      </g>
     </g>
     <g id="text_2">
      <!-- 2.5 -->
      <g transform="translate(128.136157 259.59875) scale(0.09 -0.09)">
       <defs>
        <path id="NotoSansCJKjp-Regular-32" d="M 282 0 
L 3232 0 
L 3232 506 
L 1933 506 
C 1696 506 1408 480 1165 461 
C 2266 1504 3008 2458 3008 3398 
C 3008 4230 2477 4774 1638 4774 
C 1043 4774 634 4506 256 4090 
L 595 3757 
C 858 4070 1184 4301 1568 4301 
C 2150 4301 2432 3910 2432 3373 
C 2432 2566 1754 1632 282 346 
L 282 0 
z
" transform="scale(0.015625)"/>
        <path id="NotoSansCJKjp-Regular-35" d="M 1677 -83 
C 2464 -83 3213 499 3213 1523 
C 3213 2560 2573 3021 1798 3021 
C 1517 3021 1306 2950 1094 2835 
L 1216 4192 
L 2982 4192 
L 2982 4691 
L 704 4691 
L 550 2502 
L 864 2304 
C 1133 2483 1331 2579 1645 2579 
C 2234 2579 2618 2182 2618 1510 
C 2618 826 2176 403 1619 403 
C 1075 403 730 653 467 922 
L 173 538 
C 493 224 941 -83 1677 -83 
z
" transform="scale(0.015625)"/>
       </defs>
       <use xlink:href="#NotoSansCJKjp-Regular-32"/>
       <use xlink:href="#NotoSansCJKjp-Regular-2e" x="55.499985"/>
       <use xlink:href="#NotoSansCJKjp-Regular-35" x="83.299973"/>
      </g>
     </g>
    </g>
    <g id="xtick_3">
     <g id="line2d_5">
      <path d="M 215.011324 245.435312 
L 215.011324 21.955312 
" clip-path="url(#pfc24eb6b2e)" style="fill: none; stroke: #e4e3df; stroke-width: 0.6; stroke-linecap: round"/>
     </g>
     <g id="line2d_6">
      <g>
       <use xlink:href="#m4650c94fd2" x="215.011324" y="245.435312" style="stroke: #000000; stroke-width: 0.8"/>
      </g>
     </g>
     <g id="text_3">
      <!-- 5.0 -->
      <g transform="translate(208.765465 259.59875) scale(0.09 -0.09)">
       <use xlink:href="#NotoSansCJKjp-Regular-35"/>
       <use xlink:href="#NotoSansCJKjp-Regular-2e" x="55.499985"/>
       <use xlink:href="#NotoSansCJKjp-Regular-30" x="83.299973"/>
      </g>
     </g>
    </g>
    <g id="xtick_4">
     <g id="line2d_7">
      <path d="M 295.640632 245.435312 
L 295.640632 21.955312 
" clip-path="url(#pfc24eb6b2e)" style="fill: none; stroke: #e4e3df; stroke-width: 0.6; stroke-linecap: round"/>
     </g>
     <g id="line2d_8">
      <g>
       <use xlink:href="#m4650c94fd2" x="295.640632" y="245.435312" style="stroke: #000000; stroke-width: 0.8"/>
      </g>
     </g>
     <g id="text_4">
      <!-- 7.5 -->
      <g transform="translate(289.394773 259.59875) scale(0.09 -0.09)">
       <defs>
        <path id="NotoSansCJKjp-Regular-37" d="M 1267 0 
L 1875 0 
C 1952 1837 2150 2931 3251 4339 
L 3251 4691 
L 314 4691 
L 314 4192 
L 2592 4192 
C 1670 2912 1350 1779 1267 0 
z
" transform="scale(0.015625)"/>
       </defs>
       <use xlink:href="#NotoSansCJKjp-Regular-37"/>
       <use xlink:href="#NotoSansCJKjp-Regular-2e" x="55.499985"/>
       <use xlink:href="#NotoSansCJKjp-Regular-35" x="83.299973"/>
      </g>
     </g>
    </g>
    <g id="xtick_5">
     <g id="line2d_9">
      <path d="M 376.26994 245.435312 
L 376.26994 21.955312 
" clip-path="url(#pfc24eb6b2e)" style="fill: none; stroke: #e4e3df; stroke-width: 0.6; stroke-linecap: round"/>
     </g>
     <g id="line2d_10">
      <g>
       <use xlink:href="#m4650c94fd2" x="376.26994" y="245.435312" style="stroke: #000000; stroke-width: 0.8"/>
      </g>
     </g>
     <g id="text_5">
      <!-- 10.0 -->
      <g transform="translate(367.526581 259.59875) scale(0.09 -0.09)">
       <defs>
        <path id="NotoSansCJKjp-Regular-31" d="M 563 0 
L 3136 0 
L 3136 486 
L 2195 486 
L 2195 4691 
L 1747 4691 
C 1491 4544 1190 4435 774 4358 
L 774 3987 
L 1613 3987 
L 1613 486 
L 563 486 
L 563 0 
z
" transform="scale(0.015625)"/>
       </defs>
       <use xlink:href="#NotoSansCJKjp-Regular-31"/>
       <use xlink:href="#NotoSansCJKjp-Regular-30" x="55.499985"/>
       <use xlink:href="#NotoSansCJKjp-Regular-2e" x="110.999969"/>
       <use xlink:href="#NotoSansCJKjp-Regular-30" x="138.799957"/>
      </g>
     </g>
    </g>
    <g id="xtick_6">
     <g id="line2d_11">
      <path d="M 456.899248 245.435312 
L 456.899248 21.955312 
" clip-path="url(#pfc24eb6b2e)" style="fill: none; stroke: #e4e3df; stroke-width: 0.6; stroke-linecap: round"/>
     </g>
     <g id="line2d_12">
      <g>
       <use xlink:href="#m4650c94fd2" x="456.899248" y="245.435312" style="stroke: #000000; stroke-width: 0.8"/>
      </g>
     </g>
     <g id="text_6">
      <!-- 12.5 -->
      <g transform="translate(448.155889 259.59875) scale(0.09 -0.09)">
       <use xlink:href="#NotoSansCJKjp-Regular-31"/>
       <use xlink:href="#NotoSansCJKjp-Regular-32" x="55.499985"/>
       <use xlink:href="#NotoSansCJKjp-Regular-2e" x="110.999969"/>
       <use xlink:href="#NotoSansCJKjp-Regular-35" x="138.799957"/>
      </g>
     </g>
    </g>
    <g id="xtick_7">
     <g id="line2d_13">
      <path d="M 537.528556 245.435312 
L 537.528556 21.955312 
" clip-path="url(#pfc24eb6b2e)" style="fill: none; stroke: #e4e3df; stroke-width: 0.6; stroke-linecap: round"/>
     </g>
     <g id="line2d_14">
      <g>
       <use xlink:href="#m4650c94fd2" x="537.528556" y="245.435312" style="stroke: #000000; stroke-width: 0.8"/>
      </g>
     </g>
     <g id="text_7">
      <!-- 15.0 -->
      <g transform="translate(528.785197 259.59875) scale(0.09 -0.09)">
       <use xlink:href="#NotoSansCJKjp-Regular-31"/>
       <use xlink:href="#NotoSansCJKjp-Regular-35" x="55.499985"/>
       <use xlink:href="#NotoSansCJKjp-Regular-2e" x="110.999969"/>
       <use xlink:href="#NotoSansCJKjp-Regular-30" x="138.799957"/>
      </g>
     </g>
    </g>
    <g id="xtick_8">
     <g id="line2d_15">
      <path d="M 618.157864 245.435312 
L 618.157864 21.955312 
" clip-path="url(#pfc24eb6b2e)" style="fill: none; stroke: #e4e3df; stroke-width: 0.6; stroke-linecap: round"/>
     </g>
     <g id="line2d_16">
      <g>
       <use xlink:href="#m4650c94fd2" x="618.157864" y="245.435312" style="stroke: #000000; stroke-width: 0.8"/>
      </g>
     </g>
     <g id="text_8">
      <!-- 17.5 -->
      <g transform="translate(609.414505 259.59875) scale(0.09 -0.09)">
       <use xlink:href="#NotoSansCJKjp-Regular-31"/>
       <use xlink:href="#NotoSansCJKjp-Regular-37" x="55.499985"/>
       <use xlink:href="#NotoSansCJKjp-Regular-2e" x="110.999969"/>
       <use xlink:href="#NotoSansCJKjp-Regular-35" x="138.799957"/>
      </g>
     </g>
    </g>
    <g id="xtick_9">
     <g id="line2d_17">
      <path d="M 698.787172 245.435312 
L 698.787172 21.955312 
" clip-path="url(#pfc24eb6b2e)" style="fill: none; stroke: #e4e3df; stroke-width: 0.6; stroke-linecap: round"/>
     </g>
     <g id="line2d_18">
      <g>
       <use xlink:href="#m4650c94fd2" x="698.787172" y="245.435312" style="stroke: #000000; stroke-width: 0.8"/>
      </g>
     </g>
     <g id="text_9">
      <!-- 20.0 -->
      <g transform="translate(690.043813 259.59875) scale(0.09 -0.09)">
       <use xlink:href="#NotoSansCJKjp-Regular-32"/>
       <use xlink:href="#NotoSansCJKjp-Regular-30" x="55.499985"/>
       <use xlink:href="#NotoSansCJKjp-Regular-2e" x="110.999969"/>
       <use xlink:href="#NotoSansCJKjp-Regular-30" x="138.799957"/>
      </g>
     </g>
    </g>
    <g id="text_10">
     <!-- 측정 시작 후 경과 시간 (분) -->
     <g transform="translate(320.013953 272.850469) scale(0.09 -0.09)">
      <defs>
       <path id="NotoSansCJKjp-Regular-ce21" d="M 320 2368 
L 320 1939 
L 5549 1939 
L 5549 2368 
L 320 2368 
z
M 902 1325 
L 902 896 
L 4371 896 
L 4371 -499 
L 4902 -499 
L 4902 1325 
L 902 1325 
z
M 858 4710 
L 858 4288 
L 2643 4288 
C 2598 3642 1722 3200 627 3098 
L 794 2688 
C 1747 2790 2586 3136 2931 3712 
C 3283 3136 4115 2790 5069 2688 
L 5235 3098 
C 4141 3200 3264 3642 3219 4288 
L 5018 4288 
L 5018 4710 
L 3194 4710 
L 3194 5306 
L 2669 5306 
L 2669 4710 
L 858 4710 
z
" transform="scale(0.015625)"/>
       <path id="NotoSansCJKjp-Regular-c815" d="M 3174 1664 
C 1978 1664 1248 1267 1248 582 
C 1248 -96 1978 -493 3174 -493 
C 4371 -493 5101 -96 5101 582 
C 5101 1267 4371 1664 3174 1664 
z
M 3174 1248 
C 4045 1248 4576 1005 4576 582 
C 4576 166 4045 -77 3174 -77 
C 2304 -77 1773 166 1773 582 
C 1773 1005 2304 1248 3174 1248 
z
M 4550 5293 
L 4550 3789 
L 3411 3789 
L 3411 3347 
L 4550 3347 
L 4550 1843 
L 5082 1843 
L 5082 5293 
L 4550 5293 
z
M 506 4870 
L 506 4435 
L 1792 4435 
L 1792 4237 
C 1792 3411 1203 2630 339 2317 
L 614 1894 
C 1299 2157 1824 2688 2074 3360 
C 2323 2771 2816 2291 3462 2054 
L 3731 2477 
C 2893 2771 2330 3494 2330 4243 
L 2330 4435 
L 3597 4435 
L 3597 4870 
L 506 4870 
z
" transform="scale(0.015625)"/>
       <path id="NotoSansCJKjp-Regular-20" transform="scale(0.015625)"/>
       <path id="NotoSansCJKjp-Regular-c2dc" d="M 4525 5293 
L 4525 -506 
L 5056 -506 
L 5056 5293 
L 4525 5293 
z
M 1843 4794 
L 1843 3757 
C 1843 2656 1152 1549 288 1146 
L 614 704 
C 1293 1043 1850 1773 2118 2643 
C 2387 1818 2944 1139 3597 819 
L 3917 1242 
C 3066 1632 2374 2701 2374 3757 
L 2374 4794 
L 1843 4794 
z
" transform="scale(0.015625)"/>
       <path id="NotoSansCJKjp-Regular-c791" d="M 1050 1498 
L 1050 1062 
L 4282 1062 
L 4282 -499 
L 4813 -499 
L 4813 1498 
L 1050 1498 
z
M 454 4890 
L 454 4454 
L 1747 4454 
L 1747 4230 
C 1747 3405 1165 2656 294 2349 
L 576 1939 
C 1254 2182 1773 2688 2022 3341 
C 2266 2752 2758 2278 3411 2048 
L 3680 2464 
C 2829 2758 2278 3462 2278 4230 
L 2278 4454 
L 3552 4454 
L 3552 4890 
L 454 4890 
z
M 4282 5293 
L 4282 1805 
L 4813 1805 
L 4813 3322 
L 5664 3322 
L 5664 3770 
L 4813 3770 
L 4813 5293 
L 4282 5293 
z
" transform="scale(0.015625)"/>
       <path id="NotoSansCJKjp-Regular-d6c4" d="M 2931 3866 
C 1754 3866 1050 3520 1050 2899 
C 1050 2285 1754 1939 2931 1939 
C 4109 1939 4813 2285 4813 2899 
C 4813 3520 4109 3866 2931 3866 
z
M 2931 3462 
C 3776 3462 4262 3258 4262 2899 
C 4262 2547 3776 2342 2931 2342 
C 2086 2342 1600 2547 1600 2899 
C 1600 3258 2086 3462 2931 3462 
z
M 2669 5325 
L 2669 4634 
L 595 4634 
L 595 4198 
L 5248 4198 
L 5248 4634 
L 3194 4634 
L 3194 5325 
L 2669 5325 
z
M 320 1536 
L 320 1101 
L 2669 1101 
L 2669 -506 
L 3194 -506 
L 3194 1101 
L 5568 1101 
L 5568 1536 
L 320 1536 
z
" transform="scale(0.015625)"/>
       <path id="NotoSansCJKjp-Regular-acbd" d="M 3200 1760 
C 2029 1760 1280 1338 1280 646 
C 1280 -51 2029 -474 3200 -474 
C 4365 -474 5114 -51 5114 646 
C 5114 1338 4365 1760 3200 1760 
z
M 3200 1338 
C 4045 1338 4589 1082 4589 646 
C 4589 211 4045 -45 3200 -45 
C 2349 -45 1805 211 1805 646 
C 1805 1082 2349 1338 3200 1338 
z
M 691 4858 
L 691 4422 
L 2726 4422 
C 2624 3424 1773 2650 397 2246 
L 614 1824 
C 1850 2189 2733 2861 3104 3795 
L 4550 3795 
L 4550 3021 
L 3040 3021 
L 3040 2586 
L 4550 2586 
L 4550 1824 
L 5082 1824 
L 5082 5286 
L 4550 5286 
L 4550 4224 
L 3238 4224 
C 3277 4422 3302 4634 3302 4858 
L 691 4858 
z
" transform="scale(0.015625)"/>
       <path id="NotoSansCJKjp-Regular-acfc" d="M 582 4659 
L 582 4224 
L 2976 4224 
C 2976 3757 2963 3059 2810 2093 
L 3334 2048 
C 3501 3117 3501 3878 3501 4346 
L 3501 4659 
L 582 4659 
z
M 326 768 
C 1350 768 2701 794 3904 986 
L 3872 1382 
C 3283 1306 2637 1267 2010 1242 
L 2010 3002 
L 1485 3002 
L 1485 1229 
L 262 1210 
L 326 768 
z
M 4224 5293 
L 4224 -499 
L 4755 -499 
L 4755 2419 
L 5677 2419 
L 5677 2874 
L 4755 2874 
L 4755 5293 
L 4224 5293 
z
" transform="scale(0.015625)"/>
       <path id="NotoSansCJKjp-Regular-ac04" d="M 4275 5293 
L 4275 1062 
L 4813 1062 
L 4813 3091 
L 5664 3091 
L 5664 3539 
L 4813 3539 
L 4813 5293 
L 4275 5293 
z
M 563 4845 
L 563 4403 
L 2682 4403 
C 2579 3392 1696 2579 326 2150 
L 550 1722 
C 2214 2246 3258 3347 3258 4845 
L 563 4845 
z
M 1203 1491 
L 1203 -371 
L 5062 -371 
L 5062 64 
L 1734 64 
L 1734 1491 
L 1203 1491 
z
" transform="scale(0.015625)"/>
       <path id="NotoSansCJKjp-Regular-28" d="M 1530 -1254 
L 1888 -1094 
C 1338 -186 1075 902 1075 1990 
C 1075 3072 1338 4154 1888 5069 
L 1530 5235 
C 941 4275 589 3245 589 1990 
C 589 730 941 -301 1530 -1254 
z
" transform="scale(0.015625)"/>
       <path id="NotoSansCJKjp-Regular-bd84" d="M 1011 5107 
L 1011 2790 
L 4864 2790 
L 4864 5107 
L 4339 5107 
L 4339 4371 
L 1536 4371 
L 1536 5107 
L 1011 5107 
z
M 1536 3962 
L 4339 3962 
L 4339 3219 
L 1536 3219 
L 1536 3962 
z
M 314 2234 
L 314 1805 
L 2714 1805 
L 2714 685 
L 3238 685 
L 3238 1805 
L 5562 1805 
L 5562 2234 
L 314 2234 
z
M 979 1203 
L 979 -371 
L 4979 -371 
L 4979 64 
L 1504 64 
L 1504 1203 
L 979 1203 
z
" transform="scale(0.015625)"/>
       <path id="NotoSansCJKjp-Regular-29" d="M 634 -1254 
C 1222 -301 1574 730 1574 1990 
C 1574 3245 1222 4275 634 5235 
L 269 5069 
C 819 4154 1094 3072 1094 1990 
C 1094 902 819 -186 269 -1094 
L 634 -1254 
z
" transform="scale(0.015625)"/>
      </defs>
      <use xlink:href="#NotoSansCJKjp-Regular-ce21"/>
      <use xlink:href="#NotoSansCJKjp-Regular-c815" x="91.999985"/>
      <use xlink:href="#NotoSansCJKjp-Regular-20" x="183.999969"/>
      <use xlink:href="#NotoSansCJKjp-Regular-c2dc" x="206.399963"/>
      <use xlink:href="#NotoSansCJKjp-Regular-c791" x="298.399948"/>
      <use xlink:href="#NotoSansCJKjp-Regular-20" x="390.399933"/>
      <use xlink:href="#NotoSansCJKjp-Regular-d6c4" x="412.799927"/>
      <use xlink:href="#NotoSansCJKjp-Regular-20" x="504.799911"/>
      <use xlink:href="#NotoSansCJKjp-Regular-acbd" x="527.199905"/>
      <use xlink:href="#NotoSansCJKjp-Regular-acfc" x="619.19989"/>
      <use xlink:href="#NotoSansCJKjp-Regular-20" x="711.199875"/>
      <use xlink:href="#NotoSansCJKjp-Regular-c2dc" x="733.599869"/>
      <use xlink:href="#NotoSansCJKjp-Regular-ac04" x="825.599854"/>
      <use xlink:href="#NotoSansCJKjp-Regular-20" x="917.599838"/>
      <use xlink:href="#NotoSansCJKjp-Regular-28" x="939.999832"/>
      <use xlink:href="#NotoSansCJKjp-Regular-bd84" x="973.79982"/>
      <use xlink:href="#NotoSansCJKjp-Regular-29" x="1065.799805"/>
     </g>
    </g>
   </g>
   <g id="matplotlib.axis_2">
    <g id="ytick_1">
     <g id="line2d_19">
      <path d="M 39.916719 235.277131 
L 699.077438 235.277131 
" clip-path="url(#pfc24eb6b2e)" style="fill: none; stroke: #e4e3df; stroke-width: 0.6; stroke-linecap: round"/>
     </g>
     <g id="line2d_20">
      <defs>
       <path id="m8f46dfcc62" d="M 0 0 
L -3.5 0 
" style="stroke: #000000; stroke-width: 0.8"/>
      </defs>
      <g>
       <use xlink:href="#m8f46dfcc62" x="39.916719" y="235.277131" style="stroke: #000000; stroke-width: 0.8"/>
      </g>
     </g>
     <g id="text_11">
      <!-- 1.0 -->
      <g transform="translate(20.425 238.858849) scale(0.09 -0.09)">
       <use xlink:href="#NotoSansCJKjp-Regular-31"/>
       <use xlink:href="#NotoSansCJKjp-Regular-2e" x="55.499985"/>
       <use xlink:href="#NotoSansCJKjp-Regular-30" x="83.299973"/>
      </g>
     </g>
    </g>
    <g id="ytick_2">
     <g id="line2d_21">
      <path d="M 39.916719 192.765384 
L 699.077438 192.765384 
" clip-path="url(#pfc24eb6b2e)" style="fill: none; stroke: #e4e3df; stroke-width: 0.6; stroke-linecap: round"/>
     </g>
     <g id="line2d_22">
      <g>
       <use xlink:href="#m8f46dfcc62" x="39.916719" y="192.765384" style="stroke: #000000; stroke-width: 0.8"/>
      </g>
     </g>
     <g id="text_12">
      <!-- 1.2 -->
      <g transform="translate(20.425 196.347103) scale(0.09 -0.09)">
       <use xlink:href="#NotoSansCJKjp-Regular-31"/>
       <use xlink:href="#NotoSansCJKjp-Regular-2e" x="55.499985"/>
       <use xlink:href="#NotoSansCJKjp-Regular-32" x="83.299973"/>
      </g>
     </g>
    </g>
    <g id="ytick_3">
     <g id="line2d_23">
      <path d="M 39.916719 150.253638 
L 699.077438 150.253638 
" clip-path="url(#pfc24eb6b2e)" style="fill: none; stroke: #e4e3df; stroke-width: 0.6; stroke-linecap: round"/>
     </g>
     <g id="line2d_24">
      <g>
       <use xlink:href="#m8f46dfcc62" x="39.916719" y="150.253638" style="stroke: #000000; stroke-width: 0.8"/>
      </g>
     </g>
     <g id="text_13">
      <!-- 1.4 -->
      <g transform="translate(20.425 153.835356) scale(0.09 -0.09)">
       <defs>
        <path id="NotoSansCJKjp-Regular-34" d="M 2176 0 
L 2726 0 
L 2726 1293 
L 3354 1293 
L 3354 1760 
L 2726 1760 
L 2726 4691 
L 2080 4691 
L 128 1677 
L 128 1293 
L 2176 1293 
L 2176 0 
z
M 2176 1760 
L 736 1760 
L 1805 3360 
C 1939 3590 2067 3827 2182 4051 
L 2208 4051 
C 2195 3814 2176 3430 2176 3200 
L 2176 1760 
z
" transform="scale(0.015625)"/>
       </defs>
       <use xlink:href="#NotoSansCJKjp-Regular-31"/>
       <use xlink:href="#NotoSansCJKjp-Regular-2e" x="55.499985"/>
       <use xlink:href="#NotoSansCJKjp-Regular-34" x="83.299973"/>
      </g>
     </g>
    </g>
    <g id="ytick_4">
     <g id="line2d_25">
      <path d="M 39.916719 107.741891 
L 699.077438 107.741891 
" clip-path="url(#pfc24eb6b2e)" style="fill: none; stroke: #e4e3df; stroke-width: 0.6; stroke-linecap: round"/>
     </g>
     <g id="line2d_26">
      <g>
       <use xlink:href="#m8f46dfcc62" x="39.916719" y="107.741891" style="stroke: #000000; stroke-width: 0.8"/>
      </g>
     </g>
     <g id="text_14">
      <!-- 1.6 -->
      <g transform="translate(20.425 111.32361) scale(0.09 -0.09)">
       <defs>
        <path id="NotoSansCJKjp-Regular-36" d="M 1926 -83 
C 2656 -83 3277 531 3277 1440 
C 3277 2426 2765 2912 1971 2912 
C 1606 2912 1197 2701 909 2349 
C 934 3802 1466 4294 2118 4294 
C 2400 4294 2682 4154 2861 3936 
L 3194 4294 
C 2931 4576 2579 4774 2093 4774 
C 1184 4774 358 4077 358 2240 
C 358 691 1030 -83 1926 -83 
z
M 922 1882 
C 1229 2317 1587 2477 1875 2477 
C 2445 2477 2720 2074 2720 1440 
C 2720 800 2374 378 1926 378 
C 1338 378 986 909 922 1882 
z
" transform="scale(0.015625)"/>
       </defs>
       <use xlink:href="#NotoSansCJKjp-Regular-31"/>
       <use xlink:href="#NotoSansCJKjp-Regular-2e" x="55.499985"/>
       <use xlink:href="#NotoSansCJKjp-Regular-36" x="83.299973"/>
      </g>
     </g>
    </g>
    <g id="ytick_5">
     <g id="line2d_27">
      <path d="M 39.916719 65.230145 
L 699.077438 65.230145 
" clip-path="url(#pfc24eb6b2e)" style="fill: none; stroke: #e4e3df; stroke-width: 0.6; stroke-linecap: round"/>
     </g>
     <g id="line2d_28">
      <g>
       <use xlink:href="#m8f46dfcc62" x="39.916719" y="65.230145" style="stroke: #000000; stroke-width: 0.8"/>
      </g>
     </g>
     <g id="text_15">
      <!-- 1.8 -->
      <g transform="translate(20.425 68.811864) scale(0.09 -0.09)">
       <defs>
        <path id="NotoSansCJKjp-Regular-38" d="M 1792 -83 
C 2669 -83 3258 448 3258 1126 
C 3258 1773 2880 2125 2470 2362 
L 2470 2394 
C 2746 2611 3091 3034 3091 3526 
C 3091 4250 2605 4762 1805 4762 
C 1075 4762 518 4282 518 3571 
C 518 3078 813 2726 1152 2490 
L 1152 2464 
C 723 2234 294 1792 294 1165 
C 294 442 922 -83 1792 -83 
z
M 2112 2547 
C 1555 2765 1050 3014 1050 3571 
C 1050 4026 1363 4326 1798 4326 
C 2298 4326 2592 3962 2592 3494 
C 2592 3149 2426 2829 2112 2547 
z
M 1798 352 
C 1235 352 813 717 813 1216 
C 813 1664 1082 2035 1459 2278 
C 2125 2010 2701 1779 2701 1146 
C 2701 678 2342 352 1798 352 
z
" transform="scale(0.015625)"/>
       </defs>
       <use xlink:href="#NotoSansCJKjp-Regular-31"/>
       <use xlink:href="#NotoSansCJKjp-Regular-2e" x="55.499985"/>
       <use xlink:href="#NotoSansCJKjp-Regular-38" x="83.299973"/>
      </g>
     </g>
    </g>
    <g id="ytick_6">
     <g id="line2d_29">
      <path d="M 39.916719 22.718398 
L 699.077438 22.718398 
" clip-path="url(#pfc24eb6b2e)" style="fill: none; stroke: #e4e3df; stroke-width: 0.6; stroke-linecap: round"/>
     </g>
     <g id="line2d_30">
      <g>
       <use xlink:href="#m8f46dfcc62" x="39.916719" y="22.718398" style="stroke: #000000; stroke-width: 0.8"/>
      </g>
     </g>
     <g id="text_16">
      <!-- 2.0 -->
      <g transform="translate(20.425 26.300117) scale(0.09 -0.09)">
       <use xlink:href="#NotoSansCJKjp-Regular-32"/>
       <use xlink:href="#NotoSansCJKjp-Regular-2e" x="55.499985"/>
       <use xlink:href="#NotoSansCJKjp-Regular-30" x="83.299973"/>
      </g>
     </g>
    </g>
    <g id="text_17">
     <!-- 30초 구간 WAF (낮을수록 우수) -->
     <g transform="translate(14.363437 192.196016) rotate(-90) scale(0.09 -0.09)">
      <defs>
       <path id="NotoSansCJKjp-Regular-33" d="M 1683 -83 
C 2522 -83 3194 416 3194 1254 
C 3194 1901 2752 2310 2202 2445 
L 2202 2477 
C 2701 2650 3034 3034 3034 3603 
C 3034 4346 2458 4774 1664 4774 
C 1126 4774 710 4538 358 4218 
L 672 3846 
C 941 4115 1267 4301 1645 4301 
C 2138 4301 2438 4006 2438 3558 
C 2438 3053 2112 2662 1139 2662 
L 1139 2214 
C 2227 2214 2598 1843 2598 1274 
C 2598 736 2208 403 1645 403 
C 1114 403 762 659 486 941 
L 186 563 
C 493 224 954 -83 1683 -83 
z
" transform="scale(0.015625)"/>
       <path id="NotoSansCJKjp-Regular-cd08" d="M 2675 1984 
L 2675 672 
L 320 672 
L 320 230 
L 5568 230 
L 5568 672 
L 3200 672 
L 3200 1984 
L 2675 1984 
z
M 2675 5171 
L 2675 4378 
L 806 4378 
L 806 3942 
L 2669 3942 
C 2662 3053 1734 2381 608 2202 
L 813 1786 
C 1747 1946 2573 2413 2938 3123 
C 3302 2413 4134 1946 5062 1786 
L 5267 2202 
C 4141 2381 3213 3053 3206 3942 
L 5069 3942 
L 5069 4378 
L 3200 4378 
L 3200 5171 
L 2675 5171 
z
" transform="scale(0.015625)"/>
       <path id="NotoSansCJKjp-Regular-ad6c" d="M 320 2432 
L 320 1990 
L 2656 1990 
L 2656 -506 
L 3187 -506 
L 3187 1990 
L 5549 1990 
L 5549 2432 
L 4704 2432 
C 4864 3264 4864 3866 4864 4410 
L 4864 4915 
L 973 4915 
L 973 4486 
L 4339 4486 
L 4339 4410 
C 4339 3872 4339 3258 4160 2432 
L 320 2432 
z
" transform="scale(0.015625)"/>
       <path id="NotoSansCJKjp-Regular-57" d="M 1158 0 
L 1862 0 
L 2560 2829 
C 2637 3200 2726 3539 2797 3898 
L 2822 3898 
C 2899 3539 2970 3200 3053 2829 
L 3763 0 
L 4480 0 
L 5446 4691 
L 4883 4691 
L 4378 2138 
C 4294 1632 4205 1126 4122 614 
L 4083 614 
C 3968 1126 3866 1638 3750 2138 
L 3098 4691 
L 2554 4691 
L 1907 2138 
C 1792 1632 1677 1126 1574 614 
L 1549 614 
C 1453 1126 1363 1632 1267 2138 
L 774 4691 
L 166 4691 
L 1158 0 
z
" transform="scale(0.015625)"/>
       <path id="NotoSansCJKjp-Regular-41" d="M 26 0 
L 621 0 
L 1075 1434 
L 2790 1434 
L 3238 0 
L 3866 0 
L 2272 4691 
L 1613 4691 
L 26 0 
z
M 1222 1901 
L 1453 2624 
C 1619 3155 1773 3661 1920 4211 
L 1946 4211 
C 2099 3667 2246 3155 2419 2624 
L 2643 1901 
L 1222 1901 
z
" transform="scale(0.015625)"/>
       <path id="NotoSansCJKjp-Regular-46" d="M 646 0 
L 1235 0 
L 1235 2106 
L 3027 2106 
L 3027 2605 
L 1235 2605 
L 1235 4192 
L 3347 4192 
L 3347 4691 
L 646 4691 
L 646 0 
z
" transform="scale(0.015625)"/>
       <path id="NotoSansCJKjp-Regular-b0ae" d="M 4282 5299 
L 4282 2022 
L 4813 2022 
L 4813 3437 
L 5664 3437 
L 5664 3885 
L 4813 3885 
L 4813 5299 
L 4282 5299 
z
M 595 2912 
L 595 2464 
L 1056 2464 
C 1914 2464 2784 2528 3757 2726 
L 3693 3168 
C 2771 2976 1939 2918 1126 2912 
L 1126 4979 
L 595 4979 
L 595 2912 
z
M 1120 1722 
L 1120 1293 
L 2739 1293 
C 2714 653 1875 96 902 -58 
L 1114 -467 
C 1952 -320 2701 102 3021 685 
C 3341 102 4083 -326 4922 -474 
L 5133 -64 
C 4166 96 3322 666 3296 1293 
L 4909 1293 
L 4909 1722 
L 1120 1722 
z
" transform="scale(0.015625)"/>
       <path id="NotoSansCJKjp-Regular-c744" d="M 2931 5190 
C 1651 5190 896 4838 896 4192 
C 896 3546 1651 3187 2931 3187 
C 4211 3187 4966 3546 4966 4192 
C 4966 4838 4211 5190 2931 5190 
z
M 2931 4794 
C 3878 4794 4422 4570 4422 4192 
C 4422 3802 3878 3590 2931 3590 
C 1990 3590 1446 3802 1446 4192 
C 1446 4570 1990 4794 2931 4794 
z
M 320 2797 
L 320 2368 
L 5549 2368 
L 5549 2797 
L 320 2797 
z
M 966 -19 
L 966 -435 
L 5050 -435 
L 5050 -19 
L 1485 -19 
L 1485 570 
L 4877 570 
L 4877 1875 
L 954 1875 
L 954 1472 
L 4358 1472 
L 4358 960 
L 966 960 
L 966 -19 
z
" transform="scale(0.015625)"/>
       <path id="NotoSansCJKjp-Regular-c218" d="M 2662 5088 
L 2662 4762 
C 2662 3942 1645 3245 589 3091 
L 800 2662 
C 1702 2810 2573 3309 2944 4013 
C 3315 3309 4179 2810 5082 2662 
L 5293 3091 
C 4243 3245 3213 3955 3213 4762 
L 3213 5088 
L 2662 5088 
z
M 320 2035 
L 320 1594 
L 2662 1594 
L 2662 -499 
L 3187 -499 
L 3187 1594 
L 5549 1594 
L 5549 2035 
L 320 2035 
z
" transform="scale(0.015625)"/>
       <path id="NotoSansCJKjp-Regular-b85d" d="M 902 1229 
L 902 800 
L 4390 800 
L 4390 -442 
L 4922 -442 
L 4922 1229 
L 902 1229 
z
M 992 3136 
L 992 2714 
L 2675 2714 
L 2675 2106 
L 314 2106 
L 314 1670 
L 5562 1670 
L 5562 2106 
L 3200 2106 
L 3200 2714 
L 5011 2714 
L 5011 3136 
L 1517 3136 
L 1517 3738 
L 4890 3738 
L 4890 5146 
L 979 5146 
L 979 4723 
L 4365 4723 
L 4365 4134 
L 992 4134 
L 992 3136 
z
" transform="scale(0.015625)"/>
       <path id="NotoSansCJKjp-Regular-c6b0" d="M 2925 5062 
C 1722 5062 902 4570 902 3789 
C 902 3014 1722 2522 2925 2522 
C 4134 2522 4954 3014 4954 3789 
C 4954 4570 4134 5062 2925 5062 
z
M 2925 4634 
C 3814 4634 4410 4301 4410 3789 
C 4410 3277 3814 2950 2925 2950 
C 2042 2950 1446 3277 1446 3789 
C 1446 4301 2042 4634 2925 4634 
z
M 314 1978 
L 314 1536 
L 2662 1536 
L 2662 -499 
L 3187 -499 
L 3187 1536 
L 5562 1536 
L 5562 1978 
L 314 1978 
z
" transform="scale(0.015625)"/>
      </defs>
      <use xlink:href="#NotoSansCJKjp-Regular-33"/>
      <use xlink:href="#NotoSansCJKjp-Regular-30" x="55.499985"/>
      <use xlink:href="#NotoSansCJKjp-Regular-cd08" x="110.999969"/>
      <use xlink:href="#NotoSansCJKjp-Regular-20" x="202.999954"/>
      <use xlink:href="#NotoSansCJKjp-Regular-ad6c" x="225.399948"/>
      <use xlink:href="#NotoSansCJKjp-Regular-ac04" x="317.399933"/>
      <use xlink:href="#NotoSansCJKjp-Regular-20" x="409.399918"/>
      <use xlink:href="#NotoSansCJKjp-Regular-57" x="431.799911"/>
      <use xlink:href="#NotoSansCJKjp-Regular-41" x="519.599899"/>
      <use xlink:href="#NotoSansCJKjp-Regular-46" x="580.399887"/>
      <use xlink:href="#NotoSansCJKjp-Regular-20" x="635.599884"/>
      <use xlink:href="#NotoSansCJKjp-Regular-28" x="657.999878"/>
      <use xlink:href="#NotoSansCJKjp-Regular-b0ae" x="691.799866"/>
      <use xlink:href="#NotoSansCJKjp-Regular-c744" x="783.79985"/>
      <use xlink:href="#NotoSansCJKjp-Regular-c218" x="875.799835"/>
      <use xlink:href="#NotoSansCJKjp-Regular-b85d" x="967.79982"/>
      <use xlink:href="#NotoSansCJKjp-Regular-20" x="1059.799805"/>
      <use xlink:href="#NotoSansCJKjp-Regular-c6b0" x="1082.199799"/>
      <use xlink:href="#NotoSansCJKjp-Regular-c218" x="1174.199783"/>
      <use xlink:href="#NotoSansCJKjp-Regular-29" x="1266.199768"/>
     </g>
    </g>
   </g>
   <g id="line2d_31">
    <path d="M 69.87857 147.384095 
L 86.649466 32.921218 
L 102.775327 225.223103 
M 168.246325 161.838089 
L 184.372187 186.983787 
L 201.143083 212.469579 
L 217.268945 212.108229 
L 233.394806 212.639626 
L 249.520668 212.448323 
L 265.646529 212.469579 
L 281.772391 212.554602 
L 297.898253 212.597114 
L 314.024114 212.342043 
L 330.149976 212.533346 
L 346.275837 212.469579 
L 362.401699 212.044461 
L 378.527561 213.85121 
L 394.653422 212.61837 
L 410.779284 214.148793 
L 426.905145 214.000002 
L 443.031007 214.21256 
L 459.479386 213.808699 
L 475.605247 213.95749 
L 491.731109 214.000002 
L 507.856971 213.447349 
L 523.982832 213.404837 
L 540.108694 214.106281 
L 556.234555 214.106281 
L 572.360417 214.21256 
L 588.486279 213.829955 
L 604.61214 213.511116 
L 620.738002 214.127537 
L 636.863863 214.127537 
" clip-path="url(#pfc24eb6b2e)" style="fill: none; stroke: #2a78d6; stroke-width: 1.6; stroke-linecap: round"/>
   </g>
   <g id="line2d_32">
    <path d="M 69.87857 180.522001 
L 86.649466 32.113494 
L 102.775327 223.076259 
L 119.223706 230.919677 
L 135.349568 235.085828 
L 152.120464 234.426896 
L 168.246325 234.830757 
L 184.372187 224.989288 
L 201.143083 144.47204 
L 217.268945 208.686033 
L 233.394806 208.367195 
L 249.520668 208.686033 
L 265.646529 208.749801 
L 281.772391 209.026127 
L 297.898253 208.983615 
L 314.024114 209.196174 
L 330.149976 209.047383 
L 346.275837 209.153662 
L 362.401699 208.983615 
L 378.527561 208.728545 
L 394.653422 209.281198 
L 410.779284 209.068639 
L 426.905145 209.047383 
L 443.031007 209.238686 
L 459.479386 209.153662 
L 475.605247 208.686033 
L 491.731109 209.344965 
L 507.856971 209.047383 
L 523.982832 209.026127 
L 540.108694 209.132407 
L 556.234555 209.068639 
L 572.360417 209.238686 
L 588.486279 209.153662 
L 604.61214 209.196174 
L 620.738002 209.068639 
L 636.863863 209.004871 
L 652.989725 209.004871 
L 669.115587 209.344965 
" clip-path="url(#pfc24eb6b2e)" style="fill: none; stroke: #3d3c39; stroke-width: 1.1; stroke-linecap: round"/>
   </g>
   <g id="line2d_33">
    <path d="M 69.87857 183.115218 
L 86.649466 53.518159 
L 102.775327 232.428844 
L 119.223706 235.277131 
L 135.349568 235.277131 
L 152.120464 235.213363 
L 168.246325 233.257823 
L 184.372187 143.451758 
L 201.143083 207.559472 
L 217.268945 207.113099 
L 233.394806 207.62324 
L 249.520668 207.601984 
L 265.646529 207.665751 
L 281.772391 207.559472 
L 297.898253 207.687007 
L 314.024114 207.538216 
L 330.149976 207.750775 
L 346.275837 207.814542 
L 362.401699 208.345939 
L 378.527561 207.899566 
L 394.653422 207.984589 
L 410.779284 207.708263 
L 426.905145 207.942078 
L 443.031007 208.345939 
L 459.479386 207.665751 
L 475.605247 207.857054 
L 491.731109 208.005845 
L 507.856971 207.920822 
L 523.982832 208.260916 
L 540.108694 208.048357 
L 556.234555 208.027101 
L 572.360417 208.005845 
L 588.486279 207.857054 
L 604.61214 207.87831 
L 620.738002 208.090869 
L 636.863863 207.942078 
L 652.989725 208.282172 
" clip-path="url(#pfc24eb6b2e)" style="fill: none; stroke: #a8a7a2; stroke-width: 1.1; stroke-linecap: round"/>
   </g>
   <g id="line2d_34">
    <path d="M 184.372187 245.435312 
L 184.372187 21.955312 
" clip-path="url(#pfc24eb6b2e)" style="fill: none; stroke-dasharray: 3.7,1.6; stroke-dashoffset: 0; stroke: #52514e"/>
   </g>
   <g id="patch_3">
    <path d="M 39.916719 245.435312 
L 39.916719 21.955312 
" style="fill: none; stroke: #52514e; stroke-width: 0.8; stroke-linejoin: miter; stroke-linecap: square"/>
   </g>
   <g id="patch_4">
    <path d="M 39.916719 245.435312 
L 699.077438 245.435312 
" style="fill: none; stroke: #52514e; stroke-width: 0.8; stroke-linejoin: miter; stroke-linecap: square"/>
   </g>
   <g id="text_18">
    <!--  구간 B -->
    <g style="fill: #52514e" transform="translate(184.372187 27.924844) scale(0.075 -0.075)">
     <defs>
      <path id="NotoSansCJKjp-Regular-42" d="M 646 0 
L 2138 0 
C 3187 0 3917 454 3917 1376 
C 3917 2016 3520 2387 2963 2496 
L 2963 2528 
C 3405 2669 3648 3078 3648 3546 
C 3648 4371 2982 4691 2035 4691 
L 646 4691 
L 646 0 
z
M 1235 2701 
L 1235 4224 
L 1958 4224 
C 2694 4224 3066 4019 3066 3469 
C 3066 2989 2739 2701 1933 2701 
L 1235 2701 
z
M 1235 474 
L 1235 2240 
L 2054 2240 
C 2880 2240 3334 1978 3334 1395 
C 3334 762 2861 474 2054 474 
L 1235 474 
z
" transform="scale(0.015625)"/>
     </defs>
     <use xlink:href="#NotoSansCJKjp-Regular-20"/>
     <use xlink:href="#NotoSansCJKjp-Regular-ad6c" x="22.399994"/>
     <use xlink:href="#NotoSansCJKjp-Regular-ac04" x="114.399979"/>
     <use xlink:href="#NotoSansCJKjp-Regular-20" x="206.399963"/>
     <use xlink:href="#NotoSansCJKjp-Regular-42" x="228.799957"/>
    </g>
   </g>
   <g id="text_19">
    <!-- YCSB-A→OLTP -->
    <g style="fill: #0b0b0b" transform="translate(39.916719 15.955312) scale(0.11 -0.11)">
     <defs>
      <path id="NotoSansCJKjp-Regular-59" d="M 1402 0 
L 1990 0 
L 1990 1818 
L 3405 4691 
L 2790 4691 
L 2189 3366 
C 2042 3021 1882 2688 1715 2336 
L 1690 2336 
C 1523 2688 1382 3021 1229 3366 
L 621 4691 
L -6 4691 
L 1402 1818 
L 1402 0 
z
" transform="scale(0.015625)"/>
      <path id="NotoSansCJKjp-Regular-43" d="M 2413 -83 
C 3021 -83 3482 160 3853 589 
L 3526 966 
C 3226 634 2886 435 2438 435 
C 1542 435 979 1178 979 2362 
C 979 3533 1574 4256 2458 4256 
C 2861 4256 3168 4077 3418 3814 
L 3738 4198 
C 3469 4499 3021 4774 2451 4774 
C 1261 4774 371 3859 371 2342 
C 371 819 1242 -83 2413 -83 
z
" transform="scale(0.015625)"/>
      <path id="NotoSansCJKjp-Regular-53" d="M 1946 -83 
C 2925 -83 3539 506 3539 1248 
C 3539 1946 3117 2266 2573 2502 
L 1907 2790 
C 1542 2944 1126 3117 1126 3578 
C 1126 3994 1472 4256 2003 4256 
C 2438 4256 2784 4090 3072 3821 
L 3379 4198 
C 3053 4538 2560 4774 2003 4774 
C 1152 4774 525 4256 525 3533 
C 525 2848 1043 2515 1478 2330 
L 2150 2035 
C 2598 1837 2938 1683 2938 1197 
C 2938 742 2573 435 1952 435 
C 1466 435 992 666 659 1018 
L 307 608 
C 710 186 1280 -83 1946 -83 
z
" transform="scale(0.015625)"/>
      <path id="NotoSansCJKjp-Regular-2d" d="M 294 1568 
L 1933 1568 
L 1933 2016 
L 294 2016 
L 294 1568 
z
" transform="scale(0.015625)"/>
      <path id="NotoSansCJKjp-Regular-2192" d="M 5190 2650 
L 256 2650 
L 256 2214 
L 5190 2214 
C 4864 1965 4442 1562 4154 1165 
L 4538 941 
C 4966 1504 5606 2067 6176 2432 
C 5606 2797 4966 3360 4538 3923 
L 4154 3699 
C 4442 3302 4864 2899 5190 2650 
z
" transform="scale(0.015625)"/>
      <path id="NotoSansCJKjp-Regular-4f" d="M 2374 -83 
C 3552 -83 4378 858 4378 2362 
C 4378 3866 3552 4774 2374 4774 
C 1197 4774 371 3866 371 2362 
C 371 858 1197 -83 2374 -83 
z
M 2374 435 
C 1530 435 979 1190 979 2362 
C 979 3533 1530 4256 2374 4256 
C 3219 4256 3770 3533 3770 2362 
C 3770 1190 3219 435 2374 435 
z
" transform="scale(0.015625)"/>
      <path id="NotoSansCJKjp-Regular-4c" d="M 646 0 
L 3290 0 
L 3290 506 
L 1235 506 
L 1235 4691 
L 646 4691 
L 646 0 
z
" transform="scale(0.015625)"/>
      <path id="NotoSansCJKjp-Regular-54" d="M 1619 0 
L 2214 0 
L 2214 4192 
L 3635 4192 
L 3635 4691 
L 198 4691 
L 198 4192 
L 1619 4192 
L 1619 0 
z
" transform="scale(0.015625)"/>
      <path id="NotoSansCJKjp-Regular-50" d="M 646 0 
L 1235 0 
L 1235 1869 
L 2010 1869 
C 3040 1869 3738 2323 3738 3315 
C 3738 4339 3034 4691 1984 4691 
L 646 4691 
L 646 0 
z
M 1235 2349 
L 1235 4211 
L 1907 4211 
C 2733 4211 3149 4000 3149 3315 
C 3149 2643 2758 2349 1933 2349 
L 1235 2349 
z
" transform="scale(0.015625)"/>
     </defs>
     <use xlink:href="#NotoSansCJKjp-Regular-59"/>
     <use xlink:href="#NotoSansCJKjp-Regular-43" x="53.099991"/>
     <use xlink:href="#NotoSansCJKjp-Regular-53" x="116.899979"/>
     <use xlink:href="#NotoSansCJKjp-Regular-42" x="176.499969"/>
     <use xlink:href="#NotoSansCJKjp-Regular-2d" x="242.199966"/>
     <use xlink:href="#NotoSansCJKjp-Regular-41" x="276.899963"/>
     <use xlink:href="#NotoSansCJKjp-Regular-2192" x="337.699951"/>
     <use xlink:href="#NotoSansCJKjp-Regular-4f" x="437.699936"/>
     <use xlink:href="#NotoSansCJKjp-Regular-4c" x="511.899918"/>
     <use xlink:href="#NotoSansCJKjp-Regular-54" x="566.199905"/>
     <use xlink:href="#NotoSansCJKjp-Regular-50" x="626.099899"/>
    </g>
   </g>
   <g id="legend_1">
    <g id="line2d_35">
     <path d="M 47.566719 33.395781 
L 56.066719 33.395781 
L 64.566719 33.395781 
" style="fill: none; stroke: #2a78d6; stroke-width: 1.6; stroke-linecap: round"/>
    </g>
    <g id="text_20">
     <!-- iCAT-v4  (누적 1.122) -->
     <g transform="translate(71.366719 36.370781) scale(0.085 -0.085)">
      <defs>
       <path id="NotoSansCJKjp-Regular-69" d="M 589 0 
L 1178 0 
L 1178 3475 
L 589 3475 
L 589 0 
z
M 883 4192 
C 1114 4192 1274 4346 1274 4582 
C 1274 4806 1114 4960 883 4960 
C 653 4960 499 4806 499 4582 
C 499 4346 653 4192 883 4192 
z
" transform="scale(0.015625)"/>
       <path id="NotoSansCJKjp-Regular-76" d="M 1338 0 
L 2022 0 
L 3251 3475 
L 2675 3475 
L 2016 1498 
C 1914 1158 1798 806 1696 474 
L 1664 474 
C 1562 806 1453 1158 1344 1498 
L 691 3475 
L 83 3475 
L 1338 0 
z
" transform="scale(0.015625)"/>
       <path id="NotoSansCJKjp-Regular-b204" d="M 992 4998 
L 992 2912 
L 4960 2912 
L 4960 3347 
L 1523 3347 
L 1523 4998 
L 992 4998 
z
M 320 2048 
L 320 1606 
L 2656 1606 
L 2656 -499 
L 3187 -499 
L 3187 1606 
L 5568 1606 
L 5568 2048 
L 320 2048 
z
" transform="scale(0.015625)"/>
       <path id="NotoSansCJKjp-Regular-c801" d="M 1216 1517 
L 1216 1082 
L 4550 1082 
L 4550 -499 
L 5082 -499 
L 5082 1517 
L 1216 1517 
z
M 506 4896 
L 506 4461 
L 1792 4461 
L 1792 4230 
C 1792 3418 1197 2643 339 2342 
L 614 1920 
C 1299 2170 1824 2701 2074 3360 
C 2317 2765 2816 2285 3462 2054 
L 3731 2470 
C 2893 2765 2330 3488 2330 4237 
L 2330 4461 
L 3597 4461 
L 3597 4896 
L 506 4896 
z
M 4550 5293 
L 4550 3782 
L 3418 3782 
L 3418 3341 
L 4550 3341 
L 4550 1830 
L 5082 1830 
L 5082 5293 
L 4550 5293 
z
" transform="scale(0.015625)"/>
      </defs>
      <use xlink:href="#NotoSansCJKjp-Regular-69"/>
      <use xlink:href="#NotoSansCJKjp-Regular-43" x="27.499985"/>
      <use xlink:href="#NotoSansCJKjp-Regular-41" x="91.299973"/>
      <use xlink:href="#NotoSansCJKjp-Regular-54" x="152.09996"/>
      <use xlink:href="#NotoSansCJKjp-Regular-2d" x="211.999954"/>
      <use xlink:href="#NotoSansCJKjp-Regular-76" x="246.699951"/>
      <use xlink:href="#NotoSansCJKjp-Regular-34" x="298.799942"/>
      <use xlink:href="#NotoSansCJKjp-Regular-20" x="354.299927"/>
      <use xlink:href="#NotoSansCJKjp-Regular-20" x="376.699921"/>
      <use xlink:href="#NotoSansCJKjp-Regular-28" x="399.099915"/>
      <use xlink:href="#NotoSansCJKjp-Regular-b204" x="432.899902"/>
      <use xlink:href="#NotoSansCJKjp-Regular-c801" x="524.899887"/>
      <use xlink:href="#NotoSansCJKjp-Regular-20" x="616.899872"/>
      <use xlink:href="#NotoSansCJKjp-Regular-31" x="639.299866"/>
      <use xlink:href="#NotoSansCJKjp-Regular-2e" x="694.79985"/>
      <use xlink:href="#NotoSansCJKjp-Regular-31" x="722.599838"/>
      <use xlink:href="#NotoSansCJKjp-Regular-32" x="778.099823"/>
      <use xlink:href="#NotoSansCJKjp-Regular-32" x="833.599808"/>
      <use xlink:href="#NotoSansCJKjp-Regular-29" x="889.099792"/>
     </g>
    </g>
    <g id="line2d_36">
     <path d="M 47.566719 46.358281 
L 56.066719 46.358281 
L 64.566719 46.358281 
" style="fill: none; stroke: #3d3c39; stroke-width: 1.1; stroke-linecap: round"/>
    </g>
    <g id="text_21">
     <!-- CAT-47  (누적 1.136) -->
     <g transform="translate(71.366719 49.333281) scale(0.085 -0.085)">
      <use xlink:href="#NotoSansCJKjp-Regular-43"/>
      <use xlink:href="#NotoSansCJKjp-Regular-41" x="63.799988"/>
      <use xlink:href="#NotoSansCJKjp-Regular-54" x="124.599976"/>
      <use xlink:href="#NotoSansCJKjp-Regular-2d" x="184.499969"/>
      <use xlink:href="#NotoSansCJKjp-Regular-34" x="219.199966"/>
      <use xlink:href="#NotoSansCJKjp-Regular-37" x="274.699951"/>
      <use xlink:href="#NotoSansCJKjp-Regular-20" x="330.199936"/>
      <use xlink:href="#NotoSansCJKjp-Regular-20" x="352.59993"/>
      <use xlink:href="#NotoSansCJKjp-Regular-28" x="374.999924"/>
      <use xlink:href="#NotoSansCJKjp-Regular-b204" x="408.799911"/>
      <use xlink:href="#NotoSansCJKjp-Regular-c801" x="500.799896"/>
      <use xlink:href="#NotoSansCJKjp-Regular-20" x="592.799881"/>
      <use xlink:href="#NotoSansCJKjp-Regular-31" x="615.199875"/>
      <use xlink:href="#NotoSansCJKjp-Regular-2e" x="670.69986"/>
      <use xlink:href="#NotoSansCJKjp-Regular-31" x="698.499847"/>
      <use xlink:href="#NotoSansCJKjp-Regular-33" x="753.999832"/>
      <use xlink:href="#NotoSansCJKjp-Regular-36" x="809.499817"/>
      <use xlink:href="#NotoSansCJKjp-Regular-29" x="864.999802"/>
     </g>
    </g>
    <g id="line2d_37">
     <path d="M 47.566719 59.320781 
L 56.066719 59.320781 
L 64.566719 59.320781 
" style="fill: none; stroke: #a8a7a2; stroke-width: 1.1; stroke-linecap: round"/>
    </g>
    <g id="text_22">
     <!-- CAT-50  (누적 1.141) -->
     <g transform="translate(71.366719 62.295781) scale(0.085 -0.085)">
      <use xlink:href="#NotoSansCJKjp-Regular-43"/>
      <use xlink:href="#NotoSansCJKjp-Regular-41" x="63.799988"/>
      <use xlink:href="#NotoSansCJKjp-Regular-54" x="124.599976"/>
      <use xlink:href="#NotoSansCJKjp-Regular-2d" x="184.499969"/>
      <use xlink:href="#NotoSansCJKjp-Regular-35" x="219.199966"/>
      <use xlink:href="#NotoSansCJKjp-Regular-30" x="274.699951"/>
      <use xlink:href="#NotoSansCJKjp-Regular-20" x="330.199936"/>
      <use xlink:href="#NotoSansCJKjp-Regular-20" x="352.59993"/>
      <use xlink:href="#NotoSansCJKjp-Regular-28" x="374.999924"/>
      <use xlink:href="#NotoSansCJKjp-Regular-b204" x="408.799911"/>
      <use xlink:href="#NotoSansCJKjp-Regular-c801" x="500.799896"/>
      <use xlink:href="#NotoSansCJKjp-Regular-20" x="592.799881"/>
      <use xlink:href="#NotoSansCJKjp-Regular-31" x="615.199875"/>
      <use xlink:href="#NotoSansCJKjp-Regular-2e" x="670.69986"/>
      <use xlink:href="#NotoSansCJKjp-Regular-31" x="698.499847"/>
      <use xlink:href="#NotoSansCJKjp-Regular-34" x="753.999832"/>
      <use xlink:href="#NotoSansCJKjp-Regular-31" x="809.499817"/>
      <use xlink:href="#NotoSansCJKjp-Regular-29" x="864.999802"/>
     </g>
    </g>
   </g>
  </g>
 </g>
 <defs>
  <clipPath id="pfc24eb6b2e">
   <rect x="39.916719" y="21.955312" width="659.160719" height="223.48"/>
  </clipPath>
 </defs>
</svg>
