<?xml version="1.0" encoding="utf-8" standalone="no"?>
<!DOCTYPE svg PUBLIC "-//W3C//DTD SVG 1.1//EN"
  "http://www.w3.org/Graphics/SVG/1.1/DTD/svg11.dtd">
<svg xmlns:xlink="http://www.w3.org/1999/xlink" width="521.220952pt" height="283.363312pt" viewBox="0 0 521.220952 283.363312" xmlns="http://www.w3.org/2000/svg" version="1.1">
 <metadata>
  <rdf:RDF xmlns:dc="http://purl.org/dc/elements/1.1/" xmlns:cc="http://creativecommons.org/ns#" xmlns:rdf="http://www.w3.org/1999/02/22-rdf-syntax-ns#">
   <cc:Work>
    <dc:type rdf:resource="http://purl.org/dc/dcmitype/StillImage"/>
    <dc:date>2026-10-02T21:11:10.677928</dc:date>
    <dc:format>image/svg+xml</dc:format>
    <dc:creator>
     <cc:Agent>
      <dc:title>Matplotlib v3.6.3, https://matplotlib.org/</dc:title>
     </cc:Agent>
    </dc:creator>
   </cc:Work>
  </rdf:RDF>
 </metadata>
 <defs>
  <style type="text/css">*{stroke-linejoin: round; stroke-linecap: butt}</style>
 </defs>
 <g id="figure_1">
  <g id="patch_1">
   <path d="M 0 283.363312 
L 521.220952 283.363312 
L 521.220952 -0 
L 0 -0 
z
" style="fill: #fcfcfb"/>
  </g>
  <g id="axes_1">
   <g id="patch_2">
    <path d="M 47.879688 244.663312 
L 494.279687 244.663312 
L 494.279687 33.991312 
L 47.879688 33.991312 
z
" style="fill: #fcfcfb"/>
   </g>
   <g id="matplotlib.axis_1">
    <g id="xtick_1">
     <g id="line2d_1">
      <path d="M 47.879688 244.663312 
L 47.879688 33.991312 
" clip-path="url(#p8908397235)" style="fill: none; stroke: #e4e3df; stroke-width: 0.8; stroke-linecap: square"/>
     </g>
     <g id="line2d_2">
      <defs>
       <path id="me56dac7bc2" d="M 0 0 
L 0 3.5 
" style="stroke: #52514e; stroke-width: 0.8"/>
      </defs>
      <g>
       <use xlink:href="#me56dac7bc2" x="47.879688" y="244.663312" style="fill: #52514e; stroke: #52514e; stroke-width: 0.8"/>
      </g>
     </g>
     <g id="text_1">
      <!-- 0 -->
      <g style="fill: #52514e" transform="translate(45.104688 259.622687) scale(0.1 -0.1)">
       <defs>
        <path id="NotoSansCJKjp-Regular-30" d="M 1779 -83 
C 2669 -83 3238 723 3238 2362 
C 3238 3987 2669 4774 1779 4774 
C 883 4774 320 3987 320 2362 
C 320 723 883 -83 1779 -83 
z
M 1779 390 
C 1248 390 883 986 883 2362 
C 883 3731 1248 4314 1779 4314 
C 2310 4314 2675 3731 2675 2362 
C 2675 986 2310 390 1779 390 
z
" transform="scale(0.015625)"/>
       </defs>
       <use xlink:href="#NotoSansCJKjp-Regular-30"/>
      </g>
     </g>
    </g>
    <g id="xtick_2">
     <g id="line2d_3">
      <path d="M 129.043324 244.663312 
L 129.043324 33.991312 
" clip-path="url(#p8908397235)" style="fill: none; stroke: #e4e3df; stroke-width: 0.8; stroke-linecap: square"/>
     </g>
     <g id="line2d_4">
      <g>
       <use xlink:href="#me56dac7bc2" x="129.043324" y="244.663312" style="fill: #52514e; stroke: #52514e; stroke-width: 0.8"/>
      </g>
     </g>
     <g id="text_2">
      <!-- 2 -->
      <g style="fill: #52514e" transform="translate(126.268324 259.622687) scale(0.1 -0.1)">
       <defs>
        <path id="NotoSansCJKjp-Regular-32" d="M 282 0 
L 3232 0 
L 3232 506 
L 1933 506 
C 1696 506 1408 480 1165 461 
C 2266 1504 3008 2458 3008 3398 
C 3008 4230 2477 4774 1638 4774 
C 1043 4774 634 4506 256 4090 
L 595 3757 
C 858 4070 1184 4301 1568 4301 
C 2150 4301 2432 3910 2432 3373 
C 2432 2566 1754 1632 282 346 
L 282 0 
z
" transform="scale(0.015625)"/>
       </defs>
       <use xlink:href="#NotoSansCJKjp-Regular-32"/>
      </g>
     </g>
    </g>
    <g id="xtick_3">
     <g id="line2d_5">
      <path d="M 210.20696 244.663312 
L 210.20696 33.991312 
" clip-path="url(#p8908397235)" style="fill: none; stroke: #e4e3df; stroke-width: 0.8; stroke-linecap: square"/>
     </g>
     <g id="line2d_6">
      <g>
       <use xlink:href="#me56dac7bc2" x="210.20696" y="244.663312" style="fill: #52514e; stroke: #52514e; stroke-width: 0.8"/>
      </g>
     </g>
     <g id="text_3">
      <!-- 4 -->
      <g style="fill: #52514e" transform="translate(207.43196 259.622687) scale(0.1 -0.1)">
       <defs>
        <path id="NotoSansCJKjp-Regular-34" d="M 2176 0 
L 2726 0 
L 2726 1293 
L 3354 1293 
L 3354 1760 
L 2726 1760 
L 2726 4691 
L 2080 4691 
L 128 1677 
L 128 1293 
L 2176 1293 
L 2176 0 
z
M 2176 1760 
L 736 1760 
L 1805 3360 
C 1939 3590 2067 3827 2182 4051 
L 2208 4051 
C 2195 3814 2176 3430 2176 3200 
L 2176 1760 
z
" transform="scale(0.015625)"/>
       </defs>
       <use xlink:href="#NotoSansCJKjp-Regular-34"/>
      </g>
     </g>
    </g>
    <g id="xtick_4">
     <g id="line2d_7">
      <path d="M 291.370597 244.663312 
L 291.370597 33.991312 
" clip-path="url(#p8908397235)" style="fill: none; stroke: #e4e3df; stroke-width: 0.8; stroke-linecap: square"/>
     </g>
     <g id="line2d_8">
      <g>
       <use xlink:href="#me56dac7bc2" x="291.370597" y="244.663312" style="fill: #52514e; stroke: #52514e; stroke-width: 0.8"/>
      </g>
     </g>
     <g id="text_4">
      <!-- 6 -->
      <g style="fill: #52514e" transform="translate(288.595597 259.622687) scale(0.1 -0.1)">
       <defs>
        <path id="NotoSansCJKjp-Regular-36" d="M 1926 -83 
C 2656 -83 3277 531 3277 1440 
C 3277 2426 2765 2912 1971 2912 
C 1606 2912 1197 2701 909 2349 
C 934 3802 1466 4294 2118 4294 
C 2400 4294 2682 4154 2861 3936 
L 3194 4294 
C 2931 4576 2579 4774 2093 4774 
C 1184 4774 358 4077 358 2240 
C 358 691 1030 -83 1926 -83 
z
M 922 1882 
C 1229 2317 1587 2477 1875 2477 
C 2445 2477 2720 2074 2720 1440 
C 2720 800 2374 378 1926 378 
C 1338 378 986 909 922 1882 
z
" transform="scale(0.015625)"/>
       </defs>
       <use xlink:href="#NotoSansCJKjp-Regular-36"/>
      </g>
     </g>
    </g>
    <g id="xtick_5">
     <g id="line2d_9">
      <path d="M 372.534233 244.663312 
L 372.534233 33.991312 
" clip-path="url(#p8908397235)" style="fill: none; stroke: #e4e3df; stroke-width: 0.8; stroke-linecap: square"/>
     </g>
     <g id="line2d_10">
      <g>
       <use xlink:href="#me56dac7bc2" x="372.534233" y="244.663312" style="fill: #52514e; stroke: #52514e; stroke-width: 0.8"/>
      </g>
     </g>
     <g id="text_5">
      <!-- 8 -->
      <g style="fill: #52514e" transform="translate(369.759233 259.622687) scale(0.1 -0.1)">
       <defs>
        <path id="NotoSansCJKjp-Regular-38" d="M 1792 -83 
C 2669 -83 3258 448 3258 1126 
C 3258 1773 2880 2125 2470 2362 
L 2470 2394 
C 2746 2611 3091 3034 3091 3526 
C 3091 4250 2605 4762 1805 4762 
C 1075 4762 518 4282 518 3571 
C 518 3078 813 2726 1152 2490 
L 1152 2464 
C 723 2234 294 1792 294 1165 
C 294 442 922 -83 1792 -83 
z
M 2112 2547 
C 1555 2765 1050 3014 1050 3571 
C 1050 4026 1363 4326 1798 4326 
C 2298 4326 2592 3962 2592 3494 
C 2592 3149 2426 2829 2112 2547 
z
M 1798 352 
C 1235 352 813 717 813 1216 
C 813 1664 1082 2035 1459 2278 
C 2125 2010 2701 1779 2701 1146 
C 2701 678 2342 352 1798 352 
z
" transform="scale(0.015625)"/>
       </defs>
       <use xlink:href="#NotoSansCJKjp-Regular-38"/>
      </g>
     </g>
    </g>
    <g id="xtick_6">
     <g id="line2d_11">
      <path d="M 453.697869 244.663312 
L 453.697869 33.991312 
" clip-path="url(#p8908397235)" style="fill: none; stroke: #e4e3df; stroke-width: 0.8; stroke-linecap: square"/>
     </g>
     <g id="line2d_12">
      <g>
       <use xlink:href="#me56dac7bc2" x="453.697869" y="244.663312" style="fill: #52514e; stroke: #52514e; stroke-width: 0.8"/>
      </g>
     </g>
     <g id="text_6">
      <!-- 10 -->
      <g style="fill: #52514e" transform="translate(448.147869 259.622687) scale(0.1 -0.1)">
       <defs>
        <path id="NotoSansCJKjp-Regular-31" d="M 563 0 
L 3136 0 
L 3136 486 
L 2195 486 
L 2195 4691 
L 1747 4691 
C 1491 4544 1190 4435 774 4358 
L 774 3987 
L 1613 3987 
L 1613 486 
L 563 486 
L 563 0 
z
" transform="scale(0.015625)"/>
       </defs>
       <use xlink:href="#NotoSansCJKjp-Regular-31"/>
       <use xlink:href="#NotoSansCJKjp-Regular-30" x="55.499985"/>
      </g>
     </g>
    </g>
    <g id="text_7">
     <!-- 실행 시간 (h) -->
     <g style="fill: #52514e" transform="translate(244.024219 273.872687) scale(0.1 -0.1)">
      <defs>
       <path id="NotoSansCJKjp-Regular-c2e4" d="M 4531 5293 
L 4531 2298 
L 5056 2298 
L 5056 5293 
L 4531 5293 
z
M 1338 -6 
L 1338 -435 
L 5261 -435 
L 5261 -6 
L 1850 -6 
L 1850 608 
L 5062 608 
L 5062 2003 
L 1318 2003 
L 1318 1581 
L 4538 1581 
L 4538 1011 
L 1338 1011 
L 1338 -6 
z
M 1824 5126 
L 1824 4685 
C 1824 3846 1229 3072 358 2771 
L 627 2349 
C 1312 2598 1843 3123 2099 3782 
C 2362 3168 2886 2688 3558 2458 
L 3821 2874 
C 2963 3155 2362 3878 2362 4685 
L 2362 5126 
L 1824 5126 
z
" transform="scale(0.015625)"/>
       <path id="NotoSansCJKjp-Regular-d589" d="M 1760 3878 
C 1037 3878 531 3488 531 2886 
C 531 2285 1037 1901 1760 1901 
C 2490 1901 2995 2285 2995 2886 
C 2995 3488 2490 3878 1760 3878 
z
M 1760 3482 
C 2208 3482 2515 3245 2515 2886 
C 2515 2528 2208 2291 1760 2291 
C 1312 2291 1005 2528 1005 2886 
C 1005 3245 1312 3482 1760 3482 
z
M 3296 1530 
C 2086 1530 1363 1165 1363 518 
C 1363 -122 2086 -486 3296 -486 
C 4506 -486 5229 -122 5229 518 
C 5229 1165 4506 1530 3296 1530 
z
M 3296 1120 
C 4179 1120 4698 909 4698 518 
C 4698 141 4179 -77 3296 -77 
C 2413 -77 1888 141 1888 518 
C 1888 909 2413 1120 3296 1120 
z
M 3450 5178 
L 3450 1837 
L 3949 1837 
L 3949 3283 
L 4691 3283 
L 4691 1632 
L 5197 1632 
L 5197 5293 
L 4691 5293 
L 4691 3718 
L 3949 3718 
L 3949 5178 
L 3450 5178 
z
M 1498 5248 
L 1498 4602 
L 288 4602 
L 288 4179 
L 3219 4179 
L 3219 4602 
L 2022 4602 
L 2022 5248 
L 1498 5248 
z
" transform="scale(0.015625)"/>
       <path id="NotoSansCJKjp-Regular-20" transform="scale(0.015625)"/>
       <path id="NotoSansCJKjp-Regular-c2dc" d="M 4525 5293 
L 4525 -506 
L 5056 -506 
L 5056 5293 
L 4525 5293 
z
M 1843 4794 
L 1843 3757 
C 1843 2656 1152 1549 288 1146 
L 614 704 
C 1293 1043 1850 1773 2118 2643 
C 2387 1818 2944 1139 3597 819 
L 3917 1242 
C 3066 1632 2374 2701 2374 3757 
L 2374 4794 
L 1843 4794 
z
" transform="scale(0.015625)"/>
       <path id="NotoSansCJKjp-Regular-ac04" d="M 4275 5293 
L 4275 1062 
L 4813 1062 
L 4813 3091 
L 5664 3091 
L 5664 3539 
L 4813 3539 
L 4813 5293 
L 4275 5293 
z
M 563 4845 
L 563 4403 
L 2682 4403 
C 2579 3392 1696 2579 326 2150 
L 550 1722 
C 2214 2246 3258 3347 3258 4845 
L 563 4845 
z
M 1203 1491 
L 1203 -371 
L 5062 -371 
L 5062 64 
L 1734 64 
L 1734 1491 
L 1203 1491 
z
" transform="scale(0.015625)"/>
       <path id="NotoSansCJKjp-Regular-28" d="M 1530 -1254 
L 1888 -1094 
C 1338 -186 1075 902 1075 1990 
C 1075 3072 1338 4154 1888 5069 
L 1530 5235 
C 941 4275 589 3245 589 1990 
C 589 730 941 -301 1530 -1254 
z
" transform="scale(0.015625)"/>
       <path id="NotoSansCJKjp-Regular-68" d="M 589 0 
L 1178 0 
L 1178 2522 
C 1523 2874 1766 3053 2125 3053 
C 2586 3053 2784 2778 2784 2125 
L 2784 0 
L 3366 0 
L 3366 2202 
C 3366 3085 3034 3565 2304 3565 
C 1830 3565 1472 3302 1152 2982 
L 1178 3699 
L 1178 5094 
L 589 5094 
L 589 0 
z
" transform="scale(0.015625)"/>
       <path id="NotoSansCJKjp-Regular-29" d="M 634 -1254 
C 1222 -301 1574 730 1574 1990 
C 1574 3245 1222 4275 634 5235 
L 269 5069 
C 819 4154 1094 3072 1094 1990 
C 1094 902 819 -186 269 -1094 
L 634 -1254 
z
" transform="scale(0.015625)"/>
      </defs>
      <use xlink:href="#NotoSansCJKjp-Regular-c2e4"/>
      <use xlink:href="#NotoSansCJKjp-Regular-d589" x="91.999985"/>
      <use xlink:href="#NotoSansCJKjp-Regular-20" x="183.999969"/>
      <use xlink:href="#NotoSansCJKjp-Regular-c2dc" x="206.399963"/>
      <use xlink:href="#NotoSansCJKjp-Regular-ac04" x="298.399948"/>
      <use xlink:href="#NotoSansCJKjp-Regular-20" x="390.399933"/>
      <use xlink:href="#NotoSansCJKjp-Regular-28" x="412.799927"/>
      <use xlink:href="#NotoSansCJKjp-Regular-68" x="446.599915"/>
      <use xlink:href="#NotoSansCJKjp-Regular-29" x="507.299911"/>
     </g>
    </g>
   </g>
   <g id="matplotlib.axis_2">
    <g id="ytick_1">
     <g id="line2d_13">
      <path d="M 47.879688 239.119312 
L 494.279687 239.119312 
" clip-path="url(#p8908397235)" style="fill: none; stroke: #e4e3df; stroke-width: 0.8; stroke-linecap: square"/>
     </g>
     <g id="line2d_14">
      <defs>
       <path id="m7b8136a8d9" d="M 0 0 
L -3.5 0 
" style="stroke: #52514e; stroke-width: 0.8"/>
      </defs>
      <g>
       <use xlink:href="#m7b8136a8d9" x="47.879688" y="239.119312" style="fill: #52514e; stroke: #52514e; stroke-width: 0.8"/>
      </g>
     </g>
     <g id="text_8">
      <!-- 1.75 -->
      <g style="fill: #52514e" transform="translate(21.45 243.099) scale(0.1 -0.1)">
       <defs>
        <path id="NotoSansCJKjp-Regular-2e" d="M 890 -83 
C 1120 -83 1312 96 1312 358 
C 1312 627 1120 806 890 806 
C 653 806 467 627 467 358 
C 467 96 653 -83 890 -83 
z
" transform="scale(0.015625)"/>
        <path id="NotoSansCJKjp-Regular-37" d="M 1267 0 
L 1875 0 
C 1952 1837 2150 2931 3251 4339 
L 3251 4691 
L 314 4691 
L 314 4192 
L 2592 4192 
C 1670 2912 1350 1779 1267 0 
z
" transform="scale(0.015625)"/>
        <path id="NotoSansCJKjp-Regular-35" d="M 1677 -83 
C 2464 -83 3213 499 3213 1523 
C 3213 2560 2573 3021 1798 3021 
C 1517 3021 1306 2950 1094 2835 
L 1216 4192 
L 2982 4192 
L 2982 4691 
L 704 4691 
L 550 2502 
L 864 2304 
C 1133 2483 1331 2579 1645 2579 
C 2234 2579 2618 2182 2618 1510 
C 2618 826 2176 403 1619 403 
C 1075 403 730 653 467 922 
L 173 538 
C 493 224 941 -83 1677 -83 
z
" transform="scale(0.015625)"/>
       </defs>
       <use xlink:href="#NotoSansCJKjp-Regular-31"/>
       <use xlink:href="#NotoSansCJKjp-Regular-2e" x="55.499985"/>
       <use xlink:href="#NotoSansCJKjp-Regular-37" x="83.299973"/>
       <use xlink:href="#NotoSansCJKjp-Regular-35" x="138.799957"/>
      </g>
     </g>
    </g>
    <g id="ytick_2">
     <g id="line2d_15">
      <path d="M 47.879688 211.399312 
L 494.279687 211.399312 
" clip-path="url(#p8908397235)" style="fill: none; stroke: #e4e3df; stroke-width: 0.8; stroke-linecap: square"/>
     </g>
     <g id="line2d_16">
      <g>
       <use xlink:href="#m7b8136a8d9" x="47.879688" y="211.399312" style="fill: #52514e; stroke: #52514e; stroke-width: 0.8"/>
      </g>
     </g>
     <g id="text_9">
      <!-- 1.80 -->
      <g style="fill: #52514e" transform="translate(21.45 215.379) scale(0.1 -0.1)">
       <use xlink:href="#NotoSansCJKjp-Regular-31"/>
       <use xlink:href="#NotoSansCJKjp-Regular-2e" x="55.499985"/>
       <use xlink:href="#NotoSansCJKjp-Regular-38" x="83.299973"/>
       <use xlink:href="#NotoSansCJKjp-Regular-30" x="138.799957"/>
      </g>
     </g>
    </g>
    <g id="ytick_3">
     <g id="line2d_17">
      <path d="M 47.879688 183.679312 
L 494.279687 183.679312 
" clip-path="url(#p8908397235)" style="fill: none; stroke: #e4e3df; stroke-width: 0.8; stroke-linecap: square"/>
     </g>
     <g id="line2d_18">
      <g>
       <use xlink:href="#m7b8136a8d9" x="47.879688" y="183.679312" style="fill: #52514e; stroke: #52514e; stroke-width: 0.8"/>
      </g>
     </g>
     <g id="text_10">
      <!-- 1.85 -->
      <g style="fill: #52514e" transform="translate(21.45 187.659) scale(0.1 -0.1)">
       <use xlink:href="#NotoSansCJKjp-Regular-31"/>
       <use xlink:href="#NotoSansCJKjp-Regular-2e" x="55.499985"/>
       <use xlink:href="#NotoSansCJKjp-Regular-38" x="83.299973"/>
       <use xlink:href="#NotoSansCJKjp-Regular-35" x="138.799957"/>
      </g>
     </g>
    </g>
    <g id="ytick_4">
     <g id="line2d_19">
      <path d="M 47.879688 155.959312 
L 494.279687 155.959312 
" clip-path="url(#p8908397235)" style="fill: none; stroke: #e4e3df; stroke-width: 0.8; stroke-linecap: square"/>
     </g>
     <g id="line2d_20">
      <g>
       <use xlink:href="#m7b8136a8d9" x="47.879688" y="155.959312" style="fill: #52514e; stroke: #52514e; stroke-width: 0.8"/>
      </g>
     </g>
     <g id="text_11">
      <!-- 1.90 -->
      <g style="fill: #52514e" transform="translate(21.45 159.939) scale(0.1 -0.1)">
       <defs>
        <path id="NotoSansCJKjp-Regular-39" d="M 1504 -83 
C 2381 -83 3206 646 3206 2547 
C 3206 4038 2528 4774 1626 4774 
C 896 4774 282 4166 282 3251 
C 282 2285 794 1779 1574 1779 
C 1965 1779 2368 2003 2656 2349 
C 2611 896 2086 403 1485 403 
C 1178 403 896 538 691 762 
L 371 397 
C 634 122 992 -83 1504 -83 
z
M 2650 2842 
C 2336 2394 1984 2214 1670 2214 
C 1114 2214 832 2624 832 3251 
C 832 3898 1178 4320 1632 4320 
C 2227 4320 2586 3808 2650 2842 
z
" transform="scale(0.015625)"/>
       </defs>
       <use xlink:href="#NotoSansCJKjp-Regular-31"/>
       <use xlink:href="#NotoSansCJKjp-Regular-2e" x="55.499985"/>
       <use xlink:href="#NotoSansCJKjp-Regular-39" x="83.299973"/>
       <use xlink:href="#NotoSansCJKjp-Regular-30" x="138.799957"/>
      </g>
     </g>
    </g>
    <g id="ytick_5">
     <g id="line2d_21">
      <path d="M 47.879688 128.239312 
L 494.279687 128.239312 
" clip-path="url(#p8908397235)" style="fill: none; stroke: #e4e3df; stroke-width: 0.8; stroke-linecap: square"/>
     </g>
     <g id="line2d_22">
      <g>
       <use xlink:href="#m7b8136a8d9" x="47.879688" y="128.239312" style="fill: #52514e; stroke: #52514e; stroke-width: 0.8"/>
      </g>
     </g>
     <g id="text_12">
      <!-- 1.95 -->
      <g style="fill: #52514e" transform="translate(21.45 132.219) scale(0.1 -0.1)">
       <use xlink:href="#NotoSansCJKjp-Regular-31"/>
       <use xlink:href="#NotoSansCJKjp-Regular-2e" x="55.499985"/>
       <use xlink:href="#NotoSansCJKjp-Regular-39" x="83.299973"/>
       <use xlink:href="#NotoSansCJKjp-Regular-35" x="138.799957"/>
      </g>
     </g>
    </g>
    <g id="ytick_6">
     <g id="line2d_23">
      <path d="M 47.879688 100.519313 
L 494.279687 100.519313 
" clip-path="url(#p8908397235)" style="fill: none; stroke: #e4e3df; stroke-width: 0.8; stroke-linecap: square"/>
     </g>
     <g id="line2d_24">
      <g>
       <use xlink:href="#m7b8136a8d9" x="47.879688" y="100.519313" style="fill: #52514e; stroke: #52514e; stroke-width: 0.8"/>
      </g>
     </g>
     <g id="text_13">
      <!-- 2.00 -->
      <g style="fill: #52514e" transform="translate(21.45 104.499) scale(0.1 -0.1)">
       <use xlink:href="#NotoSansCJKjp-Regular-32"/>
       <use xlink:href="#NotoSansCJKjp-Regular-2e" x="55.499985"/>
       <use xlink:href="#NotoSansCJKjp-Regular-30" x="83.299973"/>
       <use xlink:href="#NotoSansCJKjp-Regular-30" x="138.799957"/>
      </g>
     </g>
    </g>
    <g id="ytick_7">
     <g id="line2d_25">
      <path d="M 47.879688 72.799313 
L 494.279687 72.799313 
" clip-path="url(#p8908397235)" style="fill: none; stroke: #e4e3df; stroke-width: 0.8; stroke-linecap: square"/>
     </g>
     <g id="line2d_26">
      <g>
       <use xlink:href="#m7b8136a8d9" x="47.879688" y="72.799313" style="fill: #52514e; stroke: #52514e; stroke-width: 0.8"/>
      </g>
     </g>
     <g id="text_14">
      <!-- 2.05 -->
      <g style="fill: #52514e" transform="translate(21.45 76.779) scale(0.1 -0.1)">
       <use xlink:href="#NotoSansCJKjp-Regular-32"/>
       <use xlink:href="#NotoSansCJKjp-Regular-2e" x="55.499985"/>
       <use xlink:href="#NotoSansCJKjp-Regular-30" x="83.299973"/>
       <use xlink:href="#NotoSansCJKjp-Regular-35" x="138.799957"/>
      </g>
     </g>
    </g>
    <g id="ytick_8">
     <g id="line2d_27">
      <path d="M 47.879688 45.079313 
L 494.279687 45.079313 
" clip-path="url(#p8908397235)" style="fill: none; stroke: #e4e3df; stroke-width: 0.8; stroke-linecap: square"/>
     </g>
     <g id="line2d_28">
      <g>
       <use xlink:href="#m7b8136a8d9" x="47.879688" y="45.079313" style="fill: #52514e; stroke: #52514e; stroke-width: 0.8"/>
      </g>
     </g>
     <g id="text_15">
      <!-- 2.10 -->
      <g style="fill: #52514e" transform="translate(21.45 49.059) scale(0.1 -0.1)">
       <use xlink:href="#NotoSansCJKjp-Regular-32"/>
       <use xlink:href="#NotoSansCJKjp-Regular-2e" x="55.499985"/>
       <use xlink:href="#NotoSansCJKjp-Regular-31" x="83.299973"/>
       <use xlink:href="#NotoSansCJKjp-Regular-30" x="138.799957"/>
      </g>
     </g>
    </g>
    <g id="text_16">
     <!-- 누적 WAF (낮을수록 우수) -->
     <g style="fill: #52514e" transform="translate(15.159375 193.057781) rotate(-90) scale(0.1 -0.1)">
      <defs>
       <path id="NotoSansCJKjp-Regular-b204" d="M 992 4998 
L 992 2912 
L 4960 2912 
L 4960 3347 
L 1523 3347 
L 1523 4998 
L 992 4998 
z
M 320 2048 
L 320 1606 
L 2656 1606 
L 2656 -499 
L 3187 -499 
L 3187 1606 
L 5568 1606 
L 5568 2048 
L 320 2048 
z
" transform="scale(0.015625)"/>
       <path id="NotoSansCJKjp-Regular-c801" d="M 1216 1517 
L 1216 1082 
L 4550 1082 
L 4550 -499 
L 5082 -499 
L 5082 1517 
L 1216 1517 
z
M 506 4896 
L 506 4461 
L 1792 4461 
L 1792 4230 
C 1792 3418 1197 2643 339 2342 
L 614 1920 
C 1299 2170 1824 2701 2074 3360 
C 2317 2765 2816 2285 3462 2054 
L 3731 2470 
C 2893 2765 2330 3488 2330 4237 
L 2330 4461 
L 3597 4461 
L 3597 4896 
L 506 4896 
z
M 4550 5293 
L 4550 3782 
L 3418 3782 
L 3418 3341 
L 4550 3341 
L 4550 1830 
L 5082 1830 
L 5082 5293 
L 4550 5293 
z
" transform="scale(0.015625)"/>
       <path id="NotoSansCJKjp-Regular-57" d="M 1158 0 
L 1862 0 
L 2560 2829 
C 2637 3200 2726 3539 2797 3898 
L 2822 3898 
C 2899 3539 2970 3200 3053 2829 
L 3763 0 
L 4480 0 
L 5446 4691 
L 4883 4691 
L 4378 2138 
C 4294 1632 4205 1126 4122 614 
L 4083 614 
C 3968 1126 3866 1638 3750 2138 
L 3098 4691 
L 2554 4691 
L 1907 2138 
C 1792 1632 1677 1126 1574 614 
L 1549 614 
C 1453 1126 1363 1632 1267 2138 
L 774 4691 
L 166 4691 
L 1158 0 
z
" transform="scale(0.015625)"/>
       <path id="NotoSansCJKjp-Regular-41" d="M 26 0 
L 621 0 
L 1075 1434 
L 2790 1434 
L 3238 0 
L 3866 0 
L 2272 4691 
L 1613 4691 
L 26 0 
z
M 1222 1901 
L 1453 2624 
C 1619 3155 1773 3661 1920 4211 
L 1946 4211 
C 2099 3667 2246 3155 2419 2624 
L 2643 1901 
L 1222 1901 
z
" transform="scale(0.015625)"/>
       <path id="NotoSansCJKjp-Regular-46" d="M 646 0 
L 1235 0 
L 1235 2106 
L 3027 2106 
L 3027 2605 
L 1235 2605 
L 1235 4192 
L 3347 4192 
L 3347 4691 
L 646 4691 
L 646 0 
z
" transform="scale(0.015625)"/>
       <path id="NotoSansCJKjp-Regular-b0ae" d="M 4282 5299 
L 4282 2022 
L 4813 2022 
L 4813 3437 
L 5664 3437 
L 5664 3885 
L 4813 3885 
L 4813 5299 
L 4282 5299 
z
M 595 2912 
L 595 2464 
L 1056 2464 
C 1914 2464 2784 2528 3757 2726 
L 3693 3168 
C 2771 2976 1939 2918 1126 2912 
L 1126 4979 
L 595 4979 
L 595 2912 
z
M 1120 1722 
L 1120 1293 
L 2739 1293 
C 2714 653 1875 96 902 -58 
L 1114 -467 
C 1952 -320 2701 102 3021 685 
C 3341 102 4083 -326 4922 -474 
L 5133 -64 
C 4166 96 3322 666 3296 1293 
L 4909 1293 
L 4909 1722 
L 1120 1722 
z
" transform="scale(0.015625)"/>
       <path id="NotoSansCJKjp-Regular-c744" d="M 2931 5190 
C 1651 5190 896 4838 896 4192 
C 896 3546 1651 3187 2931 3187 
C 4211 3187 4966 3546 4966 4192 
C 4966 4838 4211 5190 2931 5190 
z
M 2931 4794 
C 3878 4794 4422 4570 4422 4192 
C 4422 3802 3878 3590 2931 3590 
C 1990 3590 1446 3802 1446 4192 
C 1446 4570 1990 4794 2931 4794 
z
M 320 2797 
L 320 2368 
L 5549 2368 
L 5549 2797 
L 320 2797 
z
M 966 -19 
L 966 -435 
L 5050 -435 
L 5050 -19 
L 1485 -19 
L 1485 570 
L 4877 570 
L 4877 1875 
L 954 1875 
L 954 1472 
L 4358 1472 
L 4358 960 
L 966 960 
L 966 -19 
z
" transform="scale(0.015625)"/>
       <path id="NotoSansCJKjp-Regular-c218" d="M 2662 5088 
L 2662 4762 
C 2662 3942 1645 3245 589 3091 
L 800 2662 
C 1702 2810 2573 3309 2944 4013 
C 3315 3309 4179 2810 5082 2662 
L 5293 3091 
C 4243 3245 3213 3955 3213 4762 
L 3213 5088 
L 2662 5088 
z
M 320 2035 
L 320 1594 
L 2662 1594 
L 2662 -499 
L 3187 -499 
L 3187 1594 
L 5549 1594 
L 5549 2035 
L 320 2035 
z
" transform="scale(0.015625)"/>
       <path id="NotoSansCJKjp-Regular-b85d" d="M 902 1229 
L 902 800 
L 4390 800 
L 4390 -442 
L 4922 -442 
L 4922 1229 
L 902 1229 
z
M 992 3136 
L 992 2714 
L 2675 2714 
L 2675 2106 
L 314 2106 
L 314 1670 
L 5562 1670 
L 5562 2106 
L 3200 2106 
L 3200 2714 
L 5011 2714 
L 5011 3136 
L 1517 3136 
L 1517 3738 
L 4890 3738 
L 4890 5146 
L 979 5146 
L 979 4723 
L 4365 4723 
L 4365 4134 
L 992 4134 
L 992 3136 
z
" transform="scale(0.015625)"/>
       <path id="NotoSansCJKjp-Regular-c6b0" d="M 2925 5062 
C 1722 5062 902 4570 902 3789 
C 902 3014 1722 2522 2925 2522 
C 4134 2522 4954 3014 4954 3789 
C 4954 4570 4134 5062 2925 5062 
z
M 2925 4634 
C 3814 4634 4410 4301 4410 3789 
C 4410 3277 3814 2950 2925 2950 
C 2042 2950 1446 3277 1446 3789 
C 1446 4301 2042 4634 2925 4634 
z
M 314 1978 
L 314 1536 
L 2662 1536 
L 2662 -499 
L 3187 -499 
L 3187 1536 
L 5562 1536 
L 5562 1978 
L 314 1978 
z
" transform="scale(0.015625)"/>
      </defs>
      <use xlink:href="#NotoSansCJKjp-Regular-b204"/>
      <use xlink:href="#NotoSansCJKjp-Regular-c801" x="91.999985"/>
      <use xlink:href="#NotoSansCJKjp-Regular-20" x="183.999969"/>
      <use xlink:href="#NotoSansCJKjp-Regular-57" x="206.399963"/>
      <use xlink:href="#NotoSansCJKjp-Regular-41" x="294.199951"/>
      <use xlink:href="#NotoSansCJKjp-Regular-46" x="354.999939"/>
      <use xlink:href="#NotoSansCJKjp-Regular-20" x="410.199936"/>
      <use xlink:href="#NotoSansCJKjp-Regular-28" x="432.59993"/>
      <use xlink:href="#NotoSansCJKjp-Regular-b0ae" x="466.399918"/>
      <use xlink:href="#NotoSansCJKjp-Regular-c744" x="558.399902"/>
      <use xlink:href="#NotoSansCJKjp-Regular-c218" x="650.399887"/>
      <use xlink:href="#NotoSansCJKjp-Regular-b85d" x="742.399872"/>
      <use xlink:href="#NotoSansCJKjp-Regular-20" x="834.399857"/>
      <use xlink:href="#NotoSansCJKjp-Regular-c6b0" x="856.79985"/>
      <use xlink:href="#NotoSansCJKjp-Regular-c218" x="948.799835"/>
      <use xlink:href="#NotoSansCJKjp-Regular-29" x="1040.79982"/>
     </g>
    </g>
   </g>
   <g id="line2d_29">
    <path d="M 58.025142 72.785945 
L 58.701506 80.387757 
L 59.039687 82.159043 
L 59.377869 83.125724 
L 59.716051 85.136757 
L 60.392415 91.369415 
L 60.730597 90.308467 
L 62.421506 77.646829 
L 62.759687 74.77103 
L 63.097869 74.782614 
L 63.436051 77.439248 
L 63.774233 76.930715 
L 64.450597 72.86823 
L 64.788778 73.96719 
L 65.803324 80.53126 
L 66.141506 80.055374 
L 67.156051 84.639713 
L 67.832415 84.588077 
L 68.84696 89.436572 
L 69.185142 90.066612 
L 69.523324 92.130766 
L 69.861506 92.601675 
L 70.537869 94.643907 
L 71.214233 97.868501 
L 71.890597 101.203726 
L 72.228778 101.991621 
L 72.56696 101.878814 
L 72.905142 102.282625 
L 73.581506 103.919278 
L 73.919688 104.076418 
L 74.596051 107.210572 
L 74.934233 107.995777 
L 75.272415 108.470605 
L 75.610597 109.417566 
L 75.948778 109.736434 
L 76.28696 109.855602 
L 76.625142 110.98716 
L 77.301506 112.301042 
L 77.977869 114.154515 
L 78.992415 114.607892 
L 81.021506 118.957044 
L 81.359688 118.625654 
L 81.697869 118.73205 
L 82.374233 119.612596 
L 83.72696 122.758003 
L 84.065142 123.347107 
L 84.403324 123.238735 
L 85.417869 124.300201 
L 85.756051 124.418766 
L 86.094233 124.919231 
L 86.432415 125.877875 
L 86.770597 126.219014 
L 87.108778 125.296818 
L 88.461506 119.698893 
L 88.799688 119.174596 
L 89.137869 119.746203 
L 89.476051 119.938101 
L 89.814233 119.9344 
L 90.490597 118.353045 
L 90.828778 118.430745 
L 91.16696 118.979632 
L 91.505142 119.12684 
L 91.843324 119.770752 
L 92.519688 120.635309 
L 92.857869 120.586621 
L 93.534233 119.589054 
L 93.872415 120.145419 
L 94.548778 120.765728 
L 95.563324 122.779522 
L 95.901506 123.262195 
L 96.916051 123.809509 
L 97.592415 124.571409 
L 98.268778 125.803954 
L 98.60696 126.328439 
L 100.636051 127.656714 
L 101.312415 128.646555 
L 101.650597 128.767307 
L 101.988778 128.401648 
L 102.32696 128.477771 
L 102.665142 128.413768 
L 103.341506 129.087851 
L 103.679688 129.16225 
L 104.017869 129.795003 
L 104.705506 130.332037 
L 105.381869 130.227618 
L 106.058233 130.598146 
L 106.396415 130.956507 
L 107.41096 132.498159 
L 107.749142 132.53175 
L 109.101869 133.283273 
L 110.116415 134.344552 
L 111.13096 134.995994 
L 112.483688 135.126559 
L 112.821869 135.208982 
L 113.836415 135.791616 
L 114.174597 135.821391 
L 114.512778 135.667171 
L 115.189142 135.997557 
L 115.865506 136.653428 
L 116.203688 137.008953 
L 116.541869 137.087236 
L 116.880051 137.329217 
L 117.218233 137.368708 
L 118.232778 137.861203 
L 118.909142 138.774656 
L 119.247324 139.136071 
L 119.923687 139.43346 
L 120.938233 140.063481 
L 122.29096 141.450487 
L 122.629142 141.673251 
L 122.967324 141.688896 
L 123.981869 142.307056 
L 124.996415 143.008528 
L 125.672778 143.170559 
L 126.349142 143.186612 
L 126.687324 143.356698 
L 128.040051 144.59072 
L 128.378233 144.712476 
L 129.054597 144.42932 
L 129.392778 144.504842 
L 130.069142 144.999639 
L 131.760051 146.232516 
L 132.436415 146.465168 
L 133.112778 146.942822 
L 134.127324 147.819557 
L 135.141869 148.355797 
L 137.17096 149.823972 
L 137.847324 150.009475 
L 138.861869 150.691271 
L 139.876415 151.618265 
L 141.567324 152.196141 
L 142.243688 152.704841 
L 142.920051 153.280595 
L 144.949142 154.199616 
L 146.301869 154.997278 
L 146.978233 155.289177 
L 149.007324 156.452924 
L 150.698233 157.16203 
L 152.05096 158.01495 
L 153.065506 158.246645 
L 153.741869 158.556202 
L 154.756415 159.241142 
L 155.77096 159.536456 
L 161.181869 161.820802 
L 161.858233 161.968708 
L 162.534597 162.278081 
L 163.887324 162.988269 
L 164.901869 163.185596 
L 165.578233 163.452985 
L 166.93096 164.077998 
L 168.621869 164.607967 
L 169.298233 164.981421 
L 169.298233 164.981421 
" clip-path="url(#p8908397235)" style="fill: none; stroke: #eb6834; stroke-width: 2; stroke-linecap: square"/>
   </g>
   <g id="line2d_30">
    <path d="M 58.036415 52.049724 
L 58.712778 53.033005 
L 59.389142 51.829906 
L 59.727324 54.662365 
L 60.741869 65.881621 
L 61.418233 70.569174 
L 61.756415 72.013992 
L 62.094597 74.820148 
L 62.432778 75.902413 
L 62.77096 77.958491 
L 63.109142 77.799127 
L 63.447324 76.219359 
L 63.785506 77.022959 
L 65.476415 86.517581 
L 65.814597 86.565892 
L 66.152778 90.098343 
L 67.843688 95.549837 
L 68.520051 99.349988 
L 68.858233 100.467496 
L 69.196415 102.396579 
L 69.534597 102.139018 
L 70.21096 103.662814 
L 70.549142 103.183711 
L 70.887324 104.956589 
L 71.225506 105.988147 
L 71.901869 106.175145 
L 72.240051 105.488078 
L 72.578233 105.453006 
L 72.916415 105.919797 
L 73.254597 107.152777 
L 74.269142 108.357016 
L 74.945506 110.575304 
L 75.283687 110.434587 
L 75.621869 111.1767 
L 75.960051 111.472199 
L 76.298233 111.486443 
L 76.636415 112.112166 
L 76.974597 112.427821 
L 77.989142 115.687227 
L 78.327324 115.577574 
L 78.665506 115.191106 
L 79.003687 115.347755 
L 79.680051 116.46868 
L 80.018233 117.206551 
L 80.356415 117.435496 
L 80.694597 117.858551 
L 81.37096 118.21778 
L 81.709142 117.502358 
L 82.385506 117.920697 
L 82.723687 118.482603 
L 83.738233 120.590599 
L 84.076415 120.446365 
L 84.414597 119.962773 
L 84.752778 120.81033 
L 85.09096 120.840276 
L 85.767324 122.397975 
L 86.105506 122.823946 
L 86.443688 123.641526 
L 87.120051 124.184249 
L 87.458233 123.820433 
L 87.796415 124.100028 
L 88.81096 125.972036 
L 89.487324 127.638463 
L 89.825506 127.896696 
L 90.163687 127.644238 
L 90.501869 128.17188 
L 91.178233 128.765613 
L 92.53096 131.151233 
L 92.869142 131.38997 
L 93.207324 131.328466 
L 93.545506 131.510896 
L 93.883688 131.523353 
L 94.221869 131.661734 
L 94.898233 132.631982 
L 95.236415 133.006438 
L 95.574597 133.76018 
L 95.912778 133.60471 
L 96.25096 132.982301 
L 96.927324 133.101275 
L 98.618233 135.927348 
L 100.647324 138.159705 
L 101.661869 139.654296 
L 102.676415 140.228886 
L 104.367324 142.72492 
L 106.734597 144.298184 
L 107.072778 144.85924 
L 107.749142 145.192598 
L 108.087324 145.131072 
L 108.763688 144.83462 
L 109.440051 145.188325 
L 110.116415 146.021937 
L 111.469142 146.404489 
L 111.807324 146.814138 
L 112.483688 147.085416 
L 113.160051 147.925684 
L 113.498233 148.033025 
L 113.836415 148.007314 
L 114.85096 148.462002 
L 115.527324 149.076873 
L 116.541869 149.640149 
L 116.880051 149.327008 
L 118.57096 150.300561 
L 119.247324 150.912203 
L 119.585506 150.964775 
L 119.923687 150.892141 
L 120.600051 151.273917 
L 120.938233 151.305918 
L 122.29096 152.171724 
L 122.967324 152.403243 
L 123.305506 152.449397 
L 124.320051 152.949659 
L 124.996415 153.600913 
L 125.672778 153.647479 
L 126.349142 153.852919 
L 126.687324 153.947699 
L 127.363687 154.432582 
L 128.040051 155.064065 
L 128.716415 155.36421 
L 129.054597 155.315463 
L 129.73096 155.689095 
L 130.407324 156.227137 
L 130.745506 156.647757 
L 131.421869 156.889565 
L 133.45096 157.946068 
L 134.127324 158.480165 
L 134.465506 158.525123 
L 134.803687 158.73378 
L 135.141869 158.796012 
L 136.832778 160.04223 
L 137.509142 160.018466 
L 138.185506 160.234505 
L 139.876415 161.319285 
L 140.552778 161.243894 
L 141.567324 161.403398 
L 141.905506 161.391826 
L 142.581869 161.844283 
L 143.934597 162.013383 
L 144.61096 162.083289 
L 146.301869 162.890769 
L 147.316415 162.982837 
L 149.018597 163.421739 
L 150.033142 162.981795 
L 150.709506 163.137657 
L 151.385869 163.561846 
L 151.724051 163.592837 
L 152.400415 163.808432 
L 152.738597 163.692053 
L 155.444051 164.504196 
L 155.782233 164.527687 
L 157.473142 165.19319 
L 158.149506 165.191985 
L 158.825869 165.195504 
L 159.502233 165.478238 
L 159.840415 165.52285 
L 160.516778 165.904009 
L 160.85496 166.012843 
L 161.193142 165.933074 
L 162.545869 166.263193 
L 162.884051 166.497845 
L 163.898597 166.754081 
L 165.251324 166.7468 
L 165.927687 166.931259 
L 166.604051 167.237833 
L 169.309506 167.866326 
L 169.309506 167.866326 
" clip-path="url(#p8908397235)" style="fill: none; stroke: #eda100; stroke-width: 2; stroke-linecap: square"/>
   </g>
   <g id="line2d_31">
    <path d="M 58.036415 126.114982 
L 58.374597 127.378436 
L 59.05096 132.988234 
L 59.727324 137.913451 
L 60.065506 139.701536 
L 60.403688 138.356664 
L 60.741869 137.891017 
L 61.080051 138.500903 
L 61.418233 138.527715 
L 62.094597 138.250596 
L 62.432778 138.632273 
L 62.77096 139.193409 
L 63.447324 138.14103 
L 63.785506 138.084586 
L 64.123688 137.736534 
L 64.461869 136.876231 
L 65.138233 137.831929 
L 65.476415 139.47212 
L 65.814597 140.269055 
L 66.152778 140.188355 
L 66.49096 139.122781 
L 66.829142 138.644257 
L 67.167324 138.480084 
L 67.843688 138.64878 
L 68.520051 139.409822 
L 68.858233 140.430309 
L 69.196415 140.06488 
L 69.534597 138.073003 
L 69.872778 137.712065 
L 70.21096 136.414321 
L 70.549142 136.319759 
L 71.225506 138.205684 
L 71.563688 138.896713 
L 71.901869 139.861228 
L 72.240051 140.204373 
L 72.578233 140.282878 
L 73.254597 141.204561 
L 73.592778 141.415599 
L 74.269142 142.394289 
L 74.607324 143.017766 
L 74.945506 143.89828 
L 75.283687 143.999377 
L 75.621869 143.363131 
L 75.960051 143.583274 
L 76.298233 143.082277 
L 76.636415 143.352066 
L 77.65096 144.816094 
L 77.989142 144.693537 
L 78.665506 144.696081 
L 79.003687 144.175084 
L 79.341869 144.164323 
L 79.680051 144.731204 
L 80.018233 144.864251 
L 80.694597 145.973118 
L 81.032778 146.232039 
L 82.047324 145.685382 
L 82.385506 145.894258 
L 82.723687 146.676368 
L 83.061869 147.130112 
L 83.400051 147.825263 
L 83.738233 148.155387 
L 84.076415 148.259383 
L 84.414597 147.851864 
L 84.752778 147.871898 
L 85.429142 148.27601 
L 86.105506 149.52275 
L 86.781869 150.92906 
L 87.458233 151.618774 
L 87.796415 151.613989 
L 88.134597 151.783147 
L 88.472778 152.319491 
L 88.81096 152.551018 
L 89.487324 153.55054 
L 90.501869 153.840447 
L 90.840051 154.056297 
L 91.854597 155.184799 
L 92.53096 156.085845 
L 92.869142 156.342092 
L 93.545506 155.974417 
L 93.883688 156.128714 
L 95.236415 157.719391 
L 95.574597 158.268189 
L 96.25096 158.079538 
L 97.603687 158.547801 
L 97.941869 158.958225 
L 98.618233 159.400684 
L 99.294597 159.619753 
L 100.309142 160.259305 
L 100.647324 160.450568 
L 101.323688 161.417957 
L 101.661869 161.550053 
L 102.000051 161.472514 
L 102.338233 161.594346 
L 102.676415 161.869576 
L 103.014597 161.994322 
L 103.69096 162.640289 
L 104.367324 163.196693 
L 104.705506 163.485082 
L 105.043688 163.438743 
L 105.720051 163.702651 
L 106.734597 164.657828 
L 107.41096 165.410281 
L 109.101869 165.683276 
L 110.792778 167.101723 
L 111.13096 167.185782 
L 112.145506 167.905198 
L 113.160051 168.595394 
L 113.498233 168.523039 
L 114.85096 169.256566 
L 116.541869 170.245761 
L 117.556415 169.984008 
L 119.247324 171.370539 
L 120.261869 171.620513 
L 121.614597 172.264681 
L 122.29096 172.684074 
L 123.643687 173.14307 
L 124.320051 173.570212 
L 124.996415 173.963193 
L 125.334597 173.929402 
L 126.01096 173.661184 
L 126.687324 173.825622 
L 127.025506 173.99963 
L 127.701869 174.51234 
L 128.040051 174.787854 
L 128.378233 174.838309 
L 128.716415 174.745248 
L 129.73096 175.055195 
L 130.407324 175.465123 
L 131.083687 175.858262 
L 131.421869 175.998951 
L 131.760051 175.828095 
L 133.45096 176.584114 
L 134.127324 176.859174 
L 135.818233 177.322546 
L 136.832778 177.788793 
L 137.847324 177.811991 
L 138.523687 177.835661 
L 139.876415 178.789374 
L 141.916778 178.892531 
L 142.25496 179.023777 
L 142.593142 179.290573 
L 143.607687 179.564932 
L 144.284051 179.579032 
L 145.636778 179.987185 
L 145.97496 180.143589 
L 146.989506 180.260262 
L 147.665869 180.490785 
L 148.342233 180.718886 
L 148.680415 180.938182 
L 149.018597 180.99986 
L 149.356778 180.86486 
L 150.709506 181.057468 
L 151.724051 181.55907 
L 152.062233 181.630864 
L 152.738597 181.568226 
L 153.41496 181.679754 
L 156.458597 182.564304 
L 156.796778 182.622225 
L 157.811324 183.019724 
L 158.487687 182.847947 
L 159.164051 182.979848 
L 160.516778 183.39364 
L 162.545869 183.520595 
L 163.560415 183.937509 
L 164.236778 183.750555 
L 164.913142 183.633584 
L 165.927687 183.830358 
L 166.265869 184.019263 
L 166.604051 184.075892 
L 167.280415 184.014909 
L 168.971324 184.420565 
L 169.309506 184.562915 
L 169.309506 184.562915 
" clip-path="url(#p8908397235)" style="fill: none; stroke: #1baf7a; stroke-width: 2; stroke-linecap: square"/>
   </g>
   <g id="line2d_32">
    <path d="M 58.025142 122.983868 
L 58.374597 125.7411 
L 59.05096 128.032655 
L 59.727324 134.433234 
L 60.403688 138.075864 
L 60.741869 137.221871 
L 61.080051 138.30732 
L 61.418233 137.902002 
L 61.756415 140.179765 
L 62.094597 141.618423 
L 62.77096 145.22997 
L 63.447324 148.094534 
L 64.123688 147.498162 
L 64.461869 148.363598 
L 64.800051 148.758221 
L 65.138233 149.340681 
L 65.476415 150.230766 
L 65.814597 152.144256 
L 66.152778 151.667225 
L 66.49096 150.805075 
L 67.167324 152.313449 
L 67.505506 152.72232 
L 68.520051 154.963974 
L 68.858233 156.109334 
L 69.196415 156.251334 
L 69.534597 156.172617 
L 69.872778 157.166988 
L 70.21096 157.004447 
L 70.887324 158.625316 
L 71.225506 159.198122 
L 71.563688 160.505865 
L 71.901869 161.15702 
L 72.240051 161.427382 
L 72.578233 161.178233 
L 72.916415 161.594559 
L 73.254597 161.481852 
L 73.592778 162.185954 
L 73.93096 162.297345 
L 74.607324 163.586425 
L 75.283687 164.760883 
L 75.621869 164.30594 
L 75.960051 164.346397 
L 76.974597 165.161518 
L 77.312778 165.95066 
L 77.989142 166.699674 
L 78.327324 166.905341 
L 78.665506 166.75482 
L 80.018233 167.343686 
L 80.356415 167.791897 
L 80.694597 168.577401 
L 81.37096 168.794614 
L 81.709142 168.334654 
L 82.047324 168.324812 
L 82.385506 168.768264 
L 82.723687 168.863149 
L 83.061869 169.224024 
L 83.400051 170.129225 
L 84.076415 170.677745 
L 84.414597 170.153744 
L 85.09096 170.419282 
L 85.767324 170.660664 
L 86.781869 171.97091 
L 87.120051 171.889875 
L 87.458233 172.120895 
L 87.796415 172.008745 
L 88.134597 172.149613 
L 88.472778 172.162727 
L 89.149142 172.763147 
L 89.825506 173.049671 
L 90.501869 172.578414 
L 90.840051 172.815144 
L 91.178233 172.756764 
L 91.516415 173.177778 
L 92.192778 173.65966 
L 92.53096 173.602813 
L 92.869142 173.846712 
L 93.207324 173.392932 
L 93.545506 173.4274 
L 93.883688 173.593615 
L 94.221869 173.629788 
L 94.560051 173.792176 
L 94.898233 174.246403 
L 95.574597 174.587816 
L 97.603687 174.305987 
L 98.618233 175.239375 
L 99.632778 174.109355 
L 100.309142 174.490381 
L 100.647324 174.300967 
L 101.323688 175.09136 
L 101.661869 175.154567 
L 102.338233 175.034966 
L 102.676415 175.040036 
L 103.352778 175.480717 
L 104.029142 175.844615 
L 104.367324 176.326168 
L 104.705506 176.295564 
L 105.043688 176.09401 
L 105.381869 176.227312 
L 106.058233 176.211816 
L 107.41096 177.528972 
L 108.087324 177.465681 
L 108.425506 177.550571 
L 108.763688 177.504149 
L 110.792778 178.600692 
L 111.13096 178.574558 
L 111.807324 178.858643 
L 112.821869 179.382878 
L 113.160051 179.711018 
L 114.174597 179.573016 
L 115.527324 180.385277 
L 116.203688 180.877142 
L 116.880051 180.726337 
L 117.556415 180.874378 
L 118.232778 181.236163 
L 119.247324 181.961362 
L 119.585506 181.900993 
L 120.261869 181.937816 
L 120.938233 181.928144 
L 122.29096 182.76227 
L 122.967324 182.837258 
L 124.658233 183.488739 
L 124.996415 183.785649 
L 126.687324 184.058994 
L 128.378233 184.966962 
L 129.054597 184.958922 
L 130.069142 185.246559 
L 131.421869 186.011269 
L 133.112778 186.446175 
L 134.127324 186.932458 
L 134.803687 186.967968 
L 135.818233 187.318745 
L 137.17096 187.886179 
L 138.185506 187.955097 
L 138.861869 188.226398 
L 139.876415 188.79659 
L 140.552778 188.808937 
L 141.567324 188.892223 
L 143.258233 189.634556 
L 144.61096 189.859936 
L 145.97496 190.311464 
L 146.989506 190.422217 
L 149.018597 191.099814 
L 150.033142 191.129701 
L 150.709506 191.344841 
L 151.724051 191.814894 
L 152.400415 191.812493 
L 153.41496 191.921326 
L 154.091324 192.151519 
L 154.767687 192.424868 
L 156.458597 192.629688 
L 157.811324 192.97832 
L 158.487687 192.947979 
L 160.85496 193.648138 
L 161.869506 193.585099 
L 163.222233 194.025015 
L 163.560415 194.157677 
L 165.251324 194.230991 
L 166.942233 194.652778 
L 167.956778 194.771046 
L 170.324051 195.107907 
L 171.000415 195.234782 
L 172.691324 195.690188 
L 174.044051 195.683584 
L 175.058597 196.00794 
L 175.73496 196.149801 
L 177.087688 196.160005 
L 178.778597 196.488592 
L 180.469506 196.700274 
L 181.484051 196.902122 
L 182.160415 196.851583 
L 183.17496 197.026352 
L 184.527688 197.327947 
L 185.542233 197.260182 
L 186.556778 197.414046 
L 187.233142 197.638231 
L 189.600415 197.826935 
L 190.276778 197.961838 
L 190.953142 197.929724 
L 191.967688 198.062967 
L 193.320415 198.305373 
L 194.673142 198.309934 
L 196.364051 198.670139 
L 197.716778 198.596486 
L 200.084051 198.965519 
L 201.436778 199.1027 
L 202.113142 199.190561 
L 203.127687 199.193792 
L 205.156778 199.506335 
L 206.509506 199.491223 
L 208.538597 199.765402 
L 209.891324 199.796635 
L 211.244051 200.017532 
L 213.273142 200.165078 
L 213.949506 200.232692 
L 214.625869 200.176516 
L 216.993142 200.52854 
L 218.007687 200.446106 
L 223.080415 200.945613 
L 224.433142 201.009698 
L 226.462233 201.109689 
L 227.476778 201.231997 
L 228.829506 201.416525 
L 230.182233 201.360437 
L 232.560778 201.576246 
L 233.913506 201.678698 
L 234.589869 201.769788 
L 235.942597 201.789085 
L 237.633506 201.964403 
L 238.648051 201.915883 
L 241.015324 202.146627 
L 242.368051 202.145752 
L 244.05896 202.334261 
L 246.088051 202.462333 
L 249.808051 202.631493 
L 250.822597 202.62978 
L 252.513506 202.861335 
L 253.866233 202.781131 
L 256.233506 202.992352 
L 257.586233 203.063693 
L 258.262597 203.107941 
L 259.615324 203.130395 
L 261.644415 203.262156 
L 262.65896 203.247735 
L 264.688051 203.412807 
L 266.040778 203.415235 
L 267.393506 203.559911 
L 271.789869 203.71393 
L 273.142597 203.856087 
L 274.495324 203.801494 
L 282.273506 204.165198 
L 283.288051 204.19041 
L 284.97896 204.324015 
L 287.008051 204.214966 
L 287.684415 204.305663 
L 288.360778 204.213456 
L 289.375324 204.108721 
L 291.404415 204.162129 
L 292.080778 204.139246 
L 293.771687 204.186289 
L 294.448051 204.060987 
L 295.800778 204.102342 
L 297.153506 204.120956 
L 298.168051 204.050327 
L 298.844415 204.077417 
L 299.520778 204.178833 
L 300.873506 204.124615 
L 303.917142 204.177973 
L 304.931687 204.231202 
L 305.608051 204.248627 
L 306.284415 204.165059 
L 307.637142 204.230442 
L 308.313506 204.305655 
L 309.666233 204.168015 
L 311.01896 204.279464 
L 312.033506 204.296772 
L 320.161142 204.30983 
L 326.248415 204.317132 
L 327.601142 204.232755 
L 330.306597 204.286579 
L 331.659324 204.371899 
L 332.673869 204.372692 
L 334.364778 204.385646 
L 335.041142 204.424524 
L 349.244778 204.574147 
L 349.921142 204.614568 
L 351.612051 204.542393 
L 353.30296 204.616133 
L 354.993869 204.64794 
L 356.008415 204.731244 
L 359.728415 204.809096 
L 365.477506 205.04329 
L 366.830233 205.095791 
L 368.18296 205.160659 
L 372.917506 205.3297 
L 373.593869 205.369742 
L 374.946597 205.327724 
L 377.313869 205.432311 
L 381.372051 205.564357 
L 382.724778 205.59815 
L 384.077506 205.639058 
L 385.768415 205.707724 
L 387.121142 205.711144 
L 388.812051 205.810077 
L 390.50296 205.844287 
L 391.517506 205.892559 
L 393.208415 205.931129 
L 394.561142 205.96549 
L 395.913869 206.004244 
L 397.604778 206.070193 
L 398.957506 206.069389 
L 400.648415 206.165881 
L 402.001142 206.166407 
L 404.717869 206.249246 
L 417.230597 206.592945 
L 418.245142 206.595057 
L 419.597869 206.615709 
L 421.62696 206.67388 
L 422.979687 206.712599 
L 424.670597 206.768496 
L 428.390597 206.845743 
L 430.081506 206.890748 
L 431.434233 206.892832 
L 433.125142 206.954488 
L 434.816051 206.980952 
L 436.168778 207.01957 
L 440.22696 207.092506 
L 441.917869 207.146434 
L 443.270597 207.143992 
L 444.961506 207.221955 
L 446.652415 207.243956 
L 448.005142 207.273113 
L 453.416051 207.433262 
L 453.416051 207.433262 
" clip-path="url(#p8908397235)" style="fill: none; stroke: #2a78d6; stroke-width: 2; stroke-linecap: square"/>
   </g>
   <g id="line2d_33">
    <path d="M 47.879688 226.922513 
L 494.279687 226.922513 
" clip-path="url(#p8908397235)" style="fill: none; stroke-dasharray: 1.2,1.98; stroke-dashoffset: 0; stroke: #52514e; stroke-width: 1.2"/>
   </g>
   <g id="line2d_34">
    <path d="M 47.879688 203.637713 
L 494.279687 203.637713 
" clip-path="url(#p8908397235)" style="fill: none; stroke-dasharray: 1.2,1.98; stroke-dashoffset: 0; stroke: #52514e; stroke-width: 1.2"/>
   </g>
   <g id="patch_3">
    <path d="M 47.879688 244.663312 
L 47.879688 33.991313 
" style="fill: none; stroke: #52514e; stroke-width: 0.8; stroke-linejoin: miter; stroke-linecap: square"/>
   </g>
   <g id="patch_4">
    <path d="M 47.879688 244.663312 
L 494.279687 244.663312 
" style="fill: none; stroke: #52514e; stroke-width: 0.8; stroke-linejoin: miter; stroke-linecap: square"/>
   </g>
   <g id="text_17">
    <!-- iCAT (원 구현) -->
    <g style="fill: #0b0b0b" transform="translate(173.356415 163.097159) scale(0.09 -0.09)">
     <defs>
      <path id="NotoSansCJKjp-Regular-69" d="M 589 0 
L 1178 0 
L 1178 3475 
L 589 3475 
L 589 0 
z
M 883 4192 
C 1114 4192 1274 4346 1274 4582 
C 1274 4806 1114 4960 883 4960 
C 653 4960 499 4806 499 4582 
C 499 4346 653 4192 883 4192 
z
" transform="scale(0.015625)"/>
      <path id="NotoSansCJKjp-Regular-43" d="M 2413 -83 
C 3021 -83 3482 160 3853 589 
L 3526 966 
C 3226 634 2886 435 2438 435 
C 1542 435 979 1178 979 2362 
C 979 3533 1574 4256 2458 4256 
C 2861 4256 3168 4077 3418 3814 
L 3738 4198 
C 3469 4499 3021 4774 2451 4774 
C 1261 4774 371 3859 371 2342 
C 371 819 1242 -83 2413 -83 
z
" transform="scale(0.015625)"/>
      <path id="NotoSansCJKjp-Regular-54" d="M 1619 0 
L 2214 0 
L 2214 4192 
L 3635 4192 
L 3635 4691 
L 198 4691 
L 198 4192 
L 1619 4192 
L 1619 0 
z
" transform="scale(0.015625)"/>
      <path id="NotoSansCJKjp-Regular-c6d0" d="M 2170 5056 
C 1325 5056 749 4653 749 4045 
C 749 3430 1325 3040 2170 3040 
C 3014 3040 3590 3430 3590 4045 
C 3590 4653 3014 5056 2170 5056 
z
M 2170 4659 
C 2707 4659 3085 4416 3085 4045 
C 3085 3674 2707 3437 2170 3437 
C 1626 3437 1248 3674 1248 4045 
C 1248 4416 1626 4659 2170 4659 
z
M 358 2176 
C 832 2176 1382 2182 1958 2202 
L 1958 1088 
L 2490 1088 
L 2490 2234 
C 3014 2266 3552 2317 4058 2400 
L 4019 2784 
C 2790 2630 1357 2618 288 2611 
L 358 2176 
z
M 3347 1869 
L 3347 1485 
L 4525 1485 
L 4525 890 
L 5056 890 
L 5056 5286 
L 4525 5286 
L 4525 1869 
L 3347 1869 
z
M 1107 1318 
L 1107 -371 
L 5197 -371 
L 5197 64 
L 1638 64 
L 1638 1318 
L 1107 1318 
z
" transform="scale(0.015625)"/>
      <path id="NotoSansCJKjp-Regular-ad6c" d="M 320 2432 
L 320 1990 
L 2656 1990 
L 2656 -506 
L 3187 -506 
L 3187 1990 
L 5549 1990 
L 5549 2432 
L 4704 2432 
C 4864 3264 4864 3866 4864 4410 
L 4864 4915 
L 973 4915 
L 973 4486 
L 4339 4486 
L 4339 4410 
C 4339 3872 4339 3258 4160 2432 
L 320 2432 
z
" transform="scale(0.015625)"/>
      <path id="NotoSansCJKjp-Regular-d604" d="M 1965 3840 
C 1197 3840 659 3392 659 2733 
C 659 2074 1197 1626 1965 1626 
C 2739 1626 3277 2074 3277 2733 
C 3277 3392 2739 3840 1965 3840 
z
M 1965 3418 
C 2445 3418 2778 3142 2778 2733 
C 2778 2317 2445 2042 1965 2042 
C 1485 2042 1158 2317 1158 2733 
C 1158 3142 1485 3418 1965 3418 
z
M 3571 2534 
L 3571 2106 
L 4550 2106 
L 4550 870 
L 5082 870 
L 5082 5286 
L 4550 5286 
L 4550 3750 
L 3571 3750 
L 3571 3315 
L 4550 3315 
L 4550 2534 
L 3571 2534 
z
M 1709 5293 
L 1709 4582 
L 326 4582 
L 326 4154 
L 3571 4154 
L 3571 4582 
L 2234 4582 
L 2234 5293 
L 1709 5293 
z
M 1363 1254 
L 1363 -371 
L 5216 -371 
L 5216 64 
L 1894 64 
L 1894 1254 
L 1363 1254 
z
" transform="scale(0.015625)"/>
     </defs>
     <use xlink:href="#NotoSansCJKjp-Regular-69"/>
     <use xlink:href="#NotoSansCJKjp-Regular-43" x="27.499985"/>
     <use xlink:href="#NotoSansCJKjp-Regular-41" x="91.299973"/>
     <use xlink:href="#NotoSansCJKjp-Regular-54" x="152.09996"/>
     <use xlink:href="#NotoSansCJKjp-Regular-20" x="211.999954"/>
     <use xlink:href="#NotoSansCJKjp-Regular-28" x="234.399948"/>
     <use xlink:href="#NotoSansCJKjp-Regular-c6d0" x="268.199936"/>
     <use xlink:href="#NotoSansCJKjp-Regular-20" x="360.199921"/>
     <use xlink:href="#NotoSansCJKjp-Regular-ad6c" x="382.599915"/>
     <use xlink:href="#NotoSansCJKjp-Regular-d604" x="474.599899"/>
     <use xlink:href="#NotoSansCJKjp-Regular-29" x="566.599884"/>
    </g>
   </g>
   <g id="text_18">
    <!-- iCAT-v2 -->
    <g style="fill: #0b0b0b" transform="translate(173.367687 174.852463) scale(0.09 -0.09)">
     <defs>
      <path id="NotoSansCJKjp-Regular-2d" d="M 294 1568 
L 1933 1568 
L 1933 2016 
L 294 2016 
L 294 1568 
z
" transform="scale(0.015625)"/>
      <path id="NotoSansCJKjp-Regular-76" d="M 1338 0 
L 2022 0 
L 3251 3475 
L 2675 3475 
L 2016 1498 
C 1914 1158 1798 806 1696 474 
L 1664 474 
C 1562 806 1453 1158 1344 1498 
L 691 3475 
L 83 3475 
L 1338 0 
z
" transform="scale(0.015625)"/>
     </defs>
     <use xlink:href="#NotoSansCJKjp-Regular-69"/>
     <use xlink:href="#NotoSansCJKjp-Regular-43" x="27.499985"/>
     <use xlink:href="#NotoSansCJKjp-Regular-41" x="91.299973"/>
     <use xlink:href="#NotoSansCJKjp-Regular-54" x="152.09996"/>
     <use xlink:href="#NotoSansCJKjp-Regular-2d" x="211.999954"/>
     <use xlink:href="#NotoSansCJKjp-Regular-76" x="246.699951"/>
     <use xlink:href="#NotoSansCJKjp-Regular-32" x="298.799942"/>
    </g>
   </g>
   <g id="text_19">
    <!-- iCAT-v3 -->
    <g style="fill: #0b0b0b" transform="translate(173.367687 187.113852) scale(0.09 -0.09)">
     <defs>
      <path id="NotoSansCJKjp-Regular-33" d="M 1683 -83 
C 2522 -83 3194 416 3194 1254 
C 3194 1901 2752 2310 2202 2445 
L 2202 2477 
C 2701 2650 3034 3034 3034 3603 
C 3034 4346 2458 4774 1664 4774 
C 1126 4774 710 4538 358 4218 
L 672 3846 
C 941 4115 1267 4301 1645 4301 
C 2138 4301 2438 4006 2438 3558 
C 2438 3053 2112 2662 1139 2662 
L 1139 2214 
C 2227 2214 2598 1843 2598 1274 
C 2598 736 2208 403 1645 403 
C 1114 403 762 659 486 941 
L 186 563 
C 493 224 954 -83 1683 -83 
z
" transform="scale(0.015625)"/>
     </defs>
     <use xlink:href="#NotoSansCJKjp-Regular-69"/>
     <use xlink:href="#NotoSansCJKjp-Regular-43" x="27.499985"/>
     <use xlink:href="#NotoSansCJKjp-Regular-41" x="91.299973"/>
     <use xlink:href="#NotoSansCJKjp-Regular-54" x="152.09996"/>
     <use xlink:href="#NotoSansCJKjp-Regular-2d" x="211.999954"/>
     <use xlink:href="#NotoSansCJKjp-Regular-76" x="246.699951"/>
     <use xlink:href="#NotoSansCJKjp-Regular-33" x="298.799942"/>
    </g>
   </g>
   <g id="text_20">
    <!-- iCAT-v4 (제안) -->
    <g style="fill: #0b0b0b" transform="translate(457.474233 209.984199) scale(0.09 -0.09)">
     <defs>
      <path id="NotoSansCJKjp-Regular-c81c" d="M 4723 5293 
L 4723 -499 
L 5229 -499 
L 5229 5293 
L 4723 5293 
z
M 3565 5158 
L 3565 3213 
L 2611 3213 
L 2611 2778 
L 3565 2778 
L 3565 -198 
L 4064 -198 
L 4064 5158 
L 3565 5158 
z
M 410 4614 
L 410 4179 
L 1504 4179 
L 1504 3654 
C 1504 2598 1050 1542 250 1056 
L 576 659 
C 1152 1018 1562 1696 1766 2483 
C 1971 1754 2362 1133 2925 794 
L 3245 1190 
C 2451 1651 2016 2650 2016 3654 
L 2016 4179 
L 3053 4179 
L 3053 4614 
L 410 4614 
z
" transform="scale(0.015625)"/>
      <path id="NotoSansCJKjp-Regular-c548" d="M 1933 4883 
C 1075 4883 422 4294 422 3456 
C 422 2624 1075 2029 1933 2029 
C 2797 2029 3443 2624 3443 3456 
C 3443 4294 2797 4883 1933 4883 
z
M 1933 4422 
C 2502 4422 2931 4026 2931 3456 
C 2931 2893 2502 2496 1933 2496 
C 1376 2496 941 2893 941 3456 
C 941 4026 1376 4422 1933 4422 
z
M 4282 5293 
L 4282 1030 
L 4813 1030 
L 4813 3091 
L 5664 3091 
L 5664 3533 
L 4813 3533 
L 4813 5293 
L 4282 5293 
z
M 1210 1466 
L 1210 -371 
L 5069 -371 
L 5069 64 
L 1734 64 
L 1734 1466 
L 1210 1466 
z
" transform="scale(0.015625)"/>
     </defs>
     <use xlink:href="#NotoSansCJKjp-Regular-69"/>
     <use xlink:href="#NotoSansCJKjp-Regular-43" x="27.499985"/>
     <use xlink:href="#NotoSansCJKjp-Regular-41" x="91.299973"/>
     <use xlink:href="#NotoSansCJKjp-Regular-54" x="152.09996"/>
     <use xlink:href="#NotoSansCJKjp-Regular-2d" x="211.999954"/>
     <use xlink:href="#NotoSansCJKjp-Regular-76" x="246.699951"/>
     <use xlink:href="#NotoSansCJKjp-Regular-34" x="298.799942"/>
     <use xlink:href="#NotoSansCJKjp-Regular-20" x="354.299927"/>
     <use xlink:href="#NotoSansCJKjp-Regular-28" x="376.699921"/>
     <use xlink:href="#NotoSansCJKjp-Regular-c81c" x="410.499908"/>
     <use xlink:href="#NotoSansCJKjp-Regular-c548" x="502.499893"/>
     <use xlink:href="#NotoSansCJKjp-Regular-29" x="594.499878"/>
    </g>
   </g>
   <g id="text_21">
    <!-- CAT-Best (arm 47) 1.772 -->
    <g style="fill: #52514e" transform="translate(60.054233 222.872412) scale(0.08 -0.08)">
     <defs>
      <path id="NotoSansCJKjp-Regular-42" d="M 646 0 
L 2138 0 
C 3187 0 3917 454 3917 1376 
C 3917 2016 3520 2387 2963 2496 
L 2963 2528 
C 3405 2669 3648 3078 3648 3546 
C 3648 4371 2982 4691 2035 4691 
L 646 4691 
L 646 0 
z
M 1235 2701 
L 1235 4224 
L 1958 4224 
C 2694 4224 3066 4019 3066 3469 
C 3066 2989 2739 2701 1933 2701 
L 1235 2701 
z
M 1235 474 
L 1235 2240 
L 2054 2240 
C 2880 2240 3334 1978 3334 1395 
C 3334 762 2861 474 2054 474 
L 1235 474 
z
" transform="scale(0.015625)"/>
      <path id="NotoSansCJKjp-Regular-65" d="M 1997 -83 
C 2464 -83 2835 70 3136 269 
L 2931 659 
C 2669 486 2400 384 2061 384 
C 1402 384 947 858 909 1600 
L 3251 1600 
C 3264 1690 3277 1805 3277 1933 
C 3277 2925 2778 3565 1888 3565 
C 1094 3565 333 2867 333 1734 
C 333 589 1069 -83 1997 -83 
z
M 902 2016 
C 973 2707 1408 3098 1901 3098 
C 2445 3098 2765 2720 2765 2016 
L 902 2016 
z
" transform="scale(0.015625)"/>
      <path id="NotoSansCJKjp-Regular-73" d="M 1498 -83 
C 2317 -83 2758 384 2758 947 
C 2758 1606 2208 1811 1702 2003 
C 1312 2150 954 2278 954 2605 
C 954 2880 1158 3110 1600 3110 
C 1907 3110 2150 2976 2387 2803 
L 2669 3168 
C 2406 3386 2022 3565 1594 3565 
C 832 3565 397 3130 397 2579 
C 397 1984 922 1754 1408 1574 
C 1792 1434 2202 1267 2202 915 
C 2202 614 1978 371 1517 371 
C 1101 371 794 538 486 787 
L 205 397 
C 531 122 1005 -83 1498 -83 
z
" transform="scale(0.015625)"/>
      <path id="NotoSansCJKjp-Regular-74" d="M 1677 -83 
C 1894 -83 2125 -19 2323 45 
L 2208 486 
C 2093 435 1939 390 1811 390 
C 1408 390 1274 634 1274 1056 
L 1274 3002 
L 2221 3002 
L 2221 3475 
L 1274 3475 
L 1274 4454 
L 787 4454 
L 723 3475 
L 173 3443 
L 173 3002 
L 691 3002 
L 691 1075 
C 691 378 941 -83 1677 -83 
z
" transform="scale(0.015625)"/>
      <path id="NotoSansCJKjp-Regular-61" d="M 1389 -83 
C 1818 -83 2208 141 2541 416 
L 2560 416 
L 2611 0 
L 3091 0 
L 3091 2138 
C 3091 3002 2739 3565 1888 3565 
C 1325 3565 838 3315 525 3110 
L 749 2707 
C 1024 2893 1389 3078 1792 3078 
C 2362 3078 2509 2650 2509 2202 
C 1030 2035 378 1658 378 902 
C 378 275 806 -83 1389 -83 
z
M 1555 390 
C 1210 390 941 544 941 941 
C 941 1389 1338 1677 2509 1811 
L 2509 845 
C 2170 544 1888 390 1555 390 
z
" transform="scale(0.015625)"/>
      <path id="NotoSansCJKjp-Regular-72" d="M 589 0 
L 1178 0 
L 1178 2234 
C 1408 2822 1760 3040 2048 3040 
C 2195 3040 2272 3021 2387 2982 
L 2496 3488 
C 2387 3546 2278 3565 2125 3565 
C 1741 3565 1382 3283 1139 2842 
L 1126 2842 
L 1069 3475 
L 589 3475 
L 589 0 
z
" transform="scale(0.015625)"/>
      <path id="NotoSansCJKjp-Regular-6d" d="M 589 0 
L 1178 0 
L 1178 2522 
C 1491 2880 1786 3053 2048 3053 
C 2490 3053 2694 2778 2694 2125 
L 2694 0 
L 3277 0 
L 3277 2522 
C 3603 2880 3885 3053 4154 3053 
C 4595 3053 4800 2778 4800 2125 
L 4800 0 
L 5382 0 
L 5382 2202 
C 5382 3085 5043 3565 4333 3565 
C 3904 3565 3546 3290 3181 2899 
C 3040 3309 2758 3565 2221 3565 
C 1805 3565 1446 3302 1139 2970 
L 1126 2970 
L 1069 3475 
L 589 3475 
L 589 0 
z
" transform="scale(0.015625)"/>
     </defs>
     <use xlink:href="#NotoSansCJKjp-Regular-43"/>
     <use xlink:href="#NotoSansCJKjp-Regular-41" x="63.799988"/>
     <use xlink:href="#NotoSansCJKjp-Regular-54" x="124.599976"/>
     <use xlink:href="#NotoSansCJKjp-Regular-2d" x="184.499969"/>
     <use xlink:href="#NotoSansCJKjp-Regular-42" x="219.199966"/>
     <use xlink:href="#NotoSansCJKjp-Regular-65" x="284.899963"/>
     <use xlink:href="#NotoSansCJKjp-Regular-73" x="340.299957"/>
     <use xlink:href="#NotoSansCJKjp-Regular-74" x="387.099945"/>
     <use xlink:href="#NotoSansCJKjp-Regular-20" x="424.799942"/>
     <use xlink:href="#NotoSansCJKjp-Regular-28" x="447.199936"/>
     <use xlink:href="#NotoSansCJKjp-Regular-61" x="480.999924"/>
     <use xlink:href="#NotoSansCJKjp-Regular-72" x="537.299911"/>
     <use xlink:href="#NotoSansCJKjp-Regular-6d" x="576.099899"/>
     <use xlink:href="#NotoSansCJKjp-Regular-20" x="668.69989"/>
     <use xlink:href="#NotoSansCJKjp-Regular-34" x="691.099884"/>
     <use xlink:href="#NotoSansCJKjp-Regular-37" x="746.599869"/>
     <use xlink:href="#NotoSansCJKjp-Regular-29" x="802.099854"/>
     <use xlink:href="#NotoSansCJKjp-Regular-20" x="835.899841"/>
     <use xlink:href="#NotoSansCJKjp-Regular-31" x="858.299835"/>
     <use xlink:href="#NotoSansCJKjp-Regular-2e" x="913.79982"/>
     <use xlink:href="#NotoSansCJKjp-Regular-37" x="941.599808"/>
     <use xlink:href="#NotoSansCJKjp-Regular-37" x="997.099792"/>
     <use xlink:href="#NotoSansCJKjp-Regular-32" x="1052.599777"/>
    </g>
   </g>
   <g id="text_22">
    <!-- CAT-Robust (arm 50) 1.814 -->
    <g style="fill: #52514e" transform="translate(60.054233 199.587612) scale(0.08 -0.08)">
     <defs>
      <path id="NotoSansCJKjp-Regular-52" d="M 1235 2464 
L 1235 4211 
L 2022 4211 
C 2758 4211 3162 3994 3162 3379 
C 3162 2765 2758 2464 2022 2464 
L 1235 2464 
z
M 3219 0 
L 3885 0 
L 2694 2054 
C 3328 2208 3750 2643 3750 3379 
C 3750 4352 3066 4691 2112 4691 
L 646 4691 
L 646 0 
L 1235 0 
L 1235 1990 
L 2080 1990 
L 3219 0 
z
" transform="scale(0.015625)"/>
      <path id="NotoSansCJKjp-Regular-6f" d="M 1939 -83 
C 2790 -83 3546 582 3546 1734 
C 3546 2893 2790 3565 1939 3565 
C 1088 3565 333 2893 333 1734 
C 333 582 1088 -83 1939 -83 
z
M 1939 403 
C 1338 403 934 934 934 1734 
C 934 2534 1338 3072 1939 3072 
C 2541 3072 2950 2534 2950 1734 
C 2950 934 2541 403 1939 403 
z
" transform="scale(0.015625)"/>
      <path id="NotoSansCJKjp-Regular-62" d="M 2118 -83 
C 2912 -83 3629 602 3629 1792 
C 3629 2867 3142 3565 2246 3565 
C 1856 3565 1472 3347 1152 3078 
L 1178 3699 
L 1178 5094 
L 589 5094 
L 589 0 
L 1056 0 
L 1107 358 
L 1133 358 
C 1434 83 1798 -83 2118 -83 
z
M 2022 410 
C 1792 410 1478 499 1178 768 
L 1178 2598 
C 1504 2906 1811 3072 2099 3072 
C 2765 3072 3021 2560 3021 1786 
C 3021 928 2598 410 2022 410 
z
" transform="scale(0.015625)"/>
      <path id="NotoSansCJKjp-Regular-75" d="M 1606 -83 
C 2080 -83 2426 166 2752 544 
L 2771 544 
L 2816 0 
L 3302 0 
L 3302 3475 
L 2720 3475 
L 2720 1011 
C 2387 602 2138 422 1779 422 
C 1318 422 1126 698 1126 1344 
L 1126 3475 
L 538 3475 
L 538 1274 
C 538 384 870 -83 1606 -83 
z
" transform="scale(0.015625)"/>
     </defs>
     <use xlink:href="#NotoSansCJKjp-Regular-43"/>
     <use xlink:href="#NotoSansCJKjp-Regular-41" x="63.799988"/>
     <use xlink:href="#NotoSansCJKjp-Regular-54" x="124.599976"/>
     <use xlink:href="#NotoSansCJKjp-Regular-2d" x="184.499969"/>
     <use xlink:href="#NotoSansCJKjp-Regular-52" x="219.199966"/>
     <use xlink:href="#NotoSansCJKjp-Regular-6f" x="282.699951"/>
     <use xlink:href="#NotoSansCJKjp-Regular-62" x="343.299942"/>
     <use xlink:href="#NotoSansCJKjp-Regular-75" x="405.09993"/>
     <use xlink:href="#NotoSansCJKjp-Regular-73" x="465.799927"/>
     <use xlink:href="#NotoSansCJKjp-Regular-74" x="512.599915"/>
     <use xlink:href="#NotoSansCJKjp-Regular-20" x="550.299911"/>
     <use xlink:href="#NotoSansCJKjp-Regular-28" x="572.699905"/>
     <use xlink:href="#NotoSansCJKjp-Regular-61" x="606.499893"/>
     <use xlink:href="#NotoSansCJKjp-Regular-72" x="662.799881"/>
     <use xlink:href="#NotoSansCJKjp-Regular-6d" x="701.599869"/>
     <use xlink:href="#NotoSansCJKjp-Regular-20" x="794.19986"/>
     <use xlink:href="#NotoSansCJKjp-Regular-35" x="816.599854"/>
     <use xlink:href="#NotoSansCJKjp-Regular-30" x="872.099838"/>
     <use xlink:href="#NotoSansCJKjp-Regular-29" x="927.599823"/>
     <use xlink:href="#NotoSansCJKjp-Regular-20" x="961.399811"/>
     <use xlink:href="#NotoSansCJKjp-Regular-31" x="983.799805"/>
     <use xlink:href="#NotoSansCJKjp-Regular-2e" x="1039.299789"/>
     <use xlink:href="#NotoSansCJKjp-Regular-38" x="1067.099777"/>
     <use xlink:href="#NotoSansCJKjp-Regular-31" x="1122.599762"/>
     <use xlink:href="#NotoSansCJKjp-Regular-34" x="1178.099747"/>
    </g>
   </g>
   <g id="text_23">
    <!-- 그림 2. 실행 시간에 따른 누적 WAF: iCAT-v4는 10시간에 CAT-Robust 수준 도달 -->
    <g style="fill: #0b0b0b" transform="translate(47.879688 15.557344) scale(0.105 -0.105)">
     <defs>
      <path id="NotoSansCJKjp-Regular-adf8" d="M 320 787 
L 320 346 
L 5549 346 
L 5549 787 
L 320 787 
z
M 890 4678 
L 890 4243 
L 4326 4243 
L 4326 4096 
C 4326 3379 4326 2515 4096 1338 
L 4634 1280 
C 4851 2534 4851 3360 4851 4096 
L 4851 4678 
L 890 4678 
z
" transform="scale(0.015625)"/>
      <path id="NotoSansCJKjp-Regular-b9bc" d="M 4531 5286 
L 4531 1856 
L 5062 1856 
L 5062 5286 
L 4531 5286 
z
M 1325 1542 
L 1325 -422 
L 5062 -422 
L 5062 1542 
L 1325 1542 
z
M 4544 1114 
L 4544 13 
L 1843 13 
L 1843 1114 
L 4544 1114 
z
M 608 4941 
L 608 4512 
L 2714 4512 
L 2714 3776 
L 621 3776 
L 621 2131 
L 1088 2131 
C 2157 2131 2944 2163 3898 2317 
L 3834 2752 
C 2918 2598 2163 2573 1139 2573 
L 1139 3360 
L 3232 3360 
L 3232 4941 
L 608 4941 
z
" transform="scale(0.015625)"/>
      <path id="NotoSansCJKjp-Regular-c5d0" d="M 4730 5293 
L 4730 -499 
L 5242 -499 
L 5242 5293 
L 4730 5293 
z
M 1619 4314 
C 2080 4314 2368 3731 2368 2797 
C 2368 1856 2080 1274 1619 1274 
C 1171 1274 883 1856 883 2797 
C 883 3731 1171 4314 1619 4314 
z
M 1619 4806 
C 877 4806 390 4032 390 2797 
C 390 1555 877 774 1619 774 
C 2336 774 2810 1472 2854 2605 
L 3578 2605 
L 3578 -205 
L 4083 -205 
L 4083 5171 
L 3578 5171 
L 3578 3040 
L 2854 3040 
C 2797 4134 2323 4806 1619 4806 
z
" transform="scale(0.015625)"/>
      <path id="NotoSansCJKjp-Regular-b530" d="M 4333 5299 
L 4333 -499 
L 4864 -499 
L 4864 2573 
L 5696 2573 
L 5696 3021 
L 4864 3021 
L 4864 5299 
L 4333 5299 
z
M 486 4685 
L 486 1018 
L 742 1018 
C 1094 1018 1523 1024 2061 1139 
L 2010 1581 
C 1638 1498 1299 1472 1018 1466 
L 1018 4250 
L 1952 4250 
L 1952 4685 
L 486 4685 
z
M 2278 4685 
L 2278 1018 
L 2554 1018 
C 3149 1018 3546 1030 4038 1152 
L 3987 1594 
C 3597 1498 3245 1466 2797 1459 
L 2797 4250 
L 3808 4250 
L 3808 4685 
L 2278 4685 
z
" transform="scale(0.015625)"/>
      <path id="NotoSansCJKjp-Regular-b978" d="M 314 2086 
L 314 1651 
L 5562 1651 
L 5562 2086 
L 314 2086 
z
M 1005 1197 
L 1005 -371 
L 5018 -371 
L 5018 64 
L 1536 64 
L 1536 1197 
L 1005 1197 
z
M 992 3027 
L 992 2611 
L 5011 2611 
L 5011 3027 
L 1517 3027 
L 1517 3661 
L 4890 3661 
L 4890 5101 
L 979 5101 
L 979 4678 
L 4365 4678 
L 4365 4058 
L 992 4058 
L 992 3027 
z
" transform="scale(0.015625)"/>
      <path id="NotoSansCJKjp-Regular-3a" d="M 890 2496 
C 1120 2496 1312 2675 1312 2944 
C 1312 3206 1120 3392 890 3392 
C 653 3392 467 3206 467 2944 
C 467 2675 653 2496 890 2496 
z
M 890 -83 
C 1120 -83 1312 96 1312 358 
C 1312 627 1120 806 890 806 
C 653 806 467 627 467 358 
C 467 96 653 -83 890 -83 
z
" transform="scale(0.015625)"/>
      <path id="NotoSansCJKjp-Regular-b294" d="M 314 2342 
L 314 1914 
L 5562 1914 
L 5562 2342 
L 314 2342 
z
M 1024 5082 
L 1024 3123 
L 4960 3123 
L 4960 3552 
L 1549 3552 
L 1549 5082 
L 1024 5082 
z
M 986 1331 
L 986 -358 
L 4992 -358 
L 4992 77 
L 1517 77 
L 1517 1331 
L 986 1331 
z
" transform="scale(0.015625)"/>
      <path id="NotoSansCJKjp-Regular-c900" d="M 800 5005 
L 800 4576 
L 2592 4576 
C 2592 3872 1664 3296 634 3155 
L 832 2733 
C 1779 2867 2624 3334 2931 4006 
C 3245 3334 4096 2867 5037 2733 
L 5235 3155 
C 4211 3296 3277 3872 3277 4576 
L 5075 4576 
L 5075 5005 
L 800 5005 
z
M 314 2317 
L 314 1882 
L 2714 1882 
L 2714 710 
L 3238 710 
L 3238 1882 
L 5562 1882 
L 5562 2317 
L 314 2317 
z
M 979 1274 
L 979 -371 
L 4979 -371 
L 4979 64 
L 1510 64 
L 1510 1274 
L 979 1274 
z
" transform="scale(0.015625)"/>
      <path id="NotoSansCJKjp-Regular-b3c4" d="M 986 4826 
L 986 2157 
L 2669 2157 
L 2669 672 
L 320 672 
L 320 230 
L 5568 230 
L 5568 672 
L 3194 672 
L 3194 2157 
L 4960 2157 
L 4960 2586 
L 1517 2586 
L 1517 4390 
L 4902 4390 
L 4902 4826 
L 986 4826 
z
" transform="scale(0.015625)"/>
      <path id="NotoSansCJKjp-Regular-b2ec" d="M 576 4960 
L 576 2592 
L 1024 2592 
C 2214 2592 2918 2624 3731 2797 
L 3667 3219 
C 2893 3066 2221 3021 1101 3021 
L 1101 4531 
L 3130 4531 
L 3130 4960 
L 576 4960 
z
M 4282 5293 
L 4282 2381 
L 4813 2381 
L 4813 3635 
L 5664 3635 
L 5664 4077 
L 4813 4077 
L 4813 5293 
L 4282 5293 
z
M 1152 13 
L 1152 -422 
L 5018 -422 
L 5018 13 
L 1670 13 
L 1670 653 
L 4813 653 
L 4813 2086 
L 1139 2086 
L 1139 1658 
L 4288 1658 
L 4288 1062 
L 1152 1062 
L 1152 13 
z
" transform="scale(0.015625)"/>
     </defs>
     <use xlink:href="#NotoSansCJKjp-Regular-adf8"/>
     <use xlink:href="#NotoSansCJKjp-Regular-b9bc" x="91.999985"/>
     <use xlink:href="#NotoSansCJKjp-Regular-20" x="183.999969"/>
     <use xlink:href="#NotoSansCJKjp-Regular-32" x="206.399963"/>
     <use xlink:href="#NotoSansCJKjp-Regular-2e" x="261.899948"/>
     <use xlink:href="#NotoSansCJKjp-Regular-20" x="289.699936"/>
     <use xlink:href="#NotoSansCJKjp-Regular-c2e4" x="312.09993"/>
     <use xlink:href="#NotoSansCJKjp-Regular-d589" x="404.099915"/>
     <use xlink:href="#NotoSansCJKjp-Regular-20" x="496.099899"/>
     <use xlink:href="#NotoSansCJKjp-Regular-c2dc" x="518.499893"/>
     <use xlink:href="#NotoSansCJKjp-Regular-ac04" x="610.499878"/>
     <use xlink:href="#NotoSansCJKjp-Regular-c5d0" x="702.499863"/>
     <use xlink:href="#NotoSansCJKjp-Regular-20" x="794.499847"/>
     <use xlink:href="#NotoSansCJKjp-Regular-b530" x="816.899841"/>
     <use xlink:href="#NotoSansCJKjp-Regular-b978" x="908.899826"/>
     <use xlink:href="#NotoSansCJKjp-Regular-20" x="1000.899811"/>
     <use xlink:href="#NotoSansCJKjp-Regular-b204" x="1023.299805"/>
     <use xlink:href="#NotoSansCJKjp-Regular-c801" x="1115.299789"/>
     <use xlink:href="#NotoSansCJKjp-Regular-20" x="1207.299774"/>
     <use xlink:href="#NotoSansCJKjp-Regular-57" x="1229.699768"/>
     <use xlink:href="#NotoSansCJKjp-Regular-41" x="1317.499756"/>
     <use xlink:href="#NotoSansCJKjp-Regular-46" x="1378.299744"/>
     <use xlink:href="#NotoSansCJKjp-Regular-3a" x="1433.499741"/>
     <use xlink:href="#NotoSansCJKjp-Regular-20" x="1461.299728"/>
     <use xlink:href="#NotoSansCJKjp-Regular-69" x="1483.699722"/>
     <use xlink:href="#NotoSansCJKjp-Regular-43" x="1511.199707"/>
     <use xlink:href="#NotoSansCJKjp-Regular-41" x="1574.999695"/>
     <use xlink:href="#NotoSansCJKjp-Regular-54" x="1635.799683"/>
     <use xlink:href="#NotoSansCJKjp-Regular-2d" x="1695.699677"/>
     <use xlink:href="#NotoSansCJKjp-Regular-76" x="1730.399673"/>
     <use xlink:href="#NotoSansCJKjp-Regular-34" x="1782.499664"/>
     <use xlink:href="#NotoSansCJKjp-Regular-b294" x="1837.999649"/>
     <use xlink:href="#NotoSansCJKjp-Regular-20" x="1929.999634"/>
     <use xlink:href="#NotoSansCJKjp-Regular-31" x="1952.399628"/>
     <use xlink:href="#NotoSansCJKjp-Regular-30" x="2007.899612"/>
     <use xlink:href="#NotoSansCJKjp-Regular-c2dc" x="2063.399597"/>
     <use xlink:href="#NotoSansCJKjp-Regular-ac04" x="2155.399582"/>
     <use xlink:href="#NotoSansCJKjp-Regular-c5d0" x="2247.399567"/>
     <use xlink:href="#NotoSansCJKjp-Regular-20" x="2339.399551"/>
     <use xlink:href="#NotoSansCJKjp-Regular-43" x="2361.799545"/>
     <use xlink:href="#NotoSansCJKjp-Regular-41" x="2425.599533"/>
     <use xlink:href="#NotoSansCJKjp-Regular-54" x="2486.399521"/>
     <use xlink:href="#NotoSansCJKjp-Regular-2d" x="2546.299515"/>
     <use xlink:href="#NotoSansCJKjp-Regular-52" x="2580.999512"/>
     <use xlink:href="#NotoSansCJKjp-Regular-6f" x="2644.499496"/>
     <use xlink:href="#NotoSansCJKjp-Regular-62" x="2705.099487"/>
     <use xlink:href="#NotoSansCJKjp-Regular-75" x="2766.899475"/>
     <use xlink:href="#NotoSansCJKjp-Regular-73" x="2827.599472"/>
     <use xlink:href="#NotoSansCJKjp-Regular-74" x="2874.39946"/>
     <use xlink:href="#NotoSansCJKjp-Regular-20" x="2912.099457"/>
     <use xlink:href="#NotoSansCJKjp-Regular-c218" x="2934.499451"/>
     <use xlink:href="#NotoSansCJKjp-Regular-c900" x="3026.499435"/>
     <use xlink:href="#NotoSansCJKjp-Regular-20" x="3118.49942"/>
     <use xlink:href="#NotoSansCJKjp-Regular-b3c4" x="3140.899414"/>
     <use xlink:href="#NotoSansCJKjp-Regular-b2ec" x="3232.899399"/>
    </g>
    <!-- FIO-Fast · 명시 계측 · 정책별 1회 실행 · 초기 15분 제외 -->
    <g style="fill: #0b0b0b" transform="translate(47.879688 27.991312) scale(0.105 -0.105)">
     <defs>
      <path id="NotoSansCJKjp-Regular-49" d="M 646 0 
L 1235 0 
L 1235 4691 
L 646 4691 
L 646 0 
z
" transform="scale(0.015625)"/>
      <path id="NotoSansCJKjp-Regular-4f" d="M 2374 -83 
C 3552 -83 4378 858 4378 2362 
C 4378 3866 3552 4774 2374 4774 
C 1197 4774 371 3866 371 2362 
C 371 858 1197 -83 2374 -83 
z
M 2374 435 
C 1530 435 979 1190 979 2362 
C 979 3533 1530 4256 2374 4256 
C 3219 4256 3770 3533 3770 2362 
C 3770 1190 3219 435 2374 435 
z
" transform="scale(0.015625)"/>
      <path id="NotoSansCJKjp-Regular-b7" d="M 1766 1875 
C 1997 1875 2195 2067 2195 2323 
C 2195 2592 1997 2778 1766 2778 
C 1536 2778 1350 2592 1350 2323 
C 1350 2067 1536 1875 1766 1875 
z
" transform="scale(0.015625)"/>
      <path id="NotoSansCJKjp-Regular-ba85" d="M 2707 4422 
L 2707 2707 
L 1107 2707 
L 1107 4422 
L 2707 4422 
z
M 3174 1696 
C 1978 1696 1248 1293 1248 602 
C 1248 -90 1978 -486 3174 -486 
C 4371 -486 5101 -90 5101 602 
C 5101 1293 4371 1696 3174 1696 
z
M 3174 1280 
C 4045 1280 4576 1030 4576 602 
C 4576 179 4045 -70 3174 -70 
C 2304 -70 1773 179 1773 602 
C 1773 1030 2304 1280 3174 1280 
z
M 4550 3923 
L 4550 3206 
L 3226 3206 
L 3226 3923 
L 4550 3923 
z
M 589 4851 
L 589 2278 
L 3226 2278 
L 3226 2771 
L 4550 2771 
L 4550 1869 
L 5082 1869 
L 5082 5293 
L 4550 5293 
L 4550 4352 
L 3226 4352 
L 3226 4851 
L 589 4851 
z
" transform="scale(0.015625)"/>
      <path id="NotoSansCJKjp-Regular-acc4" d="M 4730 5293 
L 4730 -499 
L 5235 -499 
L 5235 5293 
L 4730 5293 
z
M 570 4557 
L 570 4122 
L 2266 4122 
C 2170 2912 1555 1875 314 1133 
L 627 749 
C 1715 1402 2342 2272 2618 3251 
L 3565 3251 
L 3565 2234 
L 2522 2234 
L 2522 1798 
L 3565 1798 
L 3565 -205 
L 4070 -205 
L 4070 5139 
L 3565 5139 
L 3565 3686 
L 2714 3686 
C 2765 3968 2790 4262 2790 4557 
L 570 4557 
z
" transform="scale(0.015625)"/>
      <path id="NotoSansCJKjp-Regular-ce21" d="M 320 2368 
L 320 1939 
L 5549 1939 
L 5549 2368 
L 320 2368 
z
M 902 1325 
L 902 896 
L 4371 896 
L 4371 -499 
L 4902 -499 
L 4902 1325 
L 902 1325 
z
M 858 4710 
L 858 4288 
L 2643 4288 
C 2598 3642 1722 3200 627 3098 
L 794 2688 
C 1747 2790 2586 3136 2931 3712 
C 3283 3136 4115 2790 5069 2688 
L 5235 3098 
C 4141 3200 3264 3642 3219 4288 
L 5018 4288 
L 5018 4710 
L 3194 4710 
L 3194 5306 
L 2669 5306 
L 2669 4710 
L 858 4710 
z
" transform="scale(0.015625)"/>
      <path id="NotoSansCJKjp-Regular-c815" d="M 3174 1664 
C 1978 1664 1248 1267 1248 582 
C 1248 -96 1978 -493 3174 -493 
C 4371 -493 5101 -96 5101 582 
C 5101 1267 4371 1664 3174 1664 
z
M 3174 1248 
C 4045 1248 4576 1005 4576 582 
C 4576 166 4045 -77 3174 -77 
C 2304 -77 1773 166 1773 582 
C 1773 1005 2304 1248 3174 1248 
z
M 4550 5293 
L 4550 3789 
L 3411 3789 
L 3411 3347 
L 4550 3347 
L 4550 1843 
L 5082 1843 
L 5082 5293 
L 4550 5293 
z
M 506 4870 
L 506 4435 
L 1792 4435 
L 1792 4237 
C 1792 3411 1203 2630 339 2317 
L 614 1894 
C 1299 2157 1824 2688 2074 3360 
C 2323 2771 2816 2291 3462 2054 
L 3731 2477 
C 2893 2771 2330 3494 2330 4243 
L 2330 4435 
L 3597 4435 
L 3597 4870 
L 506 4870 
z
" transform="scale(0.015625)"/>
      <path id="NotoSansCJKjp-Regular-cc45" d="M 1318 1434 
L 1318 998 
L 4672 998 
L 4672 -499 
L 5197 -499 
L 5197 1434 
L 1318 1434 
z
M 1523 5222 
L 1523 4531 
L 480 4531 
L 480 4102 
L 1523 4102 
L 1523 4038 
C 1523 3309 1094 2611 365 2310 
L 621 1914 
C 1190 2157 1587 2618 1786 3174 
C 1990 2662 2387 2240 2944 2016 
L 3194 2419 
C 2470 2694 2029 3354 2029 4038 
L 2029 4102 
L 3053 4102 
L 3053 4531 
L 2029 4531 
L 2029 5222 
L 1523 5222 
z
M 3456 5184 
L 3456 1773 
L 3962 1773 
L 3962 3309 
L 4691 3309 
L 4691 1741 
L 5197 1741 
L 5197 5286 
L 4691 5286 
L 4691 3744 
L 3962 3744 
L 3962 5184 
L 3456 5184 
z
" transform="scale(0.015625)"/>
      <path id="NotoSansCJKjp-Regular-bcc4" d="M 1133 3782 
L 2694 3782 
L 2694 2931 
L 1133 2931 
L 1133 3782 
z
M 4550 4058 
L 4550 3418 
L 3219 3418 
L 3219 4058 
L 4550 4058 
z
M 602 5024 
L 602 2502 
L 3219 2502 
L 3219 3002 
L 4550 3002 
L 4550 2272 
L 5075 2272 
L 5075 5293 
L 4550 5293 
L 4550 4467 
L 3219 4467 
L 3219 5024 
L 2694 5024 
L 2694 4198 
L 1133 4198 
L 1133 5024 
L 602 5024 
z
M 1363 6 
L 1363 -422 
L 5293 -422 
L 5293 6 
L 1888 6 
L 1888 614 
L 5075 614 
L 5075 1990 
L 1350 1990 
L 1350 1568 
L 4550 1568 
L 4550 1018 
L 1363 1018 
L 1363 6 
z
" transform="scale(0.015625)"/>
      <path id="NotoSansCJKjp-Regular-d68c" d="M 4506 5293 
L 4506 -499 
L 5037 -499 
L 5037 5293 
L 4506 5293 
z
M 2227 3411 
C 2758 3411 3117 3149 3117 2752 
C 3117 2355 2758 2099 2227 2099 
C 1709 2099 1344 2355 1344 2752 
C 1344 3149 1709 3411 2227 3411 
z
M 2227 3827 
C 1402 3827 845 3398 845 2752 
C 845 2176 1286 1779 1971 1696 
L 1971 1075 
C 1395 1056 838 1050 352 1050 
L 429 602 
C 1491 602 2893 621 4173 832 
L 4134 1229 
C 3610 1158 3053 1120 2502 1094 
L 2502 1702 
C 3181 1786 3622 2182 3622 2752 
C 3622 3398 3059 3827 2227 3827 
z
M 1971 5286 
L 1971 4582 
L 474 4582 
L 474 4154 
L 3987 4154 
L 3987 4582 
L 2502 4582 
L 2502 5286 
L 1971 5286 
z
" transform="scale(0.015625)"/>
      <path id="NotoSansCJKjp-Regular-cd08" d="M 2675 1984 
L 2675 672 
L 320 672 
L 320 230 
L 5568 230 
L 5568 672 
L 3200 672 
L 3200 1984 
L 2675 1984 
z
M 2675 5171 
L 2675 4378 
L 806 4378 
L 806 3942 
L 2669 3942 
C 2662 3053 1734 2381 608 2202 
L 813 1786 
C 1747 1946 2573 2413 2938 3123 
C 3302 2413 4134 1946 5062 1786 
L 5267 2202 
C 4141 2381 3213 3053 3206 3942 
L 5069 3942 
L 5069 4378 
L 3200 4378 
L 3200 5171 
L 2675 5171 
z
" transform="scale(0.015625)"/>
      <path id="NotoSansCJKjp-Regular-ae30" d="M 4538 5293 
L 4538 -499 
L 5069 -499 
L 5069 5293 
L 4538 5293 
z
M 659 4666 
L 659 4237 
L 2829 4237 
C 2720 2854 1939 1754 390 1011 
L 672 582 
C 2611 1523 3366 2995 3366 4666 
L 659 4666 
z
" transform="scale(0.015625)"/>
      <path id="NotoSansCJKjp-Regular-bd84" d="M 1011 5107 
L 1011 2790 
L 4864 2790 
L 4864 5107 
L 4339 5107 
L 4339 4371 
L 1536 4371 
L 1536 5107 
L 1011 5107 
z
M 1536 3962 
L 4339 3962 
L 4339 3219 
L 1536 3219 
L 1536 3962 
z
M 314 2234 
L 314 1805 
L 2714 1805 
L 2714 685 
L 3238 685 
L 3238 1805 
L 5562 1805 
L 5562 2234 
L 314 2234 
z
M 979 1203 
L 979 -371 
L 4979 -371 
L 4979 64 
L 1504 64 
L 1504 1203 
L 979 1203 
z
" transform="scale(0.015625)"/>
      <path id="NotoSansCJKjp-Regular-c678" d="M 2195 4454 
C 2790 4454 3226 4096 3226 3552 
C 3226 3021 2790 2650 2195 2650 
C 1600 2650 1165 3021 1165 3552 
C 1165 4096 1600 4454 2195 4454 
z
M 4506 5293 
L 4506 -506 
L 5037 -506 
L 5037 5293 
L 4506 5293 
z
M 422 755 
C 1459 755 2867 762 4173 1005 
L 4128 1395 
C 3590 1312 3021 1267 2458 1235 
L 2458 2214 
C 3219 2310 3744 2829 3744 3552 
C 3744 4358 3098 4915 2195 4915 
C 1293 4915 640 4358 640 3552 
C 640 2829 1165 2310 1926 2214 
L 1926 1216 
C 1357 1197 819 1197 352 1197 
L 422 755 
z
" transform="scale(0.015625)"/>
     </defs>
     <use xlink:href="#NotoSansCJKjp-Regular-46"/>
     <use xlink:href="#NotoSansCJKjp-Regular-49" x="55.199997"/>
     <use xlink:href="#NotoSansCJKjp-Regular-4f" x="84.499985"/>
     <use xlink:href="#NotoSansCJKjp-Regular-2d" x="158.699966"/>
     <use xlink:href="#NotoSansCJKjp-Regular-46" x="193.399963"/>
     <use xlink:href="#NotoSansCJKjp-Regular-61" x="248.59996"/>
     <use xlink:href="#NotoSansCJKjp-Regular-73" x="304.899948"/>
     <use xlink:href="#NotoSansCJKjp-Regular-74" x="351.699936"/>
     <use xlink:href="#NotoSansCJKjp-Regular-20" x="389.399933"/>
     <use xlink:href="#NotoSansCJKjp-Regular-b7" x="411.799927"/>
     <use xlink:href="#NotoSansCJKjp-Regular-20" x="467.899918"/>
     <use xlink:href="#NotoSansCJKjp-Regular-ba85" x="490.299911"/>
     <use xlink:href="#NotoSansCJKjp-Regular-c2dc" x="582.299896"/>
     <use xlink:href="#NotoSansCJKjp-Regular-20" x="674.299881"/>
     <use xlink:href="#NotoSansCJKjp-Regular-acc4" x="696.699875"/>
     <use xlink:href="#NotoSansCJKjp-Regular-ce21" x="788.69986"/>
     <use xlink:href="#NotoSansCJKjp-Regular-20" x="880.699844"/>
     <use xlink:href="#NotoSansCJKjp-Regular-b7" x="903.099838"/>
     <use xlink:href="#NotoSansCJKjp-Regular-20" x="959.199829"/>
     <use xlink:href="#NotoSansCJKjp-Regular-c815" x="981.599823"/>
     <use xlink:href="#NotoSansCJKjp-Regular-cc45" x="1073.599808"/>
     <use xlink:href="#NotoSansCJKjp-Regular-bcc4" x="1165.599792"/>
     <use xlink:href="#NotoSansCJKjp-Regular-20" x="1257.599777"/>
     <use xlink:href="#NotoSansCJKjp-Regular-31" x="1279.999771"/>
     <use xlink:href="#NotoSansCJKjp-Regular-d68c" x="1335.499756"/>
     <use xlink:href="#NotoSansCJKjp-Regular-20" x="1427.499741"/>
     <use xlink:href="#NotoSansCJKjp-Regular-c2e4" x="1449.899734"/>
     <use xlink:href="#NotoSansCJKjp-Regular-d589" x="1541.899719"/>
     <use xlink:href="#NotoSansCJKjp-Regular-20" x="1633.899704"/>
     <use xlink:href="#NotoSansCJKjp-Regular-b7" x="1656.299698"/>
     <use xlink:href="#NotoSansCJKjp-Regular-20" x="1712.399689"/>
     <use xlink:href="#NotoSansCJKjp-Regular-cd08" x="1734.799683"/>
     <use xlink:href="#NotoSansCJKjp-Regular-ae30" x="1826.799667"/>
     <use xlink:href="#NotoSansCJKjp-Regular-20" x="1918.799652"/>
     <use xlink:href="#NotoSansCJKjp-Regular-31" x="1941.199646"/>
     <use xlink:href="#NotoSansCJKjp-Regular-35" x="1996.699631"/>
     <use xlink:href="#NotoSansCJKjp-Regular-bd84" x="2052.199615"/>
     <use xlink:href="#NotoSansCJKjp-Regular-20" x="2144.1996"/>
     <use xlink:href="#NotoSansCJKjp-Regular-c81c" x="2166.599594"/>
     <use xlink:href="#NotoSansCJKjp-Regular-c678" x="2258.599579"/>
    </g>
   </g>
  </g>
 </g>
 <defs>
  <clipPath id="p8908397235">
   <rect x="47.879688" y="33.991312" width="446.4" height="210.672"/>
  </clipPath>
 </defs>
</svg>
